<?xml version='1.0' encoding='utf-8'?>
<svg xmlns="http://www.w3.org/2000/svg" xmlns:inkscape="http://www.inkscape.org/namespaces/inkscape" version="1.1" width="1024" height="1024">
    <rect width="100%" height="100%" fill="white" /><g id="ViewLayer_Edges" inkscape:groupmode="lineset" inkscape:label="ViewLayer_Edges">
        <g inkscape:groupmode="layer" id="strokes" inkscape:label="strokes">
            <path fill="none" stroke-width="3.0" stroke-linecap="butt" stroke-opacity="1.0" stroke="rgb(0, 0, 0)" stroke-linejoin="round" d=" M 125.282, 287.492 116.338, 291.965 107.394, 296.437 98.450, 300.909 89.505, 305.381 80.561, 309.853 71.617, 314.325 62.673, 318.797 53.728, 323.270 44.784, 327.742 35.840, 332.214 30.720, 334.774 30.720, 344.774 30.720, 354.774 30.720, 364.774 30.720, 374.774 30.720, 384.774 30.720, 394.774 30.720, 404.774 30.720, 414.774 30.720, 424.774 30.720, 434.774 30.720, 444.774 30.720, 454.774 30.720, 464.774 30.720, 474.774 30.720, 484.774 30.720, 494.774 30.720, 504.774 30.720, 514.774 30.720, 524.774 30.720, 534.774 30.720, 544.774 30.720, 554.774 30.720, 564.774 30.720, 570.552 39.664, 575.024 48.608, 579.496 57.553, 583.968 66.497, 588.440 75.441, 592.913 84.386, 597.385 93.330, 601.857 102.274, 606.329 111.218, 610.801 120.163, 615.273 129.107, 619.745 138.051, 624.217 146.995, 628.690 155.940, 633.162 164.884, 637.634 173.828, 642.106 182.773, 646.578 191.717, 651.050 200.661, 655.522 209.605, 659.995 218.550, 664.467 227.494, 668.939 236.438, 673.411 245.382, 677.883 254.327, 682.355 263.271, 686.827 272.215, 691.299 281.160, 695.772 290.104, 700.244 299.048, 704.716 307.992, 709.188 316.937, 713.660 325.881, 718.132 334.825, 722.604 343.769, 727.077 352.714, 731.549 361.658, 736.021 370.602, 740.493 379.547, 744.965 388.491, 749.437 397.435, 753.909 406.379, 758.382 415.324, 762.854 424.268, 767.326 433.212, 771.798 442.156, 776.270 451.101, 780.742 460.045, 785.214 468.989, 789.686 477.934, 794.159 486.878, 798.631 495.822, 803.103 504.766, 807.575 513.711, 812.047 522.655, 816.519 531.599, 820.991 540.543, 825.464 549.488, 829.936 558.432, 834.408 567.376, 838.880 576.320, 843.352 585.265, 847.824 594.209, 852.296 603.153, 856.769 612.098, 861.241 621.042, 865.713 629.986, 870.185 638.930, 874.657 647.875, 879.129 656.819, 883.601 665.763, 888.073 672.427, 891.405 681.371, 886.933 690.315, 882.461 699.260, 877.989 708.204, 873.517 717.148, 869.045 726.092, 864.572 735.037, 860.100 743.981, 855.628 752.925, 851.156 761.869, 846.684 770.814, 842.212 779.758, 837.740 788.702, 833.267 797.646, 828.795 806.591, 824.323 815.535, 819.851 824.479, 815.379 833.424, 810.907 842.368, 806.435 851.312, 801.962 860.256, 797.490 869.201, 793.018 878.145, 788.546 887.089, 784.074 896.034, 779.602 904.978, 775.130 913.922, 770.658 922.866, 766.185 931.811, 761.713 940.755, 757.241 949.699, 752.769 958.643, 748.297 967.588, 743.825 976.532, 739.353 985.476, 734.880 993.280, 730.979 993.280, 720.979 993.280, 710.979 993.280, 700.979 993.280, 690.979 993.280, 680.979 993.280, 670.979 993.280, 660.979 993.280, 650.979 993.280, 640.979 993.280, 630.979 993.280, 620.979 993.280, 610.979 993.280, 600.979 993.280, 590.979 993.280, 580.979 993.280, 570.979 993.280, 560.979 993.280, 550.979 993.280, 540.979 993.280, 530.979 993.280, 520.979 993.280, 510.979 993.280, 500.979 993.280, 495.200 984.336, 490.728 975.392, 486.256 966.447, 481.784 957.503, 477.312 948.559, 472.840 939.614, 468.368 930.670, 463.895 921.726, 459.423 912.782, 454.951 903.837, 450.479 898.718, 447.919 " />
            <path fill="none" stroke-width="3.0" stroke-linecap="butt" stroke-opacity="1.0" stroke="rgb(0, 0, 0)" stroke-linejoin="round" d=" M 672.427, 891.405 672.427, 881.405 672.427, 871.405 672.427, 861.405 672.427, 851.405 672.427, 841.405 672.427, 831.405 672.427, 821.405 672.427, 811.405 672.427, 801.405 672.427, 791.405 672.427, 781.405 672.427, 776.354 672.427, 766.354 672.427, 756.354 672.427, 746.354 672.427, 736.354 672.427, 726.354 672.427, 716.354 672.427, 706.354 672.427, 696.947 " />
            <path fill="none" stroke-width="3.0" stroke-linecap="butt" stroke-opacity="1.0" stroke="rgb(0, 0, 0)" stroke-linejoin="round" d=" M 672.427, 655.627 663.482, 651.155 654.538, 646.683 645.594, 642.211 636.650, 637.739 627.705, 633.266 618.761, 628.794 609.817, 624.322 604.364, 621.596 602.750, 620.789 593.806, 616.317 584.862, 611.845 581.677, 610.252 580.063, 609.445 571.118, 604.973 562.174, 600.501 553.230, 596.029 544.286, 591.556 535.341, 587.084 526.397, 582.612 517.453, 578.140 508.508, 573.668 499.564, 569.196 490.620, 564.724 481.676, 560.252 472.731, 555.779 463.787, 551.307 454.843, 546.835 445.899, 542.363 443.937, 541.382 442.323, 540.575 433.379, 536.103 424.435, 531.631 421.250, 530.039 419.636, 529.232 410.692, 524.760 401.747, 520.287 392.803, 515.815 383.859, 511.343 374.915, 506.871 365.970, 502.399 357.026, 497.927 348.082, 493.455 339.137, 488.982 330.193, 484.510 321.249, 480.038 312.305, 475.566 303.360, 471.094 298.583, 468.705 289.639, 464.233 283.511, 461.169 274.566, 456.697 265.622, 452.225 260.823, 449.825 251.879, 445.353 242.935, 440.881 233.990, 436.409 225.046, 431.937 216.102, 427.465 207.158, 422.992 198.213, 418.520 189.269, 414.048 180.325, 409.576 171.380, 405.104 162.436, 400.632 153.492, 396.160 144.548, 391.688 135.603, 387.215 126.659, 382.743 117.715, 378.271 108.771, 373.799 102.102, 370.465 93.157, 365.992 84.213, 361.520 75.269, 357.048 66.325, 352.576 57.380, 348.104 48.436, 343.632 39.492, 339.160 30.720, 334.774 " />
            <path fill="none" stroke-width="3.0" stroke-linecap="butt" stroke-opacity="1.0" stroke="rgb(0, 0, 0)" stroke-linejoin="round" d=" M 672.427, 696.947 672.427, 686.947 672.427, 676.947 672.427, 666.947 672.427, 656.947 672.427, 655.627 681.371, 651.155 690.315, 646.683 699.260, 642.211 708.204, 637.739 717.148, 633.266 725.417, 629.132 734.361, 624.660 740.489, 621.596 749.434, 617.124 758.378, 612.651 763.177, 610.252 772.121, 605.780 781.065, 601.308 790.010, 596.836 798.954, 592.363 807.898, 587.891 816.842, 583.419 825.787, 578.947 834.731, 574.475 843.675, 570.003 852.620, 565.531 861.564, 561.059 870.508, 556.586 879.452, 552.114 888.397, 547.642 897.341, 543.170 906.285, 538.698 915.229, 534.226 921.898, 530.891 930.843, 526.419 939.787, 521.947 948.731, 517.475 957.675, 513.003 966.620, 508.531 975.564, 504.058 984.508, 499.586 993.280, 495.200 " />
            <path fill="none" stroke-width="3.0" stroke-linecap="butt" stroke-opacity="1.0" stroke="rgb(0, 0, 0)" stroke-linejoin="round" d=" M 362.631, 179.876 353.687, 175.404 351.573, 174.347 342.629, 178.819 340.516, 179.876 " />
            <path fill="none" stroke-width="3.0" stroke-linecap="butt" stroke-opacity="1.0" stroke="rgb(0, 0, 0)" stroke-linejoin="round" d=" M 764.791, 492.744 768.486, 502.037 769.969, 505.768 777.976, 511.759 784.725, 516.808 794.210, 519.977 803.694, 523.147 806.807, 524.186 816.757, 525.176 826.708, 526.165 832.853, 526.776 842.804, 525.786 852.755, 524.797 858.900, 524.186 868.385, 521.017 877.869, 517.848 880.981, 516.808 886.089, 512.987 894.096, 506.996 895.737, 505.768 899.432, 496.475 900.916, 492.744 " />
            <path fill="none" stroke-width="3.0" stroke-linecap="butt" stroke-opacity="1.0" stroke="rgb(0, 0, 0)" stroke-linejoin="round" d=" M 900.916, 453.448 897.221, 462.740 895.737, 466.471 887.731, 472.462 886.883, 473.096 880.981, 477.512 871.497, 480.681 862.012, 483.850 858.900, 484.890 848.949, 485.879 838.998, 486.868 834.706, 487.295 832.853, 487.479 822.902, 486.490 812.952, 485.501 806.807, 484.890 797.322, 481.721 787.837, 478.552 784.725, 477.512 778.823, 473.096 770.817, 467.105 769.969, 466.471 766.274, 457.179 764.791, 453.448 765.159, 452.522 768.854, 443.229 769.969, 440.425 777.976, 434.434 784.725, 429.384 794.210, 426.215 803.695, 423.046 806.807, 422.006 816.758, 421.017 826.708, 420.028 832.853, 419.417 842.804, 420.406 843.911, 420.516 853.862, 421.505 858.900, 422.006 868.385, 425.175 877.869, 428.344 880.981, 429.384 888.988, 435.375 895.737, 440.425 898.718, 447.919 900.916, 453.448 900.916, 463.448 900.916, 473.448 900.916, 483.448 900.916, 492.744 " />
            <path fill="none" stroke-width="3.0" stroke-linecap="butt" stroke-opacity="1.0" stroke="rgb(0, 0, 0)" stroke-linejoin="round" d=" M 764.791, 453.448 764.791, 463.448 764.791, 473.448 764.791, 483.448 764.791, 492.744 " />
            <path fill="none" stroke-width="3.0" stroke-linecap="butt" stroke-opacity="1.0" stroke="rgb(0, 0, 0)" stroke-linejoin="round" d=" M 604.364, 412.531 608.059, 421.823 609.543, 425.554 617.549, 431.545 624.299, 436.595 633.783, 439.764 643.268, 442.933 646.380, 443.973 656.331, 444.962 666.282, 445.951 672.427, 446.562 682.378, 445.573 692.329, 444.584 698.474, 443.973 707.958, 440.804 717.443, 437.635 720.555, 436.595 725.663, 432.773 733.669, 426.783 735.311, 425.554 739.006, 416.262 740.489, 412.531 " />
            <path fill="none" stroke-width="3.0" stroke-linecap="butt" stroke-opacity="1.0" stroke="rgb(0, 0, 0)" stroke-linejoin="round" d=" M 740.489, 373.235 736.794, 382.527 735.311, 386.258 727.304, 392.249 726.457, 392.883 720.555, 397.299 711.070, 400.468 701.586, 403.637 698.474, 404.677 688.523, 405.666 678.572, 406.655 674.279, 407.082 672.427, 407.266 662.476, 406.277 652.525, 405.288 646.380, 404.677 636.895, 401.508 627.411, 398.339 624.299, 397.299 618.397, 392.883 610.390, 386.892 609.543, 386.258 605.848, 376.966 604.364, 373.235 604.732, 372.308 608.427, 363.016 609.543, 360.211 617.549, 354.220 624.299, 349.171 633.783, 346.002 643.268, 342.832 646.380, 341.793 656.331, 340.803 666.282, 339.814 672.427, 339.203 682.378, 340.193 683.484, 340.303 693.435, 341.292 698.474, 341.793 707.958, 344.962 717.443, 348.131 720.555, 349.171 728.562, 355.161 735.311, 360.211 738.291, 367.706 740.489, 373.235 740.489, 383.235 740.489, 393.235 740.489, 403.235 740.489, 412.531 " />
            <path fill="none" stroke-width="3.0" stroke-linecap="butt" stroke-opacity="1.0" stroke="rgb(0, 0, 0)" stroke-linejoin="round" d=" M 604.364, 373.235 604.364, 383.235 604.364, 393.235 604.364, 403.235 604.364, 412.531 " />
            <path fill="none" stroke-width="3.0" stroke-linecap="butt" stroke-opacity="1.0" stroke="rgb(0, 0, 0)" stroke-linejoin="round" d=" M 443.937, 332.318 447.632, 341.610 449.116, 345.341 457.123, 351.332 463.872, 356.382 473.357, 359.551 482.841, 362.720 485.953, 363.760 495.904, 364.749 505.855, 365.738 512.000, 366.349 521.951, 365.360 531.902, 364.371 538.047, 363.760 547.531, 360.591 557.016, 357.422 560.128, 356.382 565.236, 352.560 573.243, 346.569 574.884, 345.341 578.579, 336.049 580.063, 332.318 " />
            <path fill="none" stroke-width="3.0" stroke-linecap="butt" stroke-opacity="1.0" stroke="rgb(0, 0, 0)" stroke-linejoin="round" d=" M 580.063, 293.021 576.368, 302.314 574.884, 306.045 566.877, 312.036 566.030, 312.669 560.128, 317.085 550.643, 320.254 541.159, 323.424 538.047, 324.463 528.096, 325.453 518.145, 326.442 513.853, 326.868 512.000, 327.053 502.049, 326.063 492.098, 325.074 485.953, 324.463 476.469, 321.294 466.984, 318.125 463.872, 317.085 457.970, 312.669 449.963, 306.679 449.116, 306.045 445.421, 296.752 443.937, 293.021 444.306, 292.095 448.001, 282.803 449.116, 279.998 457.123, 274.007 463.872, 268.957 473.357, 265.788 482.841, 262.619 485.953, 261.579 495.904, 260.590 505.855, 259.601 512.000, 258.990 521.951, 259.979 523.058, 260.089 533.009, 261.078 538.047, 261.579 547.531, 264.748 557.016, 267.917 560.128, 268.957 568.135, 274.948 574.884, 279.998 577.864, 287.492 580.063, 293.021 580.063, 303.021 580.063, 313.021 580.063, 323.021 580.063, 332.318 " />
            <path fill="none" stroke-width="3.0" stroke-linecap="butt" stroke-opacity="1.0" stroke="rgb(0, 0, 0)" stroke-linejoin="round" d=" M 443.937, 293.021 443.937, 303.021 443.937, 313.021 443.937, 323.021 443.937, 332.318 " />
            <path fill="none" stroke-width="3.0" stroke-linecap="butt" stroke-opacity="1.0" stroke="rgb(0, 0, 0)" stroke-linejoin="round" d=" M 283.511, 252.104 287.206, 261.397 288.689, 265.128 296.696, 271.119 298.337, 272.347 303.445, 276.168 312.930, 279.337 322.414, 282.507 325.526, 283.546 335.477, 284.536 345.428, 285.525 351.573, 286.136 351.573, 286.136 351.573, 286.136 361.524, 285.146 371.475, 284.157 377.620, 283.546 387.105, 280.377 396.589, 277.208 399.701, 276.168 404.809, 272.347 412.816, 266.356 414.457, 265.128 418.152, 255.835 419.636, 252.104 " />
            <path fill="none" stroke-width="3.0" stroke-linecap="butt" stroke-opacity="1.0" stroke="rgb(0, 0, 0)" stroke-linejoin="round" d=" M 419.636, 212.808 415.941, 222.100 414.457, 225.831 406.450, 231.822 405.603, 232.456 399.701, 236.872 390.217, 240.041 380.732, 243.210 377.620, 244.250 367.669, 245.239 357.718, 246.228 353.426, 246.655 351.573, 246.839 349.720, 246.655 339.770, 245.666 329.819, 244.677 325.526, 244.250 316.042, 241.081 306.557, 237.912 303.445, 236.872 297.543, 232.456 289.536, 226.465 288.689, 225.831 284.994, 216.539 283.511, 212.808 285.709, 207.279 288.689, 199.785 296.696, 193.794 303.445, 188.744 312.930, 185.575 322.414, 182.406 325.526, 181.366 335.477, 180.377 340.516, 179.876 350.466, 178.887 351.573, 178.777 351.573, 178.777 361.524, 179.766 362.631, 179.876 372.582, 180.865 377.620, 181.366 387.105, 184.535 396.589, 187.704 399.701, 188.744 407.708, 194.735 414.457, 199.785 417.437, 207.279 419.636, 212.808 419.636, 222.808 419.636, 232.808 419.636, 242.808 419.636, 252.104 " />
            <path fill="none" stroke-width="3.0" stroke-linecap="butt" stroke-opacity="1.0" stroke="rgb(0, 0, 0)" stroke-linejoin="round" d=" M 283.511, 212.808 283.511, 222.808 283.511, 232.808 283.511, 242.808 283.511, 252.104 " />
            <path fill="none" stroke-width="3.0" stroke-linecap="butt" stroke-opacity="1.0" stroke="rgb(0, 0, 0)" stroke-linejoin="round" d=" M 604.364, 572.958 608.059, 582.250 609.543, 585.981 617.550, 591.972 624.299, 597.022 633.783, 600.191 643.268, 603.360 646.380, 604.400 656.331, 605.389 666.282, 606.378 672.427, 606.989 679.687, 606.267 689.638, 605.278 698.474, 604.400 707.958, 601.231 717.443, 598.062 720.555, 597.022 722.482, 595.580 730.489, 589.589 735.311, 585.981 739.006, 576.689 740.489, 572.958 740.489, 572.958 " />
            <path fill="none" stroke-width="3.0" stroke-linecap="butt" stroke-opacity="1.0" stroke="rgb(0, 0, 0)" stroke-linejoin="round" d=" M 740.489, 533.661 740.323, 534.079 736.628, 543.371 735.311, 546.685 727.304, 552.676 726.457, 553.310 720.555, 557.725 711.070, 560.894 701.586, 564.064 698.474, 565.103 688.523, 566.093 678.572, 567.082 672.427, 567.693 662.476, 566.703 652.525, 565.714 646.380, 565.103 636.895, 561.934 627.411, 558.765 624.299, 557.725 618.397, 553.310 610.390, 547.319 609.543, 546.685 605.848, 537.392 604.530, 534.079 604.364, 533.661 608.059, 524.369 609.543, 520.638 617.550, 514.647 624.299, 509.597 633.783, 506.428 643.268, 503.259 646.380, 502.219 656.331, 501.230 666.282, 500.241 672.427, 499.630 682.378, 500.619 692.329, 501.608 698.474, 502.219 707.958, 505.388 717.443, 508.557 720.555, 509.597 728.562, 515.588 735.311, 520.638 739.006, 529.930 740.489, 533.661 740.489, 543.661 740.489, 553.661 740.489, 563.670 740.489, 572.958 " />
            <path fill="none" stroke-width="3.0" stroke-linecap="butt" stroke-opacity="1.0" stroke="rgb(0, 0, 0)" stroke-linejoin="round" d=" M 604.364, 533.661 604.364, 534.497 604.364, 534.497 604.364, 536.521 604.364, 546.521 604.364, 556.521 604.364, 563.670 604.364, 568.606 604.364, 572.958 " />
            <path fill="none" stroke-width="3.0" stroke-linecap="butt" stroke-opacity="1.0" stroke="rgb(0, 0, 0)" stroke-linejoin="round" d=" M 443.937, 492.744 443.937, 492.744 447.632, 502.037 449.116, 505.768 457.123, 511.759 463.872, 516.808 473.357, 519.977 482.841, 523.147 485.953, 524.186 495.904, 525.176 505.855, 526.165 512.000, 526.776 519.260, 526.054 529.211, 525.065 538.047, 524.186 547.531, 521.017 557.016, 517.848 560.128, 516.808 562.055, 515.366 570.062, 509.375 574.884, 505.768 578.579, 496.475 580.063, 492.744 580.063, 492.744 " />
            <path fill="none" stroke-width="3.0" stroke-linecap="butt" stroke-opacity="1.0" stroke="rgb(0, 0, 0)" stroke-linejoin="round" d=" M 580.063, 453.448 579.897, 453.866 576.202, 463.158 574.884, 466.471 566.877, 472.462 566.030, 473.096 560.128, 477.512 550.643, 480.681 541.159, 483.850 538.047, 484.890 528.096, 485.879 518.145, 486.868 512.000, 487.479 502.049, 486.490 492.098, 485.501 485.953, 484.890 476.469, 481.721 466.984, 478.552 463.872, 477.512 457.970, 473.096 449.963, 467.105 449.116, 466.471 445.421, 457.179 444.103, 453.866 443.937, 453.448 447.632, 444.156 449.116, 440.425 457.123, 434.434 463.872, 429.384 473.357, 426.215 482.841, 423.046 485.953, 422.006 495.904, 421.017 505.855, 420.028 512.000, 419.417 521.951, 420.406 531.902, 421.395 538.047, 422.006 547.531, 425.175 557.016, 428.344 560.128, 429.384 568.135, 435.375 574.884, 440.425 578.579, 449.717 580.063, 453.448 580.063, 463.448 580.063, 473.448 580.063, 483.457 580.063, 492.744 " />
            <path fill="none" stroke-width="3.0" stroke-linecap="butt" stroke-opacity="1.0" stroke="rgb(0, 0, 0)" stroke-linejoin="round" d=" M 443.937, 453.448 443.937, 456.307 443.937, 466.307 443.937, 476.307 443.937, 483.457 443.937, 488.393 443.937, 492.744 " />
            <path fill="none" stroke-width="3.0" stroke-linecap="butt" stroke-opacity="1.0" stroke="rgb(0, 0, 0)" stroke-linejoin="round" d=" M 283.511, 412.531 283.511, 412.531 287.206, 421.823 288.689, 425.554 296.696, 431.545 301.518, 435.153 303.445, 436.595 312.930, 439.764 322.414, 442.933 325.526, 443.973 335.477, 444.962 344.313, 445.841 351.573, 446.562 358.834, 445.841 368.784, 444.851 377.620, 443.973 387.105, 440.804 396.589, 437.635 399.701, 436.595 401.629, 435.153 409.636, 429.162 414.457, 425.554 418.152, 416.262 419.636, 412.531 419.636, 412.531 " />
            <path fill="none" stroke-width="3.0" stroke-linecap="butt" stroke-opacity="1.0" stroke="rgb(0, 0, 0)" stroke-linejoin="round" d=" M 419.636, 373.235 419.470, 373.652 415.775, 382.945 414.457, 386.258 406.450, 392.249 405.603, 392.883 399.701, 397.299 390.217, 400.468 380.732, 403.637 377.620, 404.677 367.669, 405.666 357.718, 406.655 351.573, 407.266 341.622, 406.277 331.671, 405.288 325.526, 404.677 316.042, 401.508 306.557, 398.339 303.445, 397.299 297.543, 392.883 289.537, 386.892 288.689, 386.258 284.994, 376.966 283.677, 373.652 283.511, 373.235 287.206, 363.942 288.689, 360.211 296.696, 354.220 303.445, 349.171 312.930, 346.002 322.414, 342.832 325.526, 341.793 335.477, 340.803 345.428, 339.814 351.573, 339.203 351.573, 339.203 351.573, 339.203 361.524, 340.193 371.475, 341.182 377.620, 341.793 387.105, 344.962 396.589, 348.131 399.701, 349.171 407.708, 355.161 414.457, 360.211 418.152, 369.504 419.636, 373.235 419.636, 383.235 419.636, 393.235 419.636, 403.243 419.636, 412.531 " />
            <path fill="none" stroke-width="3.0" stroke-linecap="butt" stroke-opacity="1.0" stroke="rgb(0, 0, 0)" stroke-linejoin="round" d=" M 283.511, 373.235 283.511, 383.235 283.511, 393.235 283.511, 403.243 283.511, 412.531 " />
            <path fill="none" stroke-width="3.0" stroke-linecap="butt" stroke-opacity="1.0" stroke="rgb(0, 0, 0)" stroke-linejoin="round" d=" M 123.084, 332.318 126.779, 341.610 128.263, 345.341 136.269, 351.332 137.911, 352.560 143.019, 356.382 152.503, 359.551 161.988, 362.720 165.100, 363.760 175.051, 364.749 185.002, 365.738 191.147, 366.349 201.098, 365.360 211.048, 364.371 217.193, 363.760 226.678, 360.591 236.163, 357.422 239.275, 356.382 247.282, 350.391 254.031, 345.341 257.726, 336.049 259.209, 332.318 " />
            <path fill="none" stroke-width="3.0" stroke-linecap="butt" stroke-opacity="1.0" stroke="rgb(0, 0, 0)" stroke-linejoin="round" d=" M 259.209, 293.021 255.514, 302.314 254.031, 306.045 246.024, 312.036 245.176, 312.669 239.275, 317.085 229.790, 320.254 220.306, 323.423 217.193, 324.463 207.243, 325.453 197.292, 326.442 191.147, 327.053 189.294, 326.868 179.343, 325.879 169.392, 324.890 165.100, 324.463 155.615, 321.294 146.131, 318.125 143.019, 317.085 137.117, 312.669 129.110, 306.679 128.263, 306.045 124.568, 296.752 123.084, 293.021 125.282, 287.492 128.263, 279.998 136.269, 274.007 143.019, 268.957 152.503, 265.788 161.988, 262.619 165.100, 261.579 175.051, 260.590 180.089, 260.089 190.040, 259.100 191.147, 258.990 201.098, 259.979 211.048, 260.968 217.193, 261.579 226.678, 264.748 236.163, 267.917 239.275, 268.957 247.282, 274.948 254.031, 279.998 257.726, 289.290 258.841, 292.095 259.209, 293.021 259.209, 303.021 259.209, 313.021 259.209, 323.021 259.209, 332.318 " />
            <path fill="none" stroke-width="3.0" stroke-linecap="butt" stroke-opacity="1.0" stroke="rgb(0, 0, 0)" stroke-linejoin="round" d=" M 123.084, 293.021 123.084, 303.021 123.084, 313.021 123.084, 323.021 123.084, 332.318 " />
            <path fill="none" stroke-width="3.0" stroke-linecap="butt" stroke-opacity="1.0" stroke="rgb(0, 0, 0)" stroke-linejoin="round" d=" M 285.709, 207.279 276.765, 211.751 267.821, 216.223 258.876, 220.695 249.932, 225.168 240.988, 229.640 232.044, 234.112 223.099, 238.584 214.155, 243.056 205.211, 247.528 196.266, 252.000 187.322, 256.473 180.089, 260.089 " />
            <path fill="none" stroke-width="3.0" stroke-linecap="butt" stroke-opacity="1.0" stroke="rgb(0, 0, 0)" stroke-linejoin="round" d=" M 523.058, 260.089 514.114, 255.617 505.169, 251.145 496.225, 246.673 487.281, 242.201 478.336, 237.729 469.392, 233.256 460.448, 228.784 451.504, 224.312 442.559, 219.840 433.615, 215.368 424.671, 210.896 417.437, 207.279 " />
            <path fill="none" stroke-width="3.0" stroke-linecap="butt" stroke-opacity="1.0" stroke="rgb(0, 0, 0)" stroke-linejoin="round" d=" M 683.484, 340.303 674.540, 335.830 665.596, 331.358 656.652, 326.886 647.707, 322.414 638.763, 317.942 629.819, 313.470 620.875, 308.998 611.930, 304.526 602.986, 300.053 594.042, 295.581 585.097, 291.109 577.864, 287.492 " />
            <path fill="none" stroke-width="3.0" stroke-linecap="butt" stroke-opacity="1.0" stroke="rgb(0, 0, 0)" stroke-linejoin="round" d=" M 843.911, 420.516 834.967, 416.044 826.023, 411.572 817.078, 407.100 808.134, 402.627 799.190, 398.155 790.246, 393.683 781.301, 389.211 772.357, 384.739 763.413, 380.267 754.468, 375.795 745.524, 371.322 738.291, 367.706 " />
        </g>
    </g>
</svg>