<?xml version='1.0' encoding='ascii'?>
<svg xmlns="http://www.w3.org/2000/svg" version="1.1" width="1024" height="1024">
    <g id="ViewLayer_Edges" xmlns:inkscape="http://www.inkscape.org/namespaces/inkscape" inkscape:groupmode="lineset" inkscape:label="ViewLayer_Edges">
        <g xmlns:inkscape="http://www.inkscape.org/namespaces/inkscape" inkscape:groupmode="layer" id="strokes" inkscape:label="strokes">
            <path fill="none" stroke-width="2.5" stroke-linecap="butt" stroke-opacity="1.0" stroke="rgb(0, 0, 0)" stroke-linejoin="round" d=" M 172.564, 295.559 163.619, 300.031 154.675, 304.503 145.731, 308.975 136.787, 313.448 127.842, 317.920 118.898, 322.392 109.954, 326.864 101.010, 331.336 92.065, 335.808 83.121, 340.280 74.177, 344.752 65.232, 349.225 56.288, 353.697 47.344, 358.169 38.400, 362.641 30.720, 366.481 30.720, 376.481 30.720, 386.481 30.720, 396.481 30.720, 406.481 30.720, 416.481 30.720, 426.481 30.720, 436.481 30.720, 446.481 30.720, 456.481 30.720, 466.481 30.720, 476.481 30.720, 486.481 30.720, 496.481 30.720, 506.481 30.720, 516.481 30.720, 526.481 30.720, 536.481 30.720, 546.481 30.720, 556.481 30.720, 566.481 30.720, 576.481 30.720, 586.481 30.720, 596.481 30.720, 606.481 30.720, 616.481 30.720, 626.481 30.720, 636.481 30.720, 646.481 30.720, 656.481 30.720, 666.481 30.720, 676.481 30.720, 686.481 30.720, 696.481 30.720, 706.481 30.720, 716.481 30.720, 720.148 39.664, 724.620 48.609, 729.092 57.553, 733.564 66.497, 738.037 75.441, 742.509 84.386, 746.981 93.330, 751.453 102.274, 755.925 111.218, 760.397 120.163, 764.869 129.107, 769.342 138.051, 773.814 146.995, 778.286 155.940, 782.758 164.884, 787.230 173.828, 791.702 182.773, 796.174 191.717, 800.646 200.661, 805.119 209.605, 809.591 218.550, 814.063 227.494, 818.535 236.438, 823.007 245.382, 827.479 254.327, 831.951 263.271, 836.424 272.215, 840.896 281.160, 845.368 290.104, 849.840 299.048, 854.312 307.992, 858.784 316.937, 863.256 325.881, 867.729 334.825, 872.201 343.769, 876.673 352.714, 881.145 361.658, 885.617 370.602, 890.089 379.547, 894.561 388.491, 899.033 397.435, 903.506 406.379, 907.978 415.324, 912.450 424.268, 916.922 433.212, 921.394 442.156, 925.866 451.101, 930.338 460.045, 934.811 468.989, 939.283 477.934, 943.755 486.878, 948.227 495.822, 952.699 504.766, 957.171 512.000, 960.788 520.944, 956.316 529.889, 951.844 538.833, 947.372 547.777, 942.900 556.721, 938.427 565.666, 933.955 574.610, 929.483 583.554, 925.011 592.498, 920.539 601.443, 916.067 610.387, 911.595 619.331, 907.122 628.276, 902.650 637.220, 898.178 646.164, 893.706 655.108, 889.234 664.053, 884.762 672.997, 880.290 681.941, 875.817 690.885, 871.345 699.830, 866.873 708.774, 862.401 717.718, 857.929 726.663, 853.457 735.607, 848.985 744.551, 844.513 753.495, 840.040 762.440, 835.568 771.384, 831.096 780.328, 826.624 789.272, 822.152 798.217, 817.680 807.161, 813.208 816.105, 808.735 825.049, 804.263 833.994, 799.791 842.938, 795.319 851.882, 790.847 860.827, 786.375 869.771, 781.903 878.715, 777.430 887.659, 772.958 896.604, 768.486 905.548, 764.014 914.492, 759.542 923.436, 755.070 932.381, 750.598 941.325, 746.126 950.269, 741.653 959.214, 737.181 968.158, 732.709 977.102, 728.237 986.046, 723.765 993.280, 720.148 993.280, 710.148 993.280, 700.148 993.280, 690.148 993.280, 680.148 993.280, 670.148 993.280, 660.148 993.280, 650.148 993.280, 640.148 993.280, 630.148 993.280, 620.148 993.280, 610.148 993.280, 600.148 993.280, 590.148 993.280, 580.148 993.280, 570.148 993.280, 560.148 993.280, 550.148 993.280, 540.148 993.280, 530.148 993.280, 520.148 993.280, 510.148 993.280, 500.148 993.280, 490.148 993.280, 480.148 993.280, 470.148 993.280, 460.148 993.280, 450.148 993.280, 440.148 993.280, 430.148 993.280, 420.148 993.280, 410.148 993.280, 400.148 993.280, 390.148 993.280, 380.148 993.280, 370.148 993.280, 366.481 984.336, 362.009 975.391, 357.537 966.447, 353.064 957.503, 348.592 948.559, 344.120 939.614, 339.648 930.670, 335.176 921.726, 330.704 912.782, 326.232 903.837, 321.759 894.893, 317.287 885.949, 312.815 877.005, 308.343 868.060, 303.871 859.116, 299.399 851.436, 295.559 " />
            <path fill="none" stroke-width="2.5" stroke-linecap="butt" stroke-opacity="1.0" stroke="rgb(0, 0, 0)" stroke-linejoin="round" d=" M 512.000, 960.788 512.000, 950.788 512.000, 940.788 512.000, 930.788 512.000, 920.788 512.000, 910.788 512.000, 900.788 512.000, 890.788 512.000, 880.788 512.000, 870.788 512.000, 860.788 512.000, 850.788 512.000, 840.788 512.000, 830.788 512.000, 820.788 512.000, 810.788 512.000, 800.788 512.000, 790.788 512.000, 788.211 512.000, 778.211 512.000, 768.211 512.000, 758.211 512.000, 748.211 512.000, 738.211 512.000, 728.211 512.000, 718.211 512.000, 708.211 512.000, 698.211 512.000, 688.211 512.000, 678.211 512.000, 669.101 512.000, 659.101 512.000, 649.101 512.000, 639.101 512.000, 629.101 512.000, 619.101 512.000, 609.101 512.000, 607.121 " />
            <path fill="none" stroke-width="2.5" stroke-linecap="butt" stroke-opacity="1.0" stroke="rgb(0, 0, 0)" stroke-linejoin="round" d=" M 993.280, 366.481 984.336, 370.953 975.391, 375.425 966.447, 379.897 957.503, 384.369 948.559, 388.842 939.614, 393.314 930.670, 397.786 921.726, 402.258 912.782, 406.730 903.837, 411.202 894.893, 415.674 886.208, 420.017 877.263, 424.489 868.319, 428.961 859.375, 433.434 850.430, 437.906 841.486, 442.378 832.542, 446.850 823.598, 451.322 814.653, 455.794 805.709, 460.266 796.765, 464.738 787.820, 469.211 778.876, 473.683 769.932, 478.155 760.988, 482.627 752.043, 487.099 743.099, 491.571 734.155, 496.043 725.211, 500.516 716.266, 504.988 707.322, 509.460 698.378, 513.932 689.434, 518.404 680.489, 522.876 671.545, 527.348 662.601, 531.820 653.656, 536.293 648.125, 539.058 639.181, 543.530 630.237, 548.003 621.292, 552.475 614.094, 556.074 605.150, 560.546 596.205, 565.018 591.485, 567.378 582.541, 571.851 573.596, 576.323 564.652, 580.795 555.708, 585.267 546.763, 589.739 537.819, 594.211 528.875, 598.683 519.931, 603.156 512.000, 607.121 503.056, 602.649 494.111, 598.177 485.167, 593.704 476.223, 589.232 467.279, 584.760 458.334, 580.288 449.390, 575.816 440.446, 571.344 432.515, 567.378 423.571, 562.906 414.627, 558.434 409.906, 556.074 400.962, 551.602 392.018, 547.130 383.073, 542.657 375.875, 539.058 366.930, 534.586 357.986, 530.114 349.042, 525.642 340.098, 521.170 331.153, 516.698 322.209, 512.225 313.265, 507.753 304.321, 503.281 295.376, 498.809 286.432, 494.337 277.488, 489.865 268.543, 485.393 259.599, 480.920 250.655, 476.448 241.711, 471.976 232.766, 467.504 223.822, 463.032 214.878, 458.560 205.934, 454.088 196.989, 449.615 188.045, 445.143 179.101, 440.671 170.156, 436.199 161.212, 431.727 152.268, 427.255 143.324, 422.783 137.793, 420.017 128.848, 415.545 119.904, 411.073 110.960, 406.601 102.015, 402.129 93.071, 397.656 84.127, 393.184 75.183, 388.712 66.238, 384.240 57.294, 379.768 48.350, 375.296 39.406, 370.824 30.720, 366.481 " />
            <path fill="none" stroke-width="2.5" stroke-linecap="butt" stroke-opacity="1.0" stroke="rgb(0, 0, 0)" stroke-linejoin="round" d=" M 528.587, 134.134 519.642, 129.662 512.000, 125.841 503.056, 130.313 495.413, 134.134 " />
            <path fill="none" stroke-width="2.5" stroke-linecap="butt" stroke-opacity="1.0" stroke="rgb(0, 0, 0)" stroke-linejoin="round" d=" M 169.266, 362.797 172.961, 372.089 176.656, 381.381 177.034, 382.332 185.041, 388.323 191.506, 393.160 199.168, 398.893 208.653, 402.062 218.137, 405.231 227.622, 408.400 232.290, 409.960 242.241, 410.949 252.192, 411.938 262.143, 412.927 271.360, 413.844 281.311, 412.855 291.262, 411.865 301.213, 410.876 310.430, 409.960 319.915, 406.791 329.399, 403.622 338.884, 400.453 343.552, 398.893 351.559, 392.902 359.566, 386.911 365.686, 382.332 369.381, 373.040 373.076, 363.747 373.454, 362.797 " />
            <path fill="none" stroke-width="2.5" stroke-linecap="butt" stroke-opacity="1.0" stroke="rgb(0, 0, 0)" stroke-linejoin="round" d=" M 373.454, 303.852 369.759, 313.145 366.064, 322.437 365.686, 323.387 357.679, 329.378 352.405, 333.325 344.398, 339.315 343.552, 339.948 334.067, 343.117 324.583, 346.286 315.098, 349.456 310.430, 351.015 300.479, 352.005 290.528, 352.994 280.577, 353.983 271.360, 354.899 268.581, 354.623 258.630, 353.634 248.679, 352.645 238.728, 351.655 232.290, 351.015 222.805, 347.846 213.321, 344.677 203.836, 341.508 199.168, 339.948 191.161, 333.957 190.315, 333.325 182.308, 327.334 177.034, 323.387 173.339, 314.095 169.644, 304.803 169.266, 303.852 172.564, 295.559 176.259, 286.267 177.034, 284.317 185.041, 278.326 193.048, 272.336 199.168, 267.756 208.653, 264.587 218.137, 261.418 227.622, 258.249 232.290, 256.689 242.241, 255.700 252.192, 254.711 254.773, 254.454 264.724, 253.465 271.360, 252.805 281.311, 253.794 291.262, 254.784 301.213, 255.773 310.430, 256.689 319.915, 259.858 329.399, 263.027 338.884, 266.197 343.552, 267.756 351.559, 273.747 359.566, 279.738 365.686, 284.317 369.381, 293.609 372.901, 302.463 373.454, 303.852 373.454, 313.852 373.454, 323.852 373.454, 333.852 373.454, 343.852 373.454, 353.852 373.454, 362.797 " />
            <path fill="none" stroke-width="2.5" stroke-linecap="butt" stroke-opacity="1.0" stroke="rgb(0, 0, 0)" stroke-linejoin="round" d=" M 169.266, 303.852 169.266, 313.852 169.266, 323.852 169.266, 333.852 169.266, 343.852 169.266, 353.852 169.266, 362.797 " />
            <path fill="none" stroke-width="2.5" stroke-linecap="butt" stroke-opacity="1.0" stroke="rgb(0, 0, 0)" stroke-linejoin="round" d=" M 409.906, 483.117 409.906, 483.117 413.601, 492.409 417.296, 501.701 417.674, 502.652 425.681, 508.643 433.688, 514.634 436.917, 517.050 439.808, 519.213 449.293, 522.382 458.777, 525.551 468.262, 528.720 472.930, 530.280 482.881, 531.269 492.832, 532.258 501.110, 533.081 511.061, 534.070 512.000, 534.164 521.951, 533.175 522.890, 533.081 532.841, 532.092 542.792, 531.103 551.070, 530.280 560.555, 527.111 570.039, 523.942 579.524, 520.773 584.192, 519.213 587.083, 517.050 595.090, 511.059 603.097, 505.068 606.326, 502.652 610.021, 493.360 613.716, 484.067 614.094, 483.117 614.094, 483.117 " />
            <path fill="none" stroke-width="2.5" stroke-linecap="butt" stroke-opacity="1.0" stroke="rgb(0, 0, 0)" stroke-linejoin="round" d=" M 512.000, 373.125 521.951, 374.115 531.902, 375.104 541.853, 376.093 551.070, 377.009 560.555, 380.178 570.039, 383.347 579.524, 386.517 584.192, 388.076 592.199, 394.067 600.206, 400.058 606.326, 404.637 610.021, 413.929 613.716, 423.222 614.094, 424.172 613.845, 424.799 610.150, 434.091 606.455, 443.383 606.326, 443.707 598.319, 449.698 593.045, 453.645 585.038, 459.635 584.192, 460.268 574.707, 463.437 565.223, 466.606 555.738, 469.776 551.070, 471.335 541.119, 472.325 531.168, 473.314 521.217, 474.303 512.000, 475.219 502.049, 474.230 492.098, 473.241 482.147, 472.252 472.930, 471.335 463.445, 468.166 453.961, 464.997 444.476, 461.828 439.808, 460.268 431.801, 454.277 430.955, 453.645 422.948, 447.654 417.674, 443.707 413.979, 434.415 410.284, 425.123 410.155, 424.799 409.906, 424.172 413.601, 414.880 417.296, 405.588 417.674, 404.637 425.681, 398.646 433.688, 392.656 439.808, 388.076 449.293, 384.907 458.777, 381.738 468.262, 378.569 472.930, 377.009 482.881, 376.020 492.832, 375.031 502.783, 374.042 512.000, 373.125 512.000, 373.125 " />
            <path fill="none" stroke-width="2.5" stroke-linecap="butt" stroke-opacity="1.0" stroke="rgb(0, 0, 0)" stroke-linejoin="round" d=" M 614.094, 483.117 614.094, 473.117 614.094, 469.185 614.094, 459.185 614.094, 449.185 614.094, 439.185 614.094, 429.185 614.094, 424.172 " />
            <path fill="none" stroke-width="2.5" stroke-linecap="butt" stroke-opacity="1.0" stroke="rgb(0, 0, 0)" stroke-linejoin="round" d=" M 409.906, 424.172 409.906, 434.172 409.906, 444.172 409.906, 454.172 409.906, 464.172 409.906, 469.185 409.906, 479.185 409.906, 483.117 " />
            <path fill="none" stroke-width="2.5" stroke-linecap="butt" stroke-opacity="1.0" stroke="rgb(0, 0, 0)" stroke-linejoin="round" d=" M 512.000, 293.524 521.951, 292.535 531.902, 291.545 541.853, 290.556 551.070, 289.640 560.555, 286.471 570.039, 283.302 579.524, 280.133 584.192, 278.573 591.854, 272.840 599.861, 266.849 606.326, 262.012 610.021, 252.720 613.716, 243.427 614.094, 242.477 " />
            <path fill="none" stroke-width="2.5" stroke-linecap="butt" stroke-opacity="1.0" stroke="rgb(0, 0, 0)" stroke-linejoin="round" d=" M 512.000, 132.485 521.951, 133.474 528.587, 134.134 538.538, 135.123 548.489, 136.113 551.070, 136.369 560.555, 139.538 570.039, 142.707 579.524, 145.877 584.192, 147.436 592.199, 153.427 600.206, 159.418 606.326, 163.997 610.021, 173.289 610.796, 175.239 614.094, 183.532 610.399, 192.825 606.704, 202.117 606.326, 203.067 598.319, 209.058 593.045, 213.005 585.038, 218.995 584.192, 219.628 574.707, 222.797 565.223, 225.966 555.738, 229.136 551.070, 230.695 541.119, 231.685 531.168, 232.674 521.217, 233.663 514.779, 234.303 512.000, 234.579 509.221, 234.303 499.270, 233.314 489.319, 232.325 479.368, 231.335 472.930, 230.695 463.445, 227.526 453.961, 224.357 444.476, 221.188 439.808, 219.628 431.801, 213.637 430.955, 213.005 422.948, 207.014 417.674, 203.067 413.979, 193.775 410.284, 184.483 409.906, 183.532 413.204, 175.239 416.899, 165.947 417.674, 163.997 425.681, 158.006 433.688, 152.016 439.808, 147.436 449.293, 144.267 458.777, 141.098 468.262, 137.929 472.930, 136.369 482.881, 135.380 492.832, 134.391 495.413, 134.134 505.364, 133.145 512.000, 132.485 " />
            <path fill="none" stroke-width="2.5" stroke-linecap="butt" stroke-opacity="1.0" stroke="rgb(0, 0, 0)" stroke-linejoin="round" d=" M 614.094, 242.477 614.094, 232.477 614.094, 222.477 614.094, 212.477 614.094, 202.477 614.094, 192.477 614.094, 183.532 " />
            <path fill="none" stroke-width="2.5" stroke-linecap="butt" stroke-opacity="1.0" stroke="rgb(0, 0, 0)" stroke-linejoin="round" d=" M 409.906, 183.532 409.906, 193.532 409.906, 203.532 409.906, 213.532 409.906, 223.532 409.906, 233.532 409.906, 242.477 " />
            <path fill="none" stroke-width="2.5" stroke-linecap="butt" stroke-opacity="1.0" stroke="rgb(0, 0, 0)" stroke-linejoin="round" d=" M 409.906, 242.477 413.601, 251.769 417.296, 261.061 417.674, 262.012 425.681, 268.003 432.146, 272.840 439.808, 278.573 449.293, 281.742 458.777, 284.911 468.262, 288.080 472.930, 289.640 482.881, 290.629 492.832, 291.618 502.783, 292.607 512.000, 293.524 512.000, 293.524 " />
            <path fill="none" stroke-width="2.5" stroke-linecap="butt" stroke-opacity="1.0" stroke="rgb(0, 0, 0)" stroke-linejoin="round" d=" M 650.546, 362.797 654.241, 372.089 657.936, 381.381 658.314, 382.332 666.321, 388.323 674.328, 394.314 680.448, 398.893 689.933, 402.062 699.417, 405.231 708.902, 408.400 713.570, 409.960 723.521, 410.949 733.472, 411.938 743.423, 412.927 752.640, 413.844 762.591, 412.855 772.542, 411.865 782.493, 410.876 791.710, 409.960 801.195, 406.791 810.679, 403.622 820.164, 400.453 824.832, 398.893 832.494, 393.160 840.501, 387.169 846.966, 382.332 850.661, 373.040 854.356, 363.747 854.734, 362.797 " />
            <path fill="none" stroke-width="2.5" stroke-linecap="butt" stroke-opacity="1.0" stroke="rgb(0, 0, 0)" stroke-linejoin="round" d=" M 854.734, 303.852 851.039, 313.145 847.344, 322.437 846.966, 323.387 838.959, 329.378 833.685, 333.325 825.678, 339.315 824.832, 339.948 815.347, 343.117 805.863, 346.286 796.378, 349.456 791.710, 351.015 781.759, 352.005 771.808, 352.994 761.857, 353.983 755.419, 354.623 752.640, 354.899 742.689, 353.910 732.738, 352.921 722.787, 351.932 713.570, 351.015 704.085, 347.846 694.601, 344.677 685.116, 341.508 680.448, 339.948 672.441, 333.957 671.595, 333.325 663.588, 327.334 658.314, 323.387 654.619, 314.095 650.924, 304.803 650.546, 303.852 651.099, 302.463 654.794, 293.170 658.314, 284.317 666.321, 278.326 674.328, 272.336 680.448, 267.756 689.933, 264.587 699.417, 261.418 708.902, 258.249 713.570, 256.689 723.521, 255.700 733.472, 254.711 743.423, 253.722 752.640, 252.805 762.591, 253.794 769.227, 254.454 779.178, 255.443 789.129, 256.433 791.710, 256.689 801.195, 259.858 810.679, 263.027 820.164, 266.197 824.832, 267.756 832.839, 273.747 840.846, 279.738 846.966, 284.317 850.661, 293.609 851.436, 295.559 854.734, 303.852 854.734, 313.852 854.734, 323.852 854.734, 333.852 854.734, 343.852 854.734, 353.852 854.734, 362.797 " />
            <path fill="none" stroke-width="2.5" stroke-linecap="butt" stroke-opacity="1.0" stroke="rgb(0, 0, 0)" stroke-linejoin="round" d=" M 650.546, 303.852 650.546, 313.852 650.546, 323.852 650.546, 333.852 650.546, 343.852 650.546, 353.852 650.546, 362.797 " />
            <path fill="none" stroke-width="2.5" stroke-linecap="butt" stroke-opacity="1.0" stroke="rgb(0, 0, 0)" stroke-linejoin="round" d=" M 413.204, 175.239 404.259, 179.711 395.315, 184.183 386.371, 188.655 377.427, 193.128 368.482, 197.600 359.538, 202.072 350.594, 206.544 341.650, 211.016 332.705, 215.488 323.761, 219.960 314.817, 224.432 305.872, 228.905 296.928, 233.377 287.984, 237.849 279.040, 242.321 270.095, 246.793 261.151, 251.265 254.773, 254.454 " />
            <path fill="none" stroke-width="2.5" stroke-linecap="butt" stroke-opacity="1.0" stroke="rgb(0, 0, 0)" stroke-linejoin="round" d=" M 769.227, 254.454 760.282, 249.982 751.338, 245.510 742.394, 241.038 733.450, 236.566 724.505, 232.093 715.561, 227.621 706.617, 223.149 697.672, 218.677 688.728, 214.205 679.784, 209.733 670.840, 205.261 661.895, 200.789 652.951, 196.316 644.007, 191.844 635.063, 187.372 626.118, 182.900 617.174, 178.428 610.796, 175.239 " />
        </g>
    </g>
</svg>
