<?xml version='1.0' encoding='utf-8'?>
<svg xmlns="http://www.w3.org/2000/svg" xmlns:inkscape="http://www.inkscape.org/namespaces/inkscape" version="1.1" width="1024" height="1024">
    <rect width="100%" height="100%" fill="white" /><g id="ViewLayer_Edges" inkscape:groupmode="lineset" inkscape:label="ViewLayer_Edges">
        <g inkscape:groupmode="layer" id="strokes" inkscape:label="strokes">
            <path fill="none" stroke-width="1.5" stroke-linecap="butt" stroke-opacity="1.0" stroke="rgb(0, 0, 0)" stroke-linejoin="round" d=" M 125.282, 366.085 116.338, 370.558 107.394, 375.030 98.450, 379.502 89.505, 383.974 80.561, 388.446 71.617, 392.918 62.673, 397.390 53.728, 401.863 44.784, 406.335 35.840, 410.807 30.720, 413.367 30.720, 423.367 30.720, 433.367 30.720, 443.367 30.720, 453.367 30.720, 463.367 30.720, 473.367 30.720, 483.367 30.720, 491.959 39.664, 496.432 48.608, 500.904 57.553, 505.376 66.497, 509.848 75.441, 514.320 84.386, 518.792 93.330, 523.264 102.274, 527.737 111.218, 532.209 120.163, 536.681 129.107, 541.153 138.051, 545.625 146.995, 550.097 155.940, 554.569 164.884, 559.041 173.828, 563.514 182.773, 567.986 191.717, 572.458 200.661, 576.930 209.605, 581.402 218.550, 585.874 227.494, 590.346 236.438, 594.819 245.382, 599.291 254.327, 603.763 263.271, 608.235 272.215, 612.707 281.160, 617.179 290.104, 621.651 299.048, 626.124 307.992, 630.596 316.937, 635.068 325.881, 639.540 334.825, 644.012 343.769, 648.484 352.714, 652.956 361.658, 657.428 370.602, 661.901 379.547, 666.373 388.491, 670.845 397.435, 675.317 406.379, 679.789 415.324, 684.261 424.268, 688.733 433.212, 693.206 442.156, 697.678 451.101, 702.150 460.045, 706.622 468.989, 711.094 477.934, 715.566 486.878, 720.038 495.822, 724.510 504.766, 728.983 513.711, 733.455 522.655, 737.927 531.599, 742.399 540.543, 746.871 549.488, 751.343 558.432, 755.815 567.376, 760.288 576.320, 764.760 585.265, 769.232 594.209, 773.704 603.153, 778.176 612.098, 782.648 621.042, 787.120 629.986, 791.593 638.930, 796.065 647.875, 800.537 656.819, 805.009 665.763, 809.481 672.427, 812.813 681.371, 808.341 690.315, 803.869 699.260, 799.396 708.204, 794.924 717.148, 790.452 726.092, 785.980 735.037, 781.508 743.981, 777.036 752.925, 772.564 761.869, 768.091 770.814, 763.619 779.758, 759.147 788.702, 754.675 797.646, 750.203 806.591, 745.731 815.535, 741.259 824.479, 736.786 833.424, 732.314 842.368, 727.842 851.312, 723.370 860.256, 718.898 869.201, 714.426 878.145, 709.954 887.089, 705.482 896.034, 701.009 904.978, 696.537 913.922, 692.065 922.866, 687.593 931.811, 683.121 940.755, 678.649 949.699, 674.177 958.643, 669.704 967.588, 665.232 976.532, 660.760 985.476, 656.288 993.280, 652.386 993.280, 642.386 993.280, 632.386 993.280, 622.386 993.280, 612.386 993.280, 602.386 993.280, 592.386 993.280, 582.386 993.280, 573.793 984.336, 569.321 975.392, 564.849 966.447, 560.377 957.503, 555.905 948.559, 551.433 939.614, 546.961 930.670, 542.488 921.726, 538.016 912.782, 533.544 903.837, 529.072 898.718, 526.512 " />
            <path fill="none" stroke-width="1.5" stroke-linecap="butt" stroke-opacity="1.0" stroke="rgb(0, 0, 0)" stroke-linejoin="round" d=" M 30.720, 413.367 39.664, 417.839 48.608, 422.311 57.553, 426.783 66.497, 431.255 75.441, 435.727 84.386, 440.200 93.330, 444.672 102.102, 449.058 111.046, 453.530 119.990, 458.002 128.934, 462.474 137.879, 466.946 141.398, 468.706 150.342, 473.178 159.286, 477.650 168.231, 482.122 177.175, 486.594 186.119, 491.066 195.064, 495.539 204.008, 500.011 212.952, 504.483 221.896, 508.955 230.841, 513.427 239.785, 517.899 248.729, 522.371 257.673, 526.844 266.618, 531.316 275.562, 535.788 284.506, 540.260 293.451, 544.732 302.395, 549.204 311.339, 553.676 320.283, 558.148 329.228, 562.621 338.172, 567.093 347.116, 571.565 356.060, 576.037 365.005, 580.509 373.949, 584.981 382.893, 589.453 391.838, 593.926 400.782, 598.398 409.726, 602.870 418.670, 607.342 427.615, 611.814 436.559, 616.286 445.503, 620.758 454.447, 625.230 463.392, 629.703 472.336, 634.175 481.280, 638.647 490.225, 643.119 499.169, 647.591 508.113, 652.063 517.057, 656.535 526.002, 661.008 534.946, 665.480 543.890, 669.952 552.834, 674.424 561.779, 678.896 570.723, 683.368 579.667, 687.840 588.612, 692.313 597.556, 696.785 606.500, 701.257 615.444, 705.729 624.389, 710.201 633.333, 714.673 642.277, 719.145 651.221, 723.617 660.166, 728.090 672.427, 734.220 " />
            <path fill="none" stroke-width="1.5" stroke-linecap="butt" stroke-opacity="1.0" stroke="rgb(0, 0, 0)" stroke-linejoin="round" d=" M 672.427, 812.813 672.427, 802.813 672.427, 792.813 672.427, 782.813 672.427, 772.813 672.427, 762.813 672.427, 752.813 672.427, 742.813 672.427, 734.220 681.371, 729.748 690.315, 725.276 699.260, 720.804 708.204, 716.332 717.148, 711.859 726.092, 707.387 735.037, 702.915 743.981, 698.443 752.925, 693.971 761.869, 689.499 770.814, 685.027 779.758, 680.554 788.702, 676.082 797.646, 671.610 806.591, 667.138 815.535, 662.666 824.479, 658.194 833.424, 653.722 842.368, 649.250 851.312, 644.777 860.256, 640.305 869.201, 635.833 878.145, 631.361 882.602, 629.132 891.546, 624.660 900.491, 620.188 909.435, 615.716 918.379, 611.244 921.898, 609.484 930.843, 605.012 939.787, 600.540 948.731, 596.068 957.675, 591.596 966.620, 587.124 975.564, 582.651 984.508, 578.179 993.280, 573.793 " />
            <path fill="none" stroke-width="1.5" stroke-linecap="butt" stroke-opacity="1.0" stroke="rgb(0, 0, 0)" stroke-linejoin="round" d=" M 362.631, 258.469 353.687, 253.997 351.573, 252.940 342.629, 257.412 340.516, 258.469 " />
            <path fill="none" stroke-width="1.5" stroke-linecap="butt" stroke-opacity="1.0" stroke="rgb(0, 0, 0)" stroke-linejoin="round" d=" M 764.791, 571.337 768.486, 580.630 769.969, 584.361 777.976, 590.352 784.725, 595.401 794.210, 598.570 803.694, 601.740 806.807, 602.779 816.757, 603.769 826.708, 604.758 832.853, 605.369 834.706, 605.185 844.657, 604.195 854.608, 603.206 858.900, 602.779 868.385, 599.610 877.869, 596.441 879.980, 595.736 880.981, 595.401 886.089, 591.580 894.096, 585.589 895.737, 584.361 899.432, 575.069 900.916, 571.337 " />
            <path fill="none" stroke-width="1.5" stroke-linecap="butt" stroke-opacity="1.0" stroke="rgb(0, 0, 0)" stroke-linejoin="round" d=" M 900.916, 532.041 897.221, 541.333 895.737, 545.064 887.731, 551.055 886.883, 551.689 880.981, 556.105 871.497, 559.274 862.012, 562.443 858.900, 563.483 848.949, 564.472 838.998, 565.461 834.706, 565.888 832.853, 566.072 822.902, 565.083 812.952, 564.094 806.807, 563.483 797.322, 560.314 787.837, 557.145 784.725, 556.105 778.823, 551.689 770.817, 545.698 769.969, 545.064 766.274, 535.772 764.791, 532.041 765.159, 531.115 768.854, 521.822 769.969, 519.018 777.976, 513.027 784.725, 507.977 794.210, 504.808 803.695, 501.639 806.807, 500.599 816.758, 499.610 826.708, 498.621 832.853, 498.010 842.804, 498.999 843.911, 499.109 853.862, 500.098 858.900, 500.599 868.385, 503.768 877.869, 506.937 880.981, 507.977 888.988, 513.968 895.737, 519.018 898.718, 526.512 900.916, 532.041 900.916, 542.041 900.916, 552.041 900.916, 562.041 900.916, 571.337 " />
            <path fill="none" stroke-width="1.5" stroke-linecap="butt" stroke-opacity="1.0" stroke="rgb(0, 0, 0)" stroke-linejoin="round" d=" M 764.791, 532.041 764.791, 538.141 764.791, 548.141 764.791, 558.141 764.791, 568.141 764.791, 570.227 764.791, 571.337 " />
            <path fill="none" stroke-width="1.5" stroke-linecap="butt" stroke-opacity="1.0" stroke="rgb(0, 0, 0)" stroke-linejoin="round" d=" M 604.364, 491.124 608.059, 500.416 609.543, 504.147 617.549, 510.138 624.299, 515.188 633.783, 518.357 643.268, 521.526 646.380, 522.566 656.331, 523.555 666.282, 524.544 672.427, 525.155 674.280, 524.971 684.230, 523.982 694.181, 522.993 698.474, 522.566 707.958, 519.397 717.443, 516.228 719.553, 515.523 720.555, 515.188 725.663, 511.366 733.669, 505.376 735.311, 504.147 739.006, 494.855 740.489, 491.124 " />
            <path fill="none" stroke-width="1.5" stroke-linecap="butt" stroke-opacity="1.0" stroke="rgb(0, 0, 0)" stroke-linejoin="round" d=" M 740.489, 451.828 736.794, 461.120 735.311, 464.851 727.304, 470.842 726.457, 471.476 720.555, 475.892 711.070, 479.061 701.586, 482.230 698.474, 483.270 688.523, 484.259 678.572, 485.248 674.280, 485.675 672.427, 485.859 662.476, 484.870 652.525, 483.881 646.380, 483.270 636.895, 480.101 627.411, 476.932 624.299, 475.892 618.397, 471.476 610.390, 465.485 609.543, 464.851 605.848, 455.559 604.364, 451.828 604.732, 450.901 608.427, 441.609 609.543, 438.804 617.549, 432.813 624.299, 427.764 633.783, 424.595 643.268, 421.425 646.380, 420.386 656.331, 419.396 666.282, 418.407 672.427, 417.796 682.378, 418.786 683.484, 418.896 693.435, 419.885 698.474, 420.386 707.958, 423.555 717.443, 426.724 720.555, 427.764 728.562, 433.755 735.311, 438.804 738.291, 446.299 740.489, 451.828 740.489, 461.828 740.489, 471.828 740.489, 481.828 740.489, 491.124 " />
            <path fill="none" stroke-width="1.5" stroke-linecap="butt" stroke-opacity="1.0" stroke="rgb(0, 0, 0)" stroke-linejoin="round" d=" M 604.364, 451.828 604.364, 457.928 604.364, 467.928 604.364, 477.928 604.364, 487.928 604.364, 490.013 604.364, 491.124 " />
            <path fill="none" stroke-width="1.5" stroke-linecap="butt" stroke-opacity="1.0" stroke="rgb(0, 0, 0)" stroke-linejoin="round" d=" M 443.937, 410.911 447.632, 420.203 449.116, 423.934 457.123, 429.925 463.872, 434.975 473.357, 438.144 482.841, 441.313 485.953, 442.353 495.904, 443.342 505.855, 444.331 512.000, 444.942 513.853, 444.758 523.804, 443.769 533.755, 442.779 538.047, 442.353 547.531, 439.184 557.016, 436.015 559.127, 435.309 560.128, 434.975 565.236, 431.153 573.243, 425.162 574.884, 423.934 578.579, 414.642 580.063, 410.911 " />
            <path fill="none" stroke-width="1.5" stroke-linecap="butt" stroke-opacity="1.0" stroke="rgb(0, 0, 0)" stroke-linejoin="round" d=" M 580.063, 371.614 576.368, 380.907 574.884, 384.638 566.877, 390.629 566.030, 391.263 560.128, 395.678 550.643, 398.847 541.159, 402.017 538.047, 403.056 528.096, 404.046 518.145, 405.035 513.853, 405.461 512.000, 405.646 502.049, 404.656 492.098, 403.667 485.953, 403.056 476.469, 399.887 466.984, 396.718 463.872, 395.678 457.970, 391.263 449.963, 385.272 449.116, 384.638 445.421, 375.345 443.937, 371.614 444.306, 370.688 448.001, 361.396 449.116, 358.591 457.123, 352.600 463.872, 347.550 473.357, 344.381 482.841, 341.212 485.953, 340.172 495.904, 339.183 505.855, 338.194 512.000, 337.583 521.951, 338.572 523.058, 338.682 533.009, 339.672 538.047, 340.172 547.531, 343.341 557.016, 346.510 560.128, 347.550 568.135, 353.541 574.884, 358.591 577.864, 366.085 580.063, 371.614 580.063, 381.614 580.063, 391.614 580.063, 401.614 580.063, 410.911 " />
            <path fill="none" stroke-width="1.5" stroke-linecap="butt" stroke-opacity="1.0" stroke="rgb(0, 0, 0)" stroke-linejoin="round" d=" M 443.937, 371.614 443.937, 377.715 443.937, 387.715 443.937, 397.715 443.937, 407.715 443.937, 409.800 443.937, 410.911 " />
            <path fill="none" stroke-width="1.5" stroke-linecap="butt" stroke-opacity="1.0" stroke="rgb(0, 0, 0)" stroke-linejoin="round" d=" M 283.511, 330.697 287.206, 339.990 288.689, 343.721 296.696, 349.712 298.337, 350.940 303.445, 354.761 304.447, 355.096 313.931, 358.265 323.416, 361.434 325.526, 362.139 335.477, 363.129 345.428, 364.118 349.720, 364.544 351.573, 364.729 353.426, 364.544 363.377, 363.555 373.328, 362.566 377.620, 362.139 387.105, 358.970 396.589, 355.801 398.700, 355.096 399.701, 354.761 404.809, 350.940 412.816, 344.949 414.457, 343.721 418.152, 334.428 419.636, 330.697 " />
            <path fill="none" stroke-width="1.5" stroke-linecap="butt" stroke-opacity="1.0" stroke="rgb(0, 0, 0)" stroke-linejoin="round" d=" M 419.636, 291.401 415.941, 300.693 414.457, 304.424 406.450, 310.415 405.603, 311.049 399.701, 315.465 390.217, 318.634 380.732, 321.803 377.620, 322.843 367.669, 323.832 357.718, 324.821 353.426, 325.248 351.573, 325.432 349.720, 325.248 339.770, 324.259 329.819, 323.270 325.526, 322.843 316.042, 319.674 306.557, 316.505 303.445, 315.465 297.543, 311.049 289.536, 305.058 288.689, 304.424 284.994, 295.132 283.511, 291.401 285.709, 285.872 288.689, 278.378 296.696, 272.387 303.445, 267.337 312.930, 264.168 322.414, 260.999 325.526, 259.959 335.477, 258.970 340.516, 258.469 350.466, 257.480 351.573, 257.370 351.573, 257.370 361.524, 258.359 362.631, 258.469 372.582, 259.458 377.620, 259.959 387.105, 263.128 396.589, 266.297 399.701, 267.337 407.708, 273.328 414.457, 278.378 417.437, 285.872 419.636, 291.401 419.636, 301.401 419.636, 311.401 419.636, 321.401 419.636, 330.697 " />
            <path fill="none" stroke-width="1.5" stroke-linecap="butt" stroke-opacity="1.0" stroke="rgb(0, 0, 0)" stroke-linejoin="round" d=" M 283.511, 291.401 283.511, 301.401 283.511, 311.401 283.511, 321.401 283.511, 330.697 " />
            <path fill="none" stroke-width="1.5" stroke-linecap="butt" stroke-opacity="1.0" stroke="rgb(0, 0, 0)" stroke-linejoin="round" d=" M 604.364, 651.551 604.530, 651.968 608.225, 661.261 609.543, 664.574 617.550, 670.565 624.299, 675.615 633.783, 678.784 643.268, 681.953 646.380, 682.993 656.331, 683.982 666.282, 684.971 672.427, 685.582 682.378, 684.593 692.329, 683.604 698.474, 682.993 707.958, 679.824 717.443, 676.655 720.555, 675.615 728.562, 669.624 735.311, 664.574 739.006, 655.282 740.323, 651.968 740.489, 651.551 740.489, 651.551 " />
            <path fill="none" stroke-width="1.5" stroke-linecap="butt" stroke-opacity="1.0" stroke="rgb(0, 0, 0)" stroke-linejoin="round" d=" M 740.489, 612.254 740.323, 612.672 736.628, 621.964 735.311, 625.278 727.304, 631.269 726.457, 631.903 725.898, 632.320 720.555, 636.318 711.070, 639.487 701.586, 642.657 698.474, 643.696 688.523, 644.686 678.572, 645.675 672.427, 646.286 662.476, 645.296 652.525, 644.307 646.380, 643.696 636.895, 640.527 627.411, 637.358 624.299, 636.318 618.955, 632.320 618.397, 631.903 610.390, 625.912 609.543, 625.278 605.848, 615.986 604.530, 612.672 604.364, 612.254 608.059, 602.962 609.543, 599.231 617.550, 593.240 624.299, 588.190 633.783, 585.021 643.268, 581.852 646.380, 580.812 656.331, 579.823 666.282, 578.834 672.427, 578.223 682.378, 579.212 692.329, 580.201 698.474, 580.812 707.958, 583.981 717.443, 587.151 720.555, 588.190 728.562, 594.181 735.311, 599.231 739.006, 608.523 740.489, 612.254 740.489, 622.254 740.489, 623.213 740.489, 633.213 740.489, 642.263 740.489, 651.551 " />
            <path fill="none" stroke-width="1.5" stroke-linecap="butt" stroke-opacity="1.0" stroke="rgb(0, 0, 0)" stroke-linejoin="round" d=" M 604.364, 612.254 604.364, 613.090 604.364, 613.090 604.364, 623.090 604.364, 623.213 604.364, 633.213 604.364, 642.263 604.364, 651.551 " />
            <path fill="none" stroke-width="1.5" stroke-linecap="butt" stroke-opacity="1.0" stroke="rgb(0, 0, 0)" stroke-linejoin="round" d=" M 443.937, 571.337 443.937, 571.337 444.103, 571.755 447.798, 581.047 449.116, 584.361 457.123, 590.352 463.872, 595.401 473.357, 598.570 482.841, 601.740 485.953, 602.779 495.904, 603.769 505.855, 604.758 512.000, 605.369 521.951, 604.379 531.902, 603.390 538.047, 602.779 547.531, 599.610 557.016, 596.441 560.128, 595.401 568.135, 589.411 574.884, 584.361 578.579, 575.069 579.897, 571.755 580.063, 571.337 580.063, 571.337 " />
            <path fill="none" stroke-width="1.5" stroke-linecap="butt" stroke-opacity="1.0" stroke="rgb(0, 0, 0)" stroke-linejoin="round" d=" M 580.063, 532.041 579.897, 532.459 576.202, 541.751 574.884, 545.064 566.877, 551.055 566.030, 551.689 565.472, 552.107 560.128, 556.105 550.643, 559.274 541.159, 562.443 538.047, 563.483 528.096, 564.472 518.145, 565.461 512.000, 566.072 502.049, 565.083 492.098, 564.094 485.953, 563.483 476.469, 560.314 466.984, 557.145 463.872, 556.105 458.528, 552.107 457.970, 551.689 449.963, 545.698 449.116, 545.064 445.421, 535.772 444.103, 532.459 443.937, 532.041 447.632, 522.749 449.116, 519.018 457.123, 513.027 463.872, 507.977 473.357, 504.808 482.841, 501.639 485.953, 500.599 495.904, 499.610 505.855, 498.621 512.000, 498.010 521.951, 498.999 531.902, 499.988 538.047, 500.599 547.531, 503.768 557.016, 506.937 560.128, 507.977 568.135, 513.968 574.884, 519.018 578.579, 528.310 580.063, 532.041 580.063, 542.041 580.063, 542.999 580.063, 552.999 580.063, 562.050 580.063, 571.337 " />
            <path fill="none" stroke-width="1.5" stroke-linecap="butt" stroke-opacity="1.0" stroke="rgb(0, 0, 0)" stroke-linejoin="round" d=" M 443.937, 532.041 443.937, 542.041 443.937, 542.999 443.937, 552.999 443.937, 562.050 443.937, 571.337 " />
            <path fill="none" stroke-width="1.5" stroke-linecap="butt" stroke-opacity="1.0" stroke="rgb(0, 0, 0)" stroke-linejoin="round" d=" M 283.511, 491.124 283.511, 491.124 283.677, 491.542 287.372, 500.834 288.689, 504.147 296.696, 510.138 303.445, 515.188 312.930, 518.357 322.414, 521.526 325.526, 522.566 335.477, 523.555 345.428, 524.544 351.573, 525.155 361.524, 524.166 371.475, 523.177 377.620, 522.566 387.105, 519.397 396.589, 516.228 399.701, 515.188 407.708, 509.197 414.457, 504.147 418.152, 494.855 419.470, 491.542 419.636, 491.124 419.636, 491.124 " />
            <path fill="none" stroke-width="1.5" stroke-linecap="butt" stroke-opacity="1.0" stroke="rgb(0, 0, 0)" stroke-linejoin="round" d=" M 419.636, 451.828 419.470, 452.245 415.775, 461.538 414.457, 464.851 406.450, 470.842 405.603, 471.476 405.045, 471.894 399.701, 475.892 390.217, 479.061 380.732, 482.230 377.620, 483.270 367.669, 484.259 357.718, 485.248 351.573, 485.859 341.622, 484.870 331.671, 483.881 325.526, 483.270 316.042, 480.101 306.557, 476.932 303.445, 475.892 298.102, 471.894 297.543, 471.476 289.537, 465.485 288.689, 464.851 284.994, 455.559 283.677, 452.245 283.511, 451.828 287.206, 442.535 288.689, 438.804 296.696, 432.813 303.445, 427.764 312.930, 424.595 322.414, 421.425 325.526, 420.386 335.477, 419.396 345.428, 418.407 351.573, 417.796 361.524, 418.786 371.475, 419.775 377.620, 420.386 387.105, 423.555 396.589, 426.724 399.701, 427.764 407.708, 433.754 414.457, 438.804 418.152, 448.097 419.636, 451.828 419.636, 461.828 419.636, 462.786 419.636, 472.786 419.636, 481.836 419.636, 491.124 " />
            <path fill="none" stroke-width="1.5" stroke-linecap="butt" stroke-opacity="1.0" stroke="rgb(0, 0, 0)" stroke-linejoin="round" d=" M 283.511, 451.828 283.511, 461.828 283.511, 462.786 283.511, 472.786 283.511, 481.836 283.511, 491.124 " />
            <path fill="none" stroke-width="1.5" stroke-linecap="butt" stroke-opacity="1.0" stroke="rgb(0, 0, 0)" stroke-linejoin="round" d=" M 123.084, 410.911 126.779, 420.203 128.263, 423.934 136.269, 429.925 137.911, 431.153 143.019, 434.975 144.020, 435.309 153.505, 438.478 162.989, 441.648 165.100, 442.353 175.051, 443.342 185.002, 444.331 189.294, 444.758 191.147, 444.942 201.098, 443.953 211.048, 442.964 217.193, 442.353 226.678, 439.184 236.163, 436.015 239.275, 434.975 247.282, 428.984 254.031, 423.934 257.726, 414.642 259.209, 410.911 " />
            <path fill="none" stroke-width="1.5" stroke-linecap="butt" stroke-opacity="1.0" stroke="rgb(0, 0, 0)" stroke-linejoin="round" d=" M 259.209, 371.614 255.514, 380.907 254.031, 384.638 246.024, 390.629 245.176, 391.263 239.275, 395.678 229.790, 398.847 220.306, 402.017 217.193, 403.056 207.243, 404.046 197.292, 405.035 191.147, 405.646 189.294, 405.461 179.343, 404.472 169.392, 403.483 165.100, 403.056 155.615, 399.887 146.131, 396.718 143.019, 395.678 137.117, 391.263 129.110, 385.272 128.263, 384.638 124.568, 375.345 123.084, 371.614 125.282, 366.085 128.263, 358.591 136.269, 352.600 143.019, 347.550 152.503, 344.381 161.988, 341.212 165.100, 340.172 175.051, 339.183 180.089, 338.682 190.040, 337.693 191.147, 337.583 201.098, 338.572 211.048, 339.561 217.193, 340.172 226.678, 343.341 236.163, 346.510 239.275, 347.550 247.282, 353.541 254.031, 358.591 257.726, 367.883 258.841, 370.688 259.209, 371.614 259.209, 377.715 259.209, 387.715 259.209, 397.715 259.209, 407.715 259.209, 409.800 259.209, 410.911 " />
            <path fill="none" stroke-width="1.5" stroke-linecap="butt" stroke-opacity="1.0" stroke="rgb(0, 0, 0)" stroke-linejoin="round" d=" M 123.084, 371.614 123.084, 381.614 123.084, 391.614 123.084, 401.614 123.084, 410.911 " />
            <path fill="none" stroke-width="1.5" stroke-linecap="butt" stroke-opacity="1.0" stroke="rgb(0, 0, 0)" stroke-linejoin="round" d=" M 285.709, 285.872 276.765, 290.344 267.821, 294.816 258.876, 299.289 249.932, 303.761 240.988, 308.233 232.044, 312.705 223.099, 317.177 214.155, 321.649 205.211, 326.121 196.266, 330.593 187.322, 335.066 180.089, 338.682 " />
            <path fill="none" stroke-width="1.5" stroke-linecap="butt" stroke-opacity="1.0" stroke="rgb(0, 0, 0)" stroke-linejoin="round" d=" M 523.058, 338.682 514.114, 334.210 505.169, 329.738 496.225, 325.266 487.281, 320.794 478.336, 316.322 469.392, 311.849 460.448, 307.377 451.504, 302.905 442.559, 298.433 433.615, 293.961 424.671, 289.489 417.437, 285.872 " />
            <path fill="none" stroke-width="1.5" stroke-linecap="butt" stroke-opacity="1.0" stroke="rgb(0, 0, 0)" stroke-linejoin="round" d=" M 683.484, 418.896 674.540, 414.423 665.596, 409.951 656.652, 405.479 647.707, 401.007 638.763, 396.535 629.819, 392.063 620.875, 387.591 611.930, 383.119 602.986, 378.646 594.042, 374.174 585.097, 369.702 577.864, 366.085 " />
            <path fill="none" stroke-width="1.5" stroke-linecap="butt" stroke-opacity="1.0" stroke="rgb(0, 0, 0)" stroke-linejoin="round" d=" M 843.911, 499.109 834.967, 494.637 826.023, 490.165 817.078, 485.693 808.134, 481.220 799.190, 476.748 790.246, 472.276 781.301, 467.804 772.357, 463.332 763.413, 458.860 754.468, 454.388 745.524, 449.915 738.291, 446.299 " />
        </g>
    </g>
</svg>