<?xml version='1.0' encoding='utf-8'?>
<svg xmlns="http://www.w3.org/2000/svg" xmlns:inkscape="http://www.inkscape.org/namespaces/inkscape" version="1.1" width="1024" height="1024">
    <rect width="100%" height="100%" fill="white" /><g id="ViewLayer_Edges" inkscape:groupmode="lineset" inkscape:label="ViewLayer_Edges">
        <g inkscape:groupmode="layer" id="strokes" inkscape:label="strokes">
            <path fill="none" stroke-width="1.0" stroke-linecap="butt" stroke-opacity="1.0" stroke="rgb(0, 0, 0)" stroke-linejoin="round" d=" M 172.564, 413.448 163.619, 417.920 154.675, 422.392 145.731, 426.864 136.787, 431.336 127.842, 435.808 118.898, 440.281 109.954, 444.753 101.010, 449.225 92.065, 453.697 83.121, 458.169 74.177, 462.641 65.232, 467.113 56.288, 471.586 47.344, 476.058 38.400, 480.530 30.720, 484.370 30.720, 494.370 30.720, 504.370 30.720, 514.370 30.720, 524.370 30.720, 534.370 30.720, 544.370 30.720, 554.370 30.720, 564.370 30.720, 574.370 30.720, 584.370 30.720, 594.370 30.720, 602.259 39.664, 606.731 48.609, 611.203 57.553, 615.675 66.497, 620.147 75.441, 624.619 84.386, 629.092 93.330, 633.564 102.274, 638.036 111.218, 642.508 120.163, 646.980 129.107, 651.452 138.051, 655.924 146.995, 660.397 155.940, 664.869 164.884, 669.341 173.828, 673.813 182.773, 678.285 191.717, 682.757 200.661, 687.229 209.605, 691.701 218.550, 696.174 227.494, 700.646 236.438, 705.118 245.382, 709.590 254.327, 714.062 263.271, 718.534 272.215, 723.006 281.160, 727.479 290.104, 731.951 299.048, 736.423 307.992, 740.895 316.937, 745.367 325.881, 749.839 334.825, 754.311 343.769, 758.784 352.714, 763.256 361.658, 767.728 370.602, 772.200 379.547, 776.672 388.491, 781.144 397.435, 785.616 406.379, 790.088 415.324, 794.561 424.268, 799.033 433.212, 803.505 442.156, 807.977 451.101, 812.449 460.045, 816.921 468.989, 821.393 477.934, 825.866 486.878, 830.338 495.822, 834.810 504.766, 839.282 512.000, 842.899 520.944, 838.427 529.889, 833.955 538.833, 829.482 547.777, 825.010 556.721, 820.538 565.666, 816.066 574.610, 811.594 583.554, 807.122 592.498, 802.650 601.443, 798.177 610.387, 793.705 619.331, 789.233 628.276, 784.761 637.220, 780.289 646.164, 775.817 655.108, 771.345 664.053, 766.872 672.997, 762.400 681.941, 757.928 690.885, 753.456 699.830, 748.984 708.774, 744.512 717.718, 740.040 726.663, 735.568 735.607, 731.095 744.551, 726.623 753.495, 722.151 762.440, 717.679 771.384, 713.207 780.328, 708.735 789.272, 704.263 798.217, 699.790 807.161, 695.318 816.105, 690.846 825.049, 686.374 833.994, 681.902 842.938, 677.430 851.882, 672.958 860.827, 668.486 869.771, 664.013 878.715, 659.541 887.659, 655.069 896.604, 650.597 905.548, 646.125 914.492, 641.653 923.436, 637.181 932.381, 632.708 941.325, 628.236 950.269, 623.764 959.214, 619.292 968.158, 614.820 977.102, 610.348 986.046, 605.876 993.280, 602.259 993.280, 592.259 993.280, 582.259 993.280, 572.259 993.280, 562.259 993.280, 552.259 993.280, 542.259 993.280, 532.259 993.280, 522.259 993.280, 512.259 993.280, 502.259 993.280, 492.259 993.280, 484.370 984.336, 479.898 975.391, 475.425 966.447, 470.953 957.503, 466.481 948.559, 462.009 939.614, 457.537 930.670, 453.065 921.726, 448.593 912.782, 444.120 903.837, 439.648 894.893, 435.176 885.949, 430.704 877.005, 426.232 868.060, 421.760 859.116, 417.288 851.436, 413.448 " />
            <path fill="none" stroke-width="1.0" stroke-linecap="butt" stroke-opacity="1.0" stroke="rgb(0, 0, 0)" stroke-linejoin="round" d=" M 30.720, 484.370 39.664, 488.842 48.609, 493.314 57.553, 497.786 66.497, 502.258 75.441, 506.730 84.386, 511.203 93.330, 515.675 102.274, 520.147 111.218, 524.619 120.163, 529.091 129.107, 533.563 137.792, 537.906 146.737, 542.378 155.681, 546.850 164.625, 551.322 173.570, 555.794 182.514, 560.267 191.458, 564.739 196.737, 567.378 205.681, 571.850 214.626, 576.323 223.570, 580.795 232.514, 585.267 241.458, 589.739 250.403, 594.211 259.347, 598.683 268.291, 603.155 277.235, 607.627 286.180, 612.100 295.124, 616.572 304.068, 621.044 313.013, 625.516 321.957, 629.988 330.901, 634.460 339.845, 638.932 348.790, 643.405 357.734, 647.877 366.678, 652.349 375.622, 656.821 384.567, 661.293 393.511, 665.765 402.455, 670.237 411.400, 674.710 420.344, 679.182 429.288, 683.654 438.232, 688.126 447.177, 692.598 456.121, 697.070 465.065, 701.542 474.009, 706.014 482.954, 710.487 491.898, 714.959 500.842, 719.431 512.000, 725.010 " />
            <path fill="none" stroke-width="1.0" stroke-linecap="butt" stroke-opacity="1.0" stroke="rgb(0, 0, 0)" stroke-linejoin="round" d=" M 512.000, 842.899 512.000, 832.899 512.000, 822.899 512.000, 812.899 512.000, 802.899 512.000, 792.899 512.000, 782.899 512.000, 772.899 512.000, 762.899 512.000, 752.899 512.000, 742.899 512.000, 732.899 512.000, 725.010 520.944, 720.538 529.889, 716.065 538.833, 711.593 547.777, 707.121 556.721, 702.649 565.666, 698.177 574.610, 693.705 583.554, 689.233 592.498, 684.760 601.443, 680.288 610.387, 675.816 619.331, 671.344 628.276, 666.872 637.220, 662.400 646.164, 657.928 655.108, 653.456 664.053, 648.983 672.997, 644.511 681.941, 640.039 690.885, 635.567 699.830, 631.095 708.774, 626.623 717.718, 622.151 726.663, 617.678 735.607, 613.206 744.551, 608.734 753.495, 604.262 762.440, 599.790 771.384, 595.318 780.328, 590.846 789.272, 586.374 798.217, 581.901 807.161, 577.429 816.105, 572.957 827.263, 567.378 836.207, 562.906 845.151, 558.434 854.096, 553.962 863.040, 549.490 871.984, 545.018 880.929, 540.545 886.208, 537.906 895.152, 533.434 904.096, 528.962 913.040, 524.490 921.985, 520.017 930.929, 515.545 939.873, 511.073 948.817, 506.601 957.762, 502.129 966.706, 497.657 975.650, 493.185 984.594, 488.712 993.280, 484.370 " />
            <path fill="none" stroke-width="1.0" stroke-linecap="butt" stroke-opacity="1.0" stroke="rgb(0, 0, 0)" stroke-linejoin="round" d=" M 528.587, 252.023 519.642, 247.551 512.000, 243.730 503.056, 248.202 495.413, 252.023 " />
            <path fill="none" stroke-width="1.0" stroke-linecap="butt" stroke-opacity="1.0" stroke="rgb(0, 0, 0)" stroke-linejoin="round" d=" M 650.546, 480.686 654.241, 489.978 657.936, 499.270 658.314, 500.221 666.321, 506.212 674.328, 512.202 680.448, 516.782 689.933, 519.951 699.417, 523.120 708.902, 526.289 713.570, 527.849 723.521, 528.838 733.472, 529.827 743.423, 530.816 752.640, 531.733 755.419, 531.456 765.370, 530.467 775.321, 529.478 785.272, 528.489 791.710, 527.849 801.195, 524.680 810.679, 521.510 820.164, 518.341 823.330, 517.284 824.832, 516.782 832.494, 511.049 840.501, 505.058 846.966, 500.221 850.661, 490.929 854.356, 481.636 854.734, 480.686 " />
            <path fill="none" stroke-width="1.0" stroke-linecap="butt" stroke-opacity="1.0" stroke="rgb(0, 0, 0)" stroke-linejoin="round" d=" M 854.734, 421.741 851.039, 431.033 847.344, 440.326 846.966, 441.276 838.959, 447.267 833.685, 451.213 825.678, 457.204 824.832, 457.837 815.347, 461.006 805.863, 464.175 796.378, 467.344 791.710, 468.904 781.759, 469.893 771.808, 470.883 761.857, 471.872 755.419, 472.512 752.640, 472.788 742.689, 471.799 732.738, 470.810 722.787, 469.820 713.570, 468.904 704.085, 465.735 694.601, 462.566 685.116, 459.397 680.448, 457.837 672.441, 451.846 671.595, 451.213 663.588, 445.223 658.314, 441.276 654.619, 431.984 650.924, 422.692 650.546, 421.741 651.099, 420.352 654.794, 411.059 658.314, 402.206 666.321, 396.215 674.328, 390.224 680.448, 385.645 689.933, 382.476 699.417, 379.307 708.902, 376.138 713.570, 374.578 723.521, 373.589 733.472, 372.600 743.423, 371.610 752.640, 370.694 762.591, 371.683 769.227, 372.343 779.178, 373.332 789.129, 374.321 791.710, 374.578 801.195, 377.747 810.679, 380.916 820.164, 384.085 824.832, 385.645 832.839, 391.636 840.846, 397.627 846.966, 402.206 850.661, 411.498 851.436, 413.448 854.734, 421.741 854.734, 431.741 854.734, 441.741 854.734, 451.741 854.734, 461.741 854.734, 471.741 854.734, 480.686 " />
            <path fill="none" stroke-width="1.0" stroke-linecap="butt" stroke-opacity="1.0" stroke="rgb(0, 0, 0)" stroke-linejoin="round" d=" M 650.546, 421.741 650.546, 430.892 650.546, 440.892 650.546, 450.892 650.546, 460.892 650.546, 470.892 650.546, 479.020 650.546, 480.686 " />
            <path fill="none" stroke-width="1.0" stroke-linecap="butt" stroke-opacity="1.0" stroke="rgb(0, 0, 0)" stroke-linejoin="round" d=" M 409.906, 360.366 413.601, 369.658 417.296, 378.950 417.674, 379.901 425.681, 385.892 432.146, 390.729 439.808, 396.462 441.310, 396.964 450.795, 400.133 460.279, 403.302 469.764, 406.471 472.930, 407.529 482.881, 408.518 492.832, 409.507 502.783, 410.496 509.221, 411.136 512.000, 411.413 514.779, 411.136 524.730, 410.147 534.681, 409.158 544.632, 408.169 551.070, 407.529 560.555, 404.360 570.039, 401.190 579.524, 398.021 582.690, 396.964 584.192, 396.462 591.854, 390.729 599.861, 384.738 606.326, 379.901 610.021, 370.608 613.716, 361.316 614.094, 360.366 " />
            <path fill="none" stroke-width="1.0" stroke-linecap="butt" stroke-opacity="1.0" stroke="rgb(0, 0, 0)" stroke-linejoin="round" d=" M 512.000, 250.374 521.951, 251.363 528.587, 252.023 538.538, 253.012 548.489, 254.001 551.070, 254.258 560.555, 257.427 570.039, 260.596 579.524, 263.765 584.192, 265.325 592.199, 271.316 600.206, 277.307 606.326, 281.886 610.021, 291.178 610.796, 293.128 614.094, 301.421 610.399, 310.713 606.704, 320.006 606.326, 320.956 598.319, 326.947 593.045, 330.893 585.038, 336.884 584.192, 337.517 574.707, 340.686 565.223, 343.855 555.738, 347.024 551.070, 348.584 541.119, 349.573 531.168, 350.563 521.217, 351.552 514.779, 352.192 512.000, 352.468 509.221, 352.192 499.270, 351.203 489.319, 350.213 479.368, 349.224 472.930, 348.584 463.445, 345.415 453.961, 342.246 444.476, 339.077 439.808, 337.517 431.801, 331.526 430.955, 330.893 422.948, 324.903 417.674, 320.956 413.979, 311.664 410.284, 302.372 409.906, 301.421 413.204, 293.128 416.899, 283.836 417.674, 281.886 425.681, 275.895 433.688, 269.904 439.808, 265.325 449.293, 262.156 458.777, 258.987 468.262, 255.818 472.930, 254.258 482.881, 253.269 492.832, 252.280 495.413, 252.023 505.364, 251.034 512.000, 250.374 " />
            <path fill="none" stroke-width="1.0" stroke-linecap="butt" stroke-opacity="1.0" stroke="rgb(0, 0, 0)" stroke-linejoin="round" d=" M 614.094, 360.366 614.094, 350.366 614.094, 340.366 614.094, 330.366 614.094, 320.366 614.094, 310.366 614.094, 301.421 " />
            <path fill="none" stroke-width="1.0" stroke-linecap="butt" stroke-opacity="1.0" stroke="rgb(0, 0, 0)" stroke-linejoin="round" d=" M 409.906, 301.421 409.906, 311.421 409.906, 321.421 409.906, 331.421 409.906, 341.421 409.906, 351.421 409.906, 360.366 " />
            <path fill="none" stroke-width="1.0" stroke-linecap="butt" stroke-opacity="1.0" stroke="rgb(0, 0, 0)" stroke-linejoin="round" d=" M 409.906, 601.006 409.906, 601.006 410.155, 601.632 413.850, 610.925 417.545, 620.217 417.674, 620.541 425.681, 626.532 433.688, 632.522 439.808, 637.102 449.293, 640.271 458.777, 643.440 468.262, 646.609 472.930, 648.169 482.881, 649.158 492.832, 650.147 502.783, 651.136 512.000, 652.053 521.951, 651.063 531.902, 650.074 541.853, 649.085 551.070, 648.169 560.555, 645.000 570.039, 641.831 579.524, 638.661 584.192, 637.102 592.199, 631.111 600.206, 625.120 606.326, 620.541 610.021, 611.249 613.716, 601.956 613.845, 601.632 614.094, 601.006 614.094, 601.006 " />
            <path fill="none" stroke-width="1.0" stroke-linecap="butt" stroke-opacity="1.0" stroke="rgb(0, 0, 0)" stroke-linejoin="round" d=" M 614.094, 542.061 613.845, 542.688 610.150, 551.980 606.455, 561.272 606.326, 561.596 598.319, 567.587 593.045, 571.533 592.207, 572.160 584.192, 578.157 574.707, 581.326 565.223, 584.495 555.738, 587.664 551.070, 589.224 541.119, 590.213 531.168, 591.203 521.217, 592.192 512.000, 593.108 502.049, 592.119 492.098, 591.130 482.147, 590.140 472.930, 589.224 463.445, 586.055 453.961, 582.886 444.476, 579.717 439.808, 578.157 431.793, 572.160 430.955, 571.533 422.948, 565.543 417.674, 561.596 413.979, 552.304 410.284, 543.012 410.155, 542.688 409.906, 542.061 413.601, 532.769 417.296, 523.477 417.674, 522.526 425.681, 516.535 433.688, 510.544 439.808, 505.965 449.293, 502.796 458.777, 499.627 468.262, 496.458 472.930, 494.898 482.881, 493.909 492.832, 492.920 502.783, 491.930 512.000, 491.014 521.951, 492.003 531.902, 492.993 541.853, 493.982 551.070, 494.898 560.555, 498.067 570.039, 501.236 579.524, 504.405 584.192, 505.965 592.199, 511.956 600.206, 517.947 606.326, 522.526 610.021, 531.818 613.716, 541.111 614.094, 542.061 614.094, 552.061 614.094, 558.499 614.094, 568.499 614.094, 578.499 614.094, 587.074 614.094, 597.074 614.094, 601.006 " />
            <path fill="none" stroke-width="1.0" stroke-linecap="butt" stroke-opacity="1.0" stroke="rgb(0, 0, 0)" stroke-linejoin="round" d=" M 409.906, 542.061 409.906, 552.061 409.906, 558.499 409.906, 568.499 409.906, 578.499 409.906, 587.074 409.906, 597.074 409.906, 601.006 " />
            <path fill="none" stroke-width="1.0" stroke-linecap="butt" stroke-opacity="1.0" stroke="rgb(0, 0, 0)" stroke-linejoin="round" d=" M 169.266, 480.686 172.961, 489.978 176.656, 499.270 177.034, 500.221 185.041, 506.212 191.506, 511.049 199.168, 516.782 200.670, 517.284 210.155, 520.453 219.639, 523.622 229.124, 526.791 232.290, 527.849 242.241, 528.838 252.192, 529.827 262.143, 530.816 268.581, 531.456 271.360, 531.733 281.311, 530.743 291.262, 529.754 301.213, 528.765 310.430, 527.849 319.915, 524.680 329.399, 521.510 338.884, 518.341 343.552, 516.782 351.559, 510.791 359.566, 504.800 365.686, 500.221 369.381, 490.928 373.076, 481.636 373.454, 480.686 " />
            <path fill="none" stroke-width="1.0" stroke-linecap="butt" stroke-opacity="1.0" stroke="rgb(0, 0, 0)" stroke-linejoin="round" d=" M 373.454, 421.741 369.759, 431.033 366.064, 440.326 365.686, 441.276 357.679, 447.267 352.405, 451.213 344.398, 457.204 343.552, 457.837 334.067, 461.006 324.583, 464.175 315.098, 467.344 310.430, 468.904 300.479, 469.893 290.528, 470.883 280.577, 471.872 271.360, 472.788 268.581, 472.512 258.630, 471.523 248.679, 470.533 238.728, 469.544 232.290, 468.904 222.805, 465.735 213.321, 462.566 203.836, 459.397 199.168, 457.837 191.161, 451.846 190.315, 451.213 182.308, 445.223 177.034, 441.276 173.339, 431.984 169.644, 422.692 169.266, 421.741 172.564, 413.448 176.259, 404.156 177.034, 402.206 185.041, 396.215 193.048, 390.224 199.168, 385.645 208.653, 382.476 218.137, 379.307 227.622, 376.138 232.290, 374.578 242.241, 373.589 252.192, 372.600 254.773, 372.343 264.724, 371.354 271.360, 370.694 281.311, 371.683 291.262, 372.673 301.213, 373.662 310.430, 374.578 319.915, 377.747 329.399, 380.916 338.884, 384.085 343.552, 385.645 351.559, 391.636 359.566, 397.627 365.686, 402.206 369.381, 411.498 372.901, 420.352 373.454, 421.741 373.454, 430.892 373.454, 440.892 373.454, 450.892 373.454, 460.892 373.454, 470.892 373.454, 479.020 373.454, 480.686 " />
            <path fill="none" stroke-width="1.0" stroke-linecap="butt" stroke-opacity="1.0" stroke="rgb(0, 0, 0)" stroke-linejoin="round" d=" M 169.266, 421.741 169.266, 431.741 169.266, 441.741 169.266, 451.741 169.266, 461.741 169.266, 471.741 169.266, 480.686 " />
            <path fill="none" stroke-width="1.0" stroke-linecap="butt" stroke-opacity="1.0" stroke="rgb(0, 0, 0)" stroke-linejoin="round" d=" M 413.204, 293.128 404.259, 297.600 395.315, 302.072 386.371, 306.544 377.427, 311.016 368.482, 315.488 359.538, 319.961 350.594, 324.433 341.650, 328.905 332.705, 333.377 323.761, 337.849 314.817, 342.321 305.872, 346.793 296.928, 351.266 287.984, 355.738 279.040, 360.210 270.095, 364.682 261.151, 369.154 254.773, 372.343 " />
            <path fill="none" stroke-width="1.0" stroke-linecap="butt" stroke-opacity="1.0" stroke="rgb(0, 0, 0)" stroke-linejoin="round" d=" M 769.227, 372.343 760.282, 367.871 751.338, 363.399 742.394, 358.927 733.450, 354.454 724.505, 349.982 715.561, 345.510 706.617, 341.038 697.672, 336.566 688.728, 332.094 679.784, 327.622 670.840, 323.150 661.895, 318.677 652.951, 314.205 644.007, 309.733 635.063, 305.261 626.118, 300.789 617.174, 296.317 610.796, 293.128 " />
        </g>
    </g>
</svg>