<?xml version='1.0' encoding='utf-8'?>
<svg xmlns="http://www.w3.org/2000/svg" xmlns:inkscape="http://www.inkscape.org/namespaces/inkscape" version="1.1" width="1024" height="1024">
    <rect width="100%" height="100%" fill="white" /><g id="ViewLayer_Edges" inkscape:groupmode="lineset" inkscape:label="ViewLayer_Edges">
        <g inkscape:groupmode="layer" inkscape:label="fills" id="fills">
            <path fill_rule="evenodd" stroke="none" fill-opacity="1.0" fill="currentColor" d=" M 30.720, 692.518 512.000, 933.158 993.280, 692.518 993.280, 456.740 709.592, 314.896 700.652, 292.412 656.384, 259.291 590.141, 237.156 545.173, 232.686 512.000, 216.100 478.827, 232.686 433.859, 237.156 367.616, 259.290 323.348, 292.412 314.408, 314.896 30.720, 456.740 30.720, 692.518  z M 307.812, 449.372 323.348, 488.442 352.292, 510.098 367.616, 521.564 370.621, 522.567 433.859, 543.698 506.442, 550.913 512.000, 551.466 517.558, 550.913 590.141, 543.698 653.379, 522.567 656.384, 521.564 671.708, 510.098 700.652, 488.442 716.188, 449.372  z" />
        </g>
        <g inkscape:groupmode="layer" id="strokes" inkscape:label="strokes">
            <path fill="none" stroke-width="0.5" stroke-linecap="butt" stroke-opacity="1.0" stroke="cyan" stroke-linejoin="round" d=" M 314.408, 314.896 305.463, 319.368 296.519, 323.840 287.575, 328.312 278.630, 332.784 269.686, 337.257 260.742, 341.729 251.798, 346.201 242.853, 350.673 233.909, 355.145 224.965, 359.617 216.021, 364.089 207.076, 368.561 198.132, 373.034 189.188, 377.506 180.243, 381.978 171.299, 386.450 162.355, 390.922 153.411, 395.394 144.466, 399.866 135.522, 404.339 126.578, 408.811 117.634, 413.283 108.689, 417.755 99.745, 422.227 90.801, 426.699 81.856, 431.171 72.912, 435.643 63.968, 440.116 55.024, 444.588 46.079, 449.060 37.135, 453.532 30.720, 456.740 30.720, 466.740 30.720, 476.740 30.720, 486.740 30.720, 496.740 30.720, 506.740 30.720, 516.740 30.720, 526.740 30.720, 536.740 30.720, 546.740 30.720, 556.740 30.720, 566.740 30.720, 576.740 30.720, 586.740 30.720, 596.740 30.720, 606.740 30.720, 616.740 30.720, 626.740 30.720, 636.740 30.720, 646.740 30.720, 656.740 30.720, 666.740 30.720, 676.740 30.720, 686.740 30.720, 692.518 39.664, 696.990 48.609, 701.462 57.553, 705.934 66.497, 710.406 75.441, 714.878 84.386, 719.351 93.330, 723.823 102.274, 728.295 111.218, 732.767 120.163, 737.239 129.107, 741.711 138.051, 746.183 146.995, 750.656 155.940, 755.128 164.884, 759.600 173.828, 764.072 182.773, 768.544 191.717, 773.016 200.661, 777.488 209.605, 781.960 218.550, 786.433 227.494, 790.905 236.438, 795.377 245.382, 799.849 254.327, 804.321 263.271, 808.793 272.215, 813.265 281.160, 817.738 290.104, 822.210 299.048, 826.682 307.992, 831.154 316.937, 835.626 325.881, 840.098 334.825, 844.570 343.769, 849.042 352.714, 853.515 361.658, 857.987 370.602, 862.459 379.547, 866.931 388.491, 871.403 397.435, 875.875 406.379, 880.347 415.324, 884.820 424.268, 889.292 433.212, 893.764 442.156, 898.236 451.101, 902.708 460.045, 907.180 468.989, 911.652 477.934, 916.125 486.878, 920.597 495.822, 925.069 504.766, 929.541 512.000, 933.158 520.944, 928.686 529.889, 924.213 538.833, 919.741 547.777, 915.269 556.721, 910.797 565.666, 906.325 574.610, 901.853 583.554, 897.381 592.498, 892.909 601.443, 888.436 610.387, 883.964 619.331, 879.492 628.276, 875.020 637.220, 870.548 646.164, 866.076 655.108, 861.604 664.053, 857.131 672.997, 852.659 681.941, 848.187 690.885, 843.715 699.830, 839.243 708.774, 834.771 717.718, 830.299 726.663, 825.827 735.607, 821.354 744.551, 816.882 753.495, 812.410 762.440, 807.938 771.384, 803.466 780.328, 798.994 789.272, 794.522 798.217, 790.049 807.161, 785.577 816.105, 781.105 825.050, 776.633 833.994, 772.161 842.938, 767.689 851.882, 763.217 860.827, 758.744 869.771, 754.272 878.715, 749.800 887.659, 745.328 896.604, 740.856 905.548, 736.384 914.492, 731.912 923.437, 727.440 932.381, 722.967 941.325, 718.495 950.269, 714.023 959.214, 709.551 968.158, 705.079 977.102, 700.607 986.046, 696.135 993.280, 692.518 993.280, 682.518 993.280, 672.518 993.280, 662.518 993.280, 652.518 993.280, 642.518 993.280, 632.518 993.280, 622.518 993.280, 612.518 993.280, 602.518 993.280, 592.518 993.280, 582.518 993.280, 572.518 993.280, 562.518 993.280, 552.518 993.280, 542.518 993.280, 532.518 993.280, 522.518 993.280, 512.518 993.280, 502.518 993.280, 492.518 993.280, 482.518 993.280, 472.518 993.280, 462.518 993.280, 456.740 984.336, 452.268 975.391, 447.795 966.447, 443.323 957.503, 438.851 948.559, 434.379 939.614, 429.907 930.670, 425.435 921.726, 420.963 912.782, 416.490 903.837, 412.018 894.893, 407.546 885.949, 403.074 877.005, 398.602 868.060, 394.130 859.116, 389.658 850.172, 385.185 841.227, 380.713 832.283, 376.241 823.339, 371.769 814.395, 367.297 805.450, 362.825 796.506, 358.353 787.562, 353.881 778.617, 349.408 769.673, 344.936 760.729, 340.464 751.785, 335.992 742.840, 331.520 733.896, 327.048 724.952, 322.576 716.008, 318.103 709.592, 314.896 " />
            <path fill="none" stroke-width="0.5" stroke-linecap="butt" stroke-opacity="1.0" stroke="cyan" stroke-linejoin="round" d=" M 512.000, 933.158 512.000, 923.158 512.000, 913.158 512.000, 903.158 512.000, 893.158 512.000, 883.158 512.000, 873.158 512.000, 863.158 512.000, 853.158 512.000, 843.158 512.000, 833.158 512.000, 823.158 512.000, 813.158 512.000, 803.158 512.000, 793.158 512.000, 783.158 512.000, 773.158 512.000, 763.158 512.000, 753.158 512.000, 743.158 512.000, 733.158 512.000, 723.158 512.000, 713.158 512.000, 703.158 512.000, 697.380 " />
            <path fill="none" stroke-width="0.5" stroke-linecap="butt" stroke-opacity="1.0" stroke="cyan" stroke-linejoin="round" d=" M 993.280, 456.740 984.336, 461.212 975.391, 465.684 966.447, 470.156 957.503, 474.628 948.559, 479.100 939.614, 483.572 930.670, 488.045 921.726, 492.517 912.782, 496.989 903.837, 501.461 894.893, 505.933 885.949, 510.405 877.005, 514.877 868.060, 519.350 859.116, 523.822 850.172, 528.294 841.227, 532.766 832.283, 537.238 823.339, 541.710 814.395, 546.182 805.450, 550.654 796.506, 555.127 787.562, 559.599 779.135, 563.812 770.191, 568.284 761.246, 572.756 752.302, 577.229 743.358, 581.701 734.414, 586.173 725.469, 590.645 716.525, 595.117 707.581, 599.589 698.637, 604.061 689.692, 608.534 680.748, 613.006 671.804, 617.478 662.859, 621.950 661.246, 622.757 652.302, 627.229 643.357, 631.701 634.413, 636.173 625.469, 640.645 616.525, 645.117 607.580, 649.590 598.636, 654.062 589.692, 658.534 580.747, 663.006 571.803, 667.478 562.859, 671.950 553.915, 676.422 544.970, 680.894 536.026, 685.367 527.082, 689.839 518.138, 694.311 512.000, 697.380 503.056, 692.908 494.111, 688.435 485.167, 683.963 476.223, 679.491 467.279, 675.019 458.334, 670.547 449.390, 666.075 440.446, 661.603 431.502, 657.130 422.557, 652.658 413.613, 648.186 404.669, 643.714 395.724, 639.242 386.780, 634.770 377.836, 630.298 368.892, 625.825 362.754, 622.757 353.810, 618.285 344.866, 613.812 335.921, 609.340 326.977, 604.868 318.033, 600.396 309.088, 595.924 300.144, 591.452 291.200, 586.980 282.256, 582.507 273.311, 578.035 264.367, 573.563 255.423, 569.091 246.479, 564.619 244.865, 563.812 235.921, 559.340 226.977, 554.868 218.032, 550.396 209.088, 545.924 200.144, 541.451 191.199, 536.979 182.255, 532.507 173.311, 528.035 164.367, 523.563 155.422, 519.091 146.478, 514.619 137.534, 510.147 128.590, 505.674 119.645, 501.202 110.701, 496.730 101.757, 492.258 92.812, 487.786 83.868, 483.314 74.924, 478.842 65.980, 474.369 57.035, 469.897 48.091, 465.425 39.147, 460.953 30.720, 456.740 " />
            <path fill="none" stroke-width="0.5" stroke-linecap="butt" stroke-opacity="1.0" stroke="cyan" stroke-linejoin="round" d=" M 545.173, 232.686 536.229, 228.214 527.285, 223.742 518.341, 219.270 512.000, 216.100 503.056, 220.572 494.111, 225.044 485.167, 229.516 478.827, 232.686 " />
            <path fill="none" stroke-width="0.5" stroke-linecap="butt" stroke-opacity="1.0" stroke="cyan" stroke-linejoin="round" d=" M 307.812, 449.372 311.507, 458.664 315.202, 467.956 318.897, 477.249 322.592, 486.541 323.348, 488.442 331.355, 494.433 339.362, 500.423 347.368, 506.414 352.292, 510.098 360.299, 516.089 367.616, 521.564 370.621, 522.567 380.105, 525.737 389.590, 528.906 399.074, 532.075 408.559, 535.244 418.043, 538.413 427.528, 541.582 433.859, 543.698 443.810, 544.687 453.761, 545.676 463.712, 546.665 473.663, 547.654 483.614, 548.644 493.565, 549.633 503.516, 550.622 506.442, 550.913 512.000, 551.466 517.558, 550.913 527.509, 549.924 537.460, 548.935 547.411, 547.945 557.362, 546.956 567.313, 545.967 577.264, 544.978 587.215, 543.988 590.141, 543.698 599.625, 540.529 609.110, 537.359 618.594, 534.190 628.079, 531.021 637.563, 527.852 647.048, 524.683 653.379, 522.567 656.384, 521.564 664.391, 515.573 671.708, 510.098 679.714, 504.108 687.721, 498.117 695.728, 492.126 700.652, 488.442 704.347, 479.150 708.042, 469.857 711.737, 460.565 715.432, 451.273 716.188, 449.372 " />
            <path fill="none" stroke-width="0.5" stroke-linecap="butt" stroke-opacity="1.0" stroke="cyan" stroke-linejoin="round" d=" M 512.000, 229.389 521.951, 230.378 531.902, 231.367 541.853, 232.356 545.173, 232.686 555.124, 233.676 565.075, 234.665 575.026, 235.654 584.977, 236.643 590.141, 237.156 599.625, 240.326 609.110, 243.495 618.594, 246.664 628.079, 249.833 637.563, 253.002 647.048, 256.171 656.384, 259.291 664.391, 265.281 672.398, 271.272 680.405, 277.263 688.412, 283.254 696.418, 289.245 700.652, 292.412 704.347, 301.705 708.042, 310.997 709.592, 314.896 713.287, 324.188 716.188, 331.482 712.493, 340.775 708.798, 350.067 705.103, 359.359 701.408, 368.652 700.652, 370.553 692.645, 376.544 684.638, 382.534 676.632, 388.525 674.090, 390.427 666.083, 396.418 658.076, 402.409 656.384, 403.674 646.899, 406.844 637.415, 410.013 627.930, 413.182 618.446, 416.351 608.961, 419.520 599.477, 422.689 590.141, 425.809 580.190, 426.798 570.239, 427.787 560.288, 428.776 550.337, 429.765 540.386, 430.755 530.435, 431.744 520.484, 432.733 517.558, 433.024 512.000, 433.576 506.442, 433.024 496.491, 432.035 486.540, 431.045 476.589, 430.056 466.638, 429.067 456.687, 428.078 446.736, 427.089 436.785, 426.099 433.859, 425.809 424.375, 422.639 414.890, 419.470 405.406, 416.301 395.921, 413.132 386.437, 409.963 376.952, 406.794 367.616, 403.674 359.609, 397.684 351.602, 391.693 349.910, 390.427 341.903, 384.436 333.897, 378.445 325.890, 372.455 323.348, 370.553 319.653, 361.260 315.958, 351.968 312.263, 342.676 308.568, 333.383 307.812, 331.482 311.507, 322.190 314.408, 314.896 318.103, 305.604 321.797, 296.311 323.348, 292.412 331.355, 286.421 339.362, 280.431 347.368, 274.440 355.375, 268.449 363.382, 262.458 367.616, 259.290 377.101, 256.121 386.585, 252.952 396.070, 249.783 405.554, 246.614 415.039, 243.445 424.523, 240.276 433.859, 237.156 443.810, 236.167 453.761, 235.178 463.712, 234.189 473.663, 233.200 478.827, 232.686 488.778, 231.697 498.729, 230.708 508.680, 229.719 512.000, 229.389 " />
            <path fill="none" stroke-width="0.5" stroke-linecap="butt" stroke-opacity="1.0" stroke="cyan" stroke-linejoin="round" d=" M 716.188, 449.372 716.188, 439.372 716.188, 429.372 716.188, 419.372 716.188, 409.372 716.188, 399.372 716.188, 389.372 716.188, 379.372 716.188, 369.372 716.188, 359.372 716.188, 349.372 716.188, 339.372 716.188, 331.482 " />
            <path fill="none" stroke-width="0.5" stroke-linecap="butt" stroke-opacity="1.0" stroke="cyan" stroke-linejoin="round" d=" M 307.812, 331.482 307.812, 341.482 307.812, 351.482 307.812, 361.482 307.812, 371.482 307.812, 381.482 307.812, 391.482 307.812, 401.482 307.812, 411.482 307.812, 421.482 307.812, 431.482 307.812, 441.482 307.812, 449.372 " />
        </g>
    </g>
</svg>