<?xml version='1.0' encoding='utf-8'?>
<svg xmlns="http://www.w3.org/2000/svg" xmlns:inkscape="http://www.inkscape.org/namespaces/inkscape" version="1.1" width="1024" height="1024">
    <rect width="100%" height="100%" fill="white" /><g id="ViewLayer_Edges" inkscape:groupmode="lineset" inkscape:label="ViewLayer_Edges">
        <g inkscape:groupmode="layer" id="strokes" inkscape:label="strokes">
            <path fill="none" stroke-width="2.0" stroke-linecap="butt" stroke-opacity="1.0" stroke="rgb(0, 0, 0)" stroke-linejoin="round" d=" M 512.000, 960.788 512.000, 950.788 512.000, 940.788 512.000, 930.788 512.000, 920.788 512.000, 910.788 512.000, 901.843 517.016, 893.192 522.032, 884.541 527.048, 875.890 532.063, 867.239 537.079, 858.588 542.095, 849.937 547.111, 841.286 552.127, 832.635 557.143, 823.984 562.159, 815.333 567.174, 806.682 572.190, 798.030 577.206, 789.379 582.222, 780.728 584.921, 776.073 589.937, 767.422 594.953, 758.771 599.969, 750.120 604.985, 741.469 610.001, 732.818 615.016, 724.166 620.032, 715.515 625.048, 706.864 630.064, 698.213 635.080, 689.562 640.096, 680.911 645.112, 672.260 648.125, 667.062 653.141, 658.411 658.157, 649.760 663.173, 641.109 668.189, 632.458 673.205, 623.807 678.220, 615.156 680.202, 611.737 685.218, 603.086 690.234, 594.435 695.250, 585.784 700.266, 577.133 705.282, 568.482 710.298, 559.831 715.313, 551.180 720.329, 542.529 725.345, 533.877 730.361, 525.226 735.377, 516.575 740.393, 507.924 745.409, 499.273 750.424, 490.622 752.640, 486.801 761.584, 482.329 770.529, 477.857 779.473, 473.384 788.417, 468.912 797.361, 464.440 806.306, 459.968 815.250, 455.496 824.194, 451.024 833.138, 446.552 842.083, 442.079 851.027, 437.607 859.971, 433.135 868.916, 428.663 877.860, 424.191 886.208, 420.017 895.152, 415.545 904.096, 411.073 913.040, 406.601 921.985, 402.128 930.929, 397.656 939.873, 393.184 948.817, 388.712 957.762, 384.240 966.706, 379.768 975.650, 375.296 984.595, 370.824 993.280, 366.481 " />
            <path fill="none" stroke-width="2.0" stroke-linecap="butt" stroke-opacity="1.0" stroke="rgb(0, 0, 0)" stroke-linejoin="round" d=" M 413.204, 175.239 404.260, 179.711 395.315, 184.183 386.371, 188.655 377.427, 193.127 368.482, 197.599 359.538, 202.072 350.594, 206.544 341.650, 211.016 332.705, 215.488 323.761, 219.960 314.817, 224.432 305.873, 228.904 296.928, 233.377 287.984, 237.849 279.040, 242.321 271.360, 246.161 266.344, 254.812 261.328, 263.463 256.312, 272.114 251.297, 280.765 246.281, 289.416 241.265, 298.067 236.249, 306.718 231.233, 315.369 226.217, 324.020 221.201, 332.672 216.186, 341.323 211.170, 349.974 206.154, 358.625 201.138, 367.276 196.122, 375.927 191.106, 384.578 186.090, 393.229 181.075, 401.880 176.059, 410.531 171.043, 419.182 166.027, 427.833 161.011, 436.484 155.995, 445.135 150.979, 453.787 145.964, 462.438 140.948, 471.089 135.932, 479.740 130.916, 488.391 125.900, 497.042 120.884, 505.693 115.868, 514.344 110.852, 522.995 105.837, 531.646 100.821, 540.297 95.805, 548.948 90.789, 557.600 85.773, 566.251 80.757, 574.902 75.741, 583.553 70.726, 592.204 65.710, 600.855 60.694, 609.506 55.678, 618.157 50.662, 626.808 45.646, 635.459 40.630, 644.110 35.615, 652.761 30.720, 661.203 30.720, 671.203 30.720, 681.203 30.720, 691.203 30.720, 701.203 30.720, 711.203 30.720, 720.148 39.664, 724.620 48.609, 729.092 57.553, 733.564 66.497, 738.036 75.441, 742.509 84.386, 746.981 93.330, 751.453 102.274, 755.925 111.218, 760.397 120.163, 764.869 129.107, 769.341 138.051, 773.814 146.996, 778.286 155.940, 782.758 164.884, 787.230 173.828, 791.702 182.773, 796.174 191.717, 800.646 200.661, 805.118 209.605, 809.591 218.550, 814.063 227.494, 818.535 236.438, 823.007 245.383, 827.479 254.327, 831.951 263.271, 836.423 272.215, 840.896 281.160, 845.368 290.104, 849.840 299.048, 854.312 307.992, 858.784 316.937, 863.256 325.881, 867.728 334.825, 872.201 343.770, 876.673 352.714, 881.145 361.658, 885.617 370.602, 890.089 379.547, 894.561 388.491, 899.033 397.435, 903.505 406.379, 907.978 415.324, 912.450 424.268, 916.922 433.212, 921.394 442.156, 925.866 451.101, 930.338 460.045, 934.810 468.989, 939.283 477.934, 943.755 486.878, 948.227 495.822, 952.699 504.766, 957.171 512.000, 960.788 520.944, 956.316 529.889, 951.844 538.833, 947.372 547.777, 942.899 556.721, 938.427 565.666, 933.955 574.610, 929.483 583.554, 925.011 592.498, 920.539 601.443, 916.067 610.387, 911.594 619.331, 907.122 628.276, 902.650 637.220, 898.178 646.164, 893.706 655.108, 889.234 664.053, 884.762 672.997, 880.290 681.941, 875.817 690.885, 871.345 699.830, 866.873 708.774, 862.401 717.718, 857.929 726.663, 853.457 735.607, 848.985 744.551, 844.512 752.640, 840.468 761.584, 835.996 770.529, 831.524 779.473, 827.052 788.417, 822.579 797.361, 818.107 806.306, 813.635 815.250, 809.163 824.194, 804.691 833.138, 800.219 842.083, 795.747 851.027, 791.274 859.971, 786.802 868.916, 782.330 877.860, 777.858 886.804, 773.386 895.748, 768.914 904.693, 764.442 913.637, 759.970 922.581, 755.497 931.525, 751.025 940.470, 746.553 949.414, 742.081 958.358, 737.609 967.303, 733.137 976.247, 728.665 985.191, 724.192 993.280, 720.148 993.280, 710.148 993.280, 700.148 993.280, 690.148 993.280, 680.148 993.280, 670.148 993.280, 660.148 993.280, 650.148 993.280, 640.148 993.280, 630.148 993.280, 620.148 993.280, 610.148 993.280, 600.148 993.280, 590.148 993.280, 580.148 993.280, 570.148 993.280, 560.148 993.280, 550.148 993.280, 540.148 993.280, 530.148 993.280, 520.148 993.280, 510.148 993.280, 500.148 993.280, 490.148 993.280, 480.148 993.280, 470.148 993.280, 460.148 993.280, 450.148 993.280, 440.148 993.280, 430.148 993.280, 420.148 993.280, 410.148 993.280, 400.148 993.280, 390.148 993.280, 380.148 993.280, 370.148 993.280, 366.481 984.336, 362.009 975.392, 357.536 966.447, 353.064 957.503, 348.592 948.559, 344.120 939.614, 339.648 930.670, 335.176 921.726, 330.704 912.782, 326.232 903.837, 321.759 894.893, 317.287 885.949, 312.815 877.005, 308.343 868.060, 303.871 859.116, 299.399 851.436, 295.559 " />
            <path fill="none" stroke-width="2.0" stroke-linecap="butt" stroke-opacity="1.0" stroke="rgb(0, 0, 0)" stroke-linejoin="round" d=" M 409.906, 242.477 413.601, 251.769 417.296, 261.061 417.674, 262.012 425.681, 268.003 432.146, 272.840 439.808, 278.573 449.293, 281.742 458.777, 284.911 468.262, 288.080 472.930, 289.640 482.881, 290.629 492.832, 291.618 502.783, 292.607 512.000, 293.524 512.000, 293.524 512.000, 293.524 521.951, 292.534 531.902, 291.545 541.853, 290.556 551.070, 289.640 560.555, 286.471 570.039, 283.302 579.524, 280.132 584.192, 278.573 591.854, 272.840 599.861, 266.849 606.326, 262.012 610.021, 252.720 613.716, 243.427 614.094, 242.477 " />
            <path fill="none" stroke-width="2.0" stroke-linecap="butt" stroke-opacity="1.0" stroke="rgb(0, 0, 0)" stroke-linejoin="round" d=" M 614.094, 183.532 610.399, 192.825 606.704, 202.117 606.326, 203.067 598.319, 209.058 593.045, 213.004 585.038, 218.995 584.192, 219.628 574.708, 222.797 565.223, 225.966 555.738, 229.135 551.070, 230.695 541.119, 231.684 531.168, 232.674 521.218, 233.663 514.779, 234.303 512.000, 234.579 509.221, 234.303 499.270, 233.314 489.319, 232.324 479.368, 231.335 472.930, 230.695 463.445, 227.526 453.961, 224.357 444.476, 221.188 439.808, 219.628 431.801, 213.637 430.955, 213.004 422.948, 207.014 417.674, 203.067 413.979, 193.775 410.284, 184.483 409.906, 183.532 413.204, 175.239 416.899, 165.947 417.674, 163.997 425.681, 158.006 433.688, 152.015 439.808, 147.436 449.293, 144.267 458.777, 141.098 468.262, 137.929 472.930, 136.369 482.881, 135.380 492.832, 134.391 495.413, 134.134 505.364, 133.145 512.000, 132.485 512.000, 132.485 521.951, 133.474 528.587, 134.134 538.538, 135.123 548.489, 136.112 551.070, 136.369 560.555, 139.538 570.039, 142.707 579.524, 145.876 584.192, 147.436 592.199, 153.427 600.206, 159.418 606.326, 163.997 610.021, 173.289 610.796, 175.239 614.094, 183.532 614.094, 193.532 614.094, 203.532 614.094, 213.532 614.094, 223.532 614.094, 233.532 614.094, 242.477 " />
            <path fill="none" stroke-width="2.0" stroke-linecap="butt" stroke-opacity="1.0" stroke="rgb(0, 0, 0)" stroke-linejoin="round" d=" M 409.906, 183.532 409.906, 193.532 409.906, 203.532 409.906, 213.532 409.906, 223.532 409.906, 233.532 409.906, 242.477 " />
            <path fill="none" stroke-width="2.0" stroke-linecap="butt" stroke-opacity="1.0" stroke="rgb(0, 0, 0)" stroke-linejoin="round" d=" M 650.546, 362.797 654.241, 372.089 657.936, 381.381 658.314, 382.332 666.321, 388.323 674.328, 394.313 680.448, 398.893 689.933, 402.062 699.417, 405.231 708.902, 408.400 713.570, 409.960 723.521, 410.949 733.472, 411.938 743.423, 412.927 752.640, 413.844 762.591, 412.854 772.542, 411.865 782.493, 410.876 791.710, 409.960 801.195, 406.791 810.680, 403.622 820.164, 400.452 824.832, 398.893 832.494, 393.160 840.501, 387.169 846.966, 382.332 850.661, 373.040 854.356, 363.747 854.734, 362.797 " />
            <path fill="none" stroke-width="2.0" stroke-linecap="butt" stroke-opacity="1.0" stroke="rgb(0, 0, 0)" stroke-linejoin="round" d=" M 854.734, 303.852 851.039, 313.145 847.344, 322.437 846.966, 323.387 838.959, 329.378 833.685, 333.324 825.678, 339.315 824.832, 339.948 815.347, 343.117 805.863, 346.286 796.378, 349.456 791.710, 351.015 781.759, 352.004 771.808, 352.994 761.858, 353.983 755.419, 354.623 752.640, 354.899 742.689, 353.910 732.738, 352.921 722.787, 351.932 713.570, 351.015 704.085, 347.846 694.601, 344.677 685.116, 341.508 680.448, 339.948 672.441, 333.957 671.595, 333.324 663.588, 327.334 658.314, 323.387 654.619, 314.095 650.924, 304.803 650.546, 303.852 651.099, 302.463 654.794, 293.170 658.314, 284.317 666.321, 278.326 674.328, 272.335 680.448, 267.756 689.933, 264.587 699.417, 261.418 708.902, 258.249 713.570, 256.689 723.521, 255.700 733.472, 254.711 743.423, 253.721 752.640, 252.805 762.591, 253.794 769.227, 254.454 779.178, 255.443 789.129, 256.432 791.710, 256.689 801.195, 259.858 810.680, 263.027 820.164, 266.196 824.832, 267.756 832.839, 273.747 840.846, 279.738 846.966, 284.317 850.661, 293.609 851.436, 295.559 854.734, 303.852 854.734, 313.852 854.734, 323.852 854.734, 333.852 854.734, 343.852 854.734, 353.852 854.734, 362.797 " />
            <path fill="none" stroke-width="2.0" stroke-linecap="butt" stroke-opacity="1.0" stroke="rgb(0, 0, 0)" stroke-linejoin="round" d=" M 650.546, 303.852 650.546, 313.852 650.546, 323.852 650.546, 333.852 650.546, 343.852 650.546, 353.852 650.546, 362.797 " />
            <path fill="none" stroke-width="2.0" stroke-linecap="butt" stroke-opacity="1.0" stroke="rgb(0, 0, 0)" stroke-linejoin="round" d=" M 528.587, 134.134 519.642, 129.662 512.000, 125.841 503.056, 130.313 495.413, 134.134 " />
            <path fill="none" stroke-width="2.0" stroke-linecap="butt" stroke-opacity="1.0" stroke="rgb(0, 0, 0)" stroke-linejoin="round" d=" M 769.227, 254.454 760.282, 249.982 751.338, 245.510 742.394, 241.038 733.450, 236.566 724.505, 232.093 715.561, 227.621 706.617, 223.149 697.673, 218.677 688.728, 214.205 679.784, 209.733 670.840, 205.261 661.895, 200.788 652.951, 196.316 644.007, 191.844 635.063, 187.372 626.118, 182.900 617.174, 178.428 610.796, 175.239 " />
        </g>
    </g>
</svg>