<?xml version='1.0' encoding='ascii'?>
<svg xmlns="http://www.w3.org/2000/svg" version="1.1" width="1024" height="1024">
    <g id="ViewLayer_Edges" xmlns:inkscape="http://www.inkscape.org/namespaces/inkscape" inkscape:groupmode="lineset" inkscape:label="ViewLayer_Edges">
        <g xmlns:inkscape="http://www.inkscape.org/namespaces/inkscape" inkscape:groupmode="layer" id="strokes" inkscape:label="strokes">
            <path fill="none" stroke-width="3.5" stroke-linecap="butt" stroke-opacity="1.0" stroke="rgb(0, 0, 0)" stroke-linejoin="round" d=" M 413.204, 175.239 404.259, 179.711 395.315, 184.183 386.371, 188.655 377.427, 193.127 368.482, 197.599 359.538, 202.072 350.594, 206.544 341.650, 211.016 332.705, 215.488 323.761, 219.960 314.817, 224.432 305.873, 228.904 296.928, 233.377 287.984, 237.849 279.040, 242.321 271.360, 246.161 266.344, 254.812 261.328, 263.463 256.312, 272.114 251.297, 280.765 246.281, 289.416 241.265, 298.067 236.249, 306.718 231.233, 315.369 226.217, 324.020 221.201, 332.672 216.186, 341.323 211.170, 349.974 206.154, 358.625 201.138, 367.276 196.122, 375.927 191.106, 384.578 186.090, 393.229 181.075, 401.880 176.059, 410.531 171.043, 419.182 166.027, 427.833 161.011, 436.484 155.995, 445.135 150.979, 453.787 145.963, 462.438 140.948, 471.089 135.932, 479.740 130.916, 488.391 125.900, 497.042 120.884, 505.693 115.868, 514.344 110.852, 522.995 105.837, 531.646 100.821, 540.297 95.805, 548.948 90.789, 557.600 85.773, 566.251 80.757, 574.902 75.741, 583.553 70.726, 592.204 65.710, 600.855 60.694, 609.506 55.678, 618.157 50.662, 626.808 45.646, 635.459 40.630, 644.110 35.615, 652.761 30.720, 661.203 30.720, 671.203 30.720, 681.203 30.720, 691.203 30.720, 701.203 30.720, 711.203 30.720, 720.148 39.664, 724.620 48.609, 729.092 57.553, 733.564 66.497, 738.036 75.441, 742.509 84.386, 746.981 93.330, 751.453 102.274, 755.925 111.218, 760.397 120.163, 764.869 129.107, 769.341 138.051, 773.814 146.995, 778.286 155.940, 782.758 164.884, 787.230 173.828, 791.702 182.773, 796.174 191.717, 800.646 200.661, 805.119 209.605, 809.591 218.550, 814.063 227.494, 818.535 236.438, 823.007 245.382, 827.479 254.327, 831.951 263.271, 836.423 272.215, 840.896 281.160, 845.368 290.104, 849.840 299.048, 854.312 307.992, 858.784 316.937, 863.256 325.881, 867.728 334.825, 872.201 343.769, 876.673 352.714, 881.145 361.658, 885.617 370.602, 890.089 379.547, 894.561 388.491, 899.033 397.435, 903.506 406.379, 907.978 415.324, 912.450 424.268, 916.922 433.212, 921.394 442.156, 925.866 451.101, 930.338 460.045, 934.810 468.989, 939.283 477.934, 943.755 486.878, 948.227 495.822, 952.699 504.766, 957.171 512.000, 960.788 520.944, 956.316 529.889, 951.844 538.833, 947.372 547.777, 942.899 556.721, 938.427 565.666, 933.955 574.610, 929.483 583.554, 925.011 592.498, 920.539 601.443, 916.067 610.387, 911.594 619.331, 907.122 628.276, 902.650 637.220, 898.178 646.164, 893.706 655.108, 889.234 664.053, 884.762 672.997, 880.290 681.941, 875.817 690.885, 871.345 699.830, 866.873 708.774, 862.401 717.718, 857.929 726.663, 853.457 735.607, 848.985 744.551, 844.512 753.495, 840.040 762.440, 835.568 771.384, 831.096 780.328, 826.624 789.272, 822.152 798.217, 817.680 807.161, 813.208 816.105, 808.735 825.049, 804.263 833.994, 799.791 842.938, 795.319 851.882, 790.847 860.827, 786.375 869.771, 781.903 878.715, 777.430 887.659, 772.958 896.604, 768.486 905.548, 764.014 914.492, 759.542 923.436, 755.070 932.381, 750.598 941.325, 746.125 950.269, 741.653 959.214, 737.181 968.158, 732.709 977.102, 728.237 986.046, 723.765 993.280, 720.148 993.280, 710.148 993.280, 700.148 993.280, 690.148 993.280, 680.148 993.280, 670.148 993.280, 661.203 988.264, 652.552 983.248, 643.901 978.232, 635.250 973.217, 626.599 968.201, 617.948 963.185, 609.297 958.169, 600.646 953.153, 591.995 948.137, 583.344 943.121, 574.693 938.106, 566.042 933.090, 557.390 928.074, 548.739 923.058, 540.088 918.042, 531.437 913.026, 522.786 908.010, 514.135 902.995, 505.484 897.979, 496.833 892.963, 488.182 887.947, 479.531 882.931, 470.880 877.915, 462.229 872.899, 453.578 867.884, 444.926 862.868, 436.275 857.852, 427.624 852.836, 418.973 847.820, 410.322 842.804, 401.671 837.788, 393.020 832.773, 384.369 827.757, 375.718 822.741, 367.067 817.725, 358.416 812.709, 349.765 807.693, 341.114 802.677, 332.462 797.661, 323.811 792.646, 315.160 787.630, 306.509 782.614, 297.858 777.598, 289.207 772.582, 280.556 767.566, 271.905 762.551, 263.254 757.535, 254.603 752.640, 246.161 743.696, 241.689 734.751, 237.216 725.807, 232.744 716.863, 228.272 707.919, 223.800 698.974, 219.328 690.030, 214.856 681.086, 210.384 672.142, 205.911 663.197, 201.439 654.253, 196.967 645.309, 192.495 636.365, 188.023 627.420, 183.551 618.476, 179.079 610.796, 175.239 " />
            <path fill="none" stroke-width="3.5" stroke-linecap="butt" stroke-opacity="1.0" stroke="rgb(0, 0, 0)" stroke-linejoin="round" d=" M 512.000, 366.481 520.944, 362.009 527.212, 358.875 536.156, 354.403 545.100, 349.931 554.045, 345.458 562.989, 340.986 571.933, 336.514 580.877, 332.042 589.822, 327.570 598.766, 323.098 607.710, 318.626 616.655, 314.153 625.599, 309.681 634.543, 305.209 643.487, 300.737 645.568, 299.697 654.512, 295.225 663.456, 290.753 672.400, 286.281 681.345, 281.808 690.289, 277.336 699.233, 272.864 708.177, 268.392 717.122, 263.920 726.066, 259.448 735.010, 254.976 743.954, 250.503 752.640, 246.161 " />
            <path fill="none" stroke-width="3.5" stroke-linecap="butt" stroke-opacity="1.0" stroke="rgb(0, 0, 0)" stroke-linejoin="round" d=" M 528.587, 134.134 519.642, 129.662 512.000, 125.841 503.056, 130.313 495.413, 134.134 " />
            <path fill="none" stroke-width="3.5" stroke-linecap="butt" stroke-opacity="1.0" stroke="rgb(0, 0, 0)" stroke-linejoin="round" d=" M 271.360, 246.161 280.304, 250.633 289.249, 255.105 298.193, 259.577 307.137, 264.049 316.081, 268.521 325.026, 272.994 333.970, 277.466 342.914, 281.938 351.858, 286.410 360.803, 290.882 369.747, 295.354 378.433, 299.697 387.377, 304.169 396.321, 308.641 405.265, 313.113 414.210, 317.586 423.154, 322.058 432.098, 326.530 441.042, 331.002 449.987, 335.474 458.931, 339.946 467.875, 344.418 476.820, 348.891 485.764, 353.363 494.708, 357.835 496.788, 358.875 505.732, 363.347 512.000, 366.481 512.000, 374.378 " />
            <path fill="none" stroke-width="3.5" stroke-linecap="butt" stroke-opacity="1.0" stroke="rgb(0, 0, 0)" stroke-linejoin="round" d=" M 512.000, 788.211 512.000, 798.211 512.000, 808.211 512.000, 818.211 512.000, 828.211 512.000, 838.211 512.000, 848.211 512.000, 858.211 512.000, 868.211 512.000, 878.211 512.000, 888.211 512.000, 898.211 512.000, 901.843 512.000, 911.843 512.000, 921.843 512.000, 931.843 512.000, 941.843 512.000, 951.843 512.000, 960.788 " />
            <path fill="none" stroke-width="3.5" stroke-linecap="butt" stroke-opacity="1.0" stroke="rgb(0, 0, 0)" stroke-linejoin="round" d=" M 409.906, 242.477 413.601, 251.769 417.296, 261.061 417.674, 262.012 425.681, 268.003 432.146, 272.840 439.808, 278.573 449.293, 281.742 458.777, 284.911 468.262, 288.080 472.930, 289.640 482.881, 290.629 492.832, 291.618 502.783, 292.607 512.000, 293.524 512.000, 293.524 512.000, 293.524 521.951, 292.534 531.902, 291.545 541.853, 290.556 551.070, 289.640 560.555, 286.471 570.039, 283.302 579.524, 280.132 584.192, 278.573 591.854, 272.840 599.861, 266.849 606.326, 262.012 610.021, 252.719 613.716, 243.427 614.094, 242.477 " />
            <path fill="none" stroke-width="3.5" stroke-linecap="butt" stroke-opacity="1.0" stroke="rgb(0, 0, 0)" stroke-linejoin="round" d=" M 614.094, 183.532 610.399, 192.824 606.704, 202.117 606.326, 203.067 598.319, 209.058 593.045, 213.004 585.038, 218.995 584.192, 219.628 574.707, 222.797 565.223, 225.966 555.738, 229.135 551.070, 230.695 541.119, 231.684 531.168, 232.674 521.217, 233.663 514.779, 234.303 512.000, 234.579 509.221, 234.303 499.270, 233.314 489.319, 232.324 479.368, 231.335 472.930, 230.695 463.445, 227.526 453.961, 224.357 444.476, 221.188 439.808, 219.628 431.801, 213.637 430.955, 213.004 422.948, 207.014 417.674, 203.067 413.979, 193.775 410.284, 184.483 409.906, 183.532 413.204, 175.239 416.899, 165.946 417.674, 163.997 425.681, 158.006 433.688, 152.015 439.808, 147.436 449.293, 144.267 458.777, 141.098 468.262, 137.929 472.930, 136.369 482.881, 135.380 492.832, 134.391 495.413, 134.134 505.364, 133.145 512.001, 132.485 512.002, 132.485 521.953, 133.475 528.587, 134.134 538.538, 135.123 548.489, 136.112 551.070, 136.369 560.555, 139.538 570.039, 142.707 579.524, 145.876 584.192, 147.436 592.199, 153.427 600.206, 159.418 606.326, 163.997 610.021, 173.289 610.796, 175.239 614.094, 183.532 614.094, 193.532 614.094, 203.532 614.094, 213.532 614.094, 223.532 614.094, 233.532 614.094, 242.477 " />
            <path fill="none" stroke-width="3.5" stroke-linecap="butt" stroke-opacity="1.0" stroke="rgb(0, 0, 0)" stroke-linejoin="round" d=" M 409.906, 183.532 409.906, 193.532 409.906, 203.532 409.906, 213.532 409.906, 223.532 409.906, 233.532 409.906, 242.477 " />
            <path fill="none" stroke-width="3.5" stroke-linecap="butt" stroke-opacity="1.0" stroke="rgb(0, 0, 0)" stroke-linejoin="round" d=" M 512.000, 538.992 512.000, 528.992 512.000, 527.636 512.000, 517.636 512.000, 507.636 512.000, 497.636 512.000, 487.636 512.000, 477.636 512.000, 467.636 512.000, 457.636 512.000, 447.636 512.000, 437.636 512.000, 427.636 512.000, 417.636 512.000, 407.636 512.000, 397.636 512.000, 387.636 512.000, 377.636 512.000, 374.378 " />
            <path fill="none" stroke-width="3.5" stroke-linecap="butt" stroke-opacity="1.0" stroke="rgb(0, 0, 0)" stroke-linejoin="round" d=" M 512.000, 576.847 512.000, 566.847 512.000, 556.847 512.000, 546.847 512.000, 538.992 " />
            <path fill="none" stroke-width="3.5" stroke-linecap="butt" stroke-opacity="1.0" stroke="rgb(0, 0, 0)" stroke-linejoin="round" d=" M 512.000, 788.211 512.000, 778.211 512.000, 768.211 512.000, 758.211 512.000, 748.211 512.000, 738.211 512.000, 728.211 512.000, 718.211 512.000, 708.211 512.000, 698.211 512.000, 688.211 512.000, 678.211 512.000, 669.101 512.000, 659.101 512.000, 649.101 512.000, 639.101 512.000, 629.101 512.000, 619.101 512.000, 609.101 512.000, 599.101 512.000, 589.101 512.000, 579.101 512.000, 576.847 " />
        </g>
    </g>
</svg>
