<?xml version='1.0' encoding='utf-8'?>
<svg xmlns="http://www.w3.org/2000/svg" xmlns:inkscape="http://www.inkscape.org/namespaces/inkscape" version="1.1" width="1024" height="1024">
    <rect width="100%" height="100%" fill="white" /><g id="ViewLayer_Edges" inkscape:groupmode="lineset" inkscape:label="ViewLayer_Edges">
        <g inkscape:groupmode="layer" inkscape:label="fills" id="fills">
            <path fill_rule="evenodd" stroke="none" fill-opacity="1.0" fill="orange" d=" M 650.989, 179.225 618.374, 154.823 569.570, 138.516 512.000, 132.793 454.430, 138.516 405.626, 154.823 373.011, 179.225 366.502, 195.597 334.710, 206.219 280.352, 246.890 261.276, 294.865 261.276, 707.422 280.352, 755.397 311.421, 778.642 311.421, 815.990 326.682, 854.370 370.168, 886.906 435.240, 908.649 512.000, 916.279 588.760, 908.649 653.832, 886.906 697.318, 854.370 712.579, 815.990 712.579, 778.642 743.648, 755.397 762.724, 707.422 762.724, 294.865 743.648, 246.890 689.290, 206.219 657.498, 195.597 650.989, 179.225  z" />
        </g>
        <g inkscape:groupmode="layer" id="strokes" inkscape:label="strokes">
            <path fill="none" stroke-width="1.5" stroke-linecap="butt" stroke-opacity="1.0" stroke="currentColor" stroke-linejoin="round" d=" M 612.290, 208.010 608.595, 217.303 604.900, 226.595 604.659, 227.200 596.652, 233.191 595.517, 234.040 587.510, 240.031 582.916, 243.468 573.432, 246.638 563.947, 249.807 554.462, 252.976 550.380, 254.340 540.429, 255.329 530.478, 256.318 520.527, 257.307 512.000, 258.155 502.049, 257.166 492.098, 256.177 482.147, 255.188 473.620, 254.340 464.136, 251.171 454.651, 248.002 445.167, 244.833 441.084, 243.468 433.077, 237.478 428.483, 234.040 420.476, 228.049 419.341, 227.200 415.646, 217.908 411.951, 208.616 411.710, 208.010 " />
            <path fill="none" stroke-width="1.5" stroke-linecap="butt" stroke-opacity="1.0" stroke="currentColor" stroke-linejoin="round" d=" M 612.290, 208.010 608.595, 198.718 604.900, 189.426 604.659, 188.820 596.652, 182.830 589.081, 177.165 582.916, 172.552 573.432, 169.383 563.947, 166.214 554.462, 163.045 550.380, 161.681 540.429, 160.692 530.478, 159.702 520.527, 158.713 512.000, 157.866 502.049, 158.855 492.098, 159.844 482.147, 160.833 473.620, 161.681 464.136, 164.850 454.651, 168.019 445.167, 171.188 441.084, 172.552 434.919, 177.165 426.912, 183.156 419.341, 188.820 415.646, 198.113 411.951, 207.405 411.710, 208.010 " />
            <path fill="none" stroke-width="1.5" stroke-linecap="butt" stroke-opacity="1.0" stroke="currentColor" stroke-linejoin="round" d=" M 361.566, 294.865 365.261, 304.157 368.955, 313.449 372.650, 322.742 373.011, 323.649 381.018, 329.640 389.025, 335.631 392.581, 338.292 400.588, 344.282 405.626, 348.052 411.710, 350.085 421.195, 353.254 428.483, 355.689 437.967, 358.858 447.452, 362.027 454.430, 364.359 464.381, 365.348 474.332, 366.337 484.283, 367.326 494.234, 368.316 504.185, 369.305 512.000, 370.082 521.951, 369.093 531.902, 368.103 541.853, 367.114 551.804, 366.125 561.755, 365.136 569.570, 364.359 579.054, 361.190 588.539, 358.021 595.517, 355.689 605.002, 352.520 612.290, 350.085 618.374, 348.052 626.381, 342.061 631.419, 338.292 639.426, 332.301 647.433, 326.310 650.989, 323.649 654.684, 314.357 658.378, 305.065 662.073, 295.772 662.434, 294.865 " />
            <path fill="none" stroke-width="1.5" stroke-linecap="butt" stroke-opacity="1.0" stroke="currentColor" stroke-linejoin="round" d=" M 662.434, 208.010 658.740, 217.303 655.045, 226.595 651.350, 235.887 650.989, 236.795 642.982, 242.786 634.975, 248.777 631.419, 251.437 623.412, 257.428 618.374, 261.197 612.290, 263.230 602.805, 266.400 593.320, 269.569 583.836, 272.738 574.351, 275.907 569.570, 277.505 559.619, 278.494 549.668, 279.483 539.717, 280.472 529.766, 281.461 519.815, 282.451 512.000, 283.228 502.049, 282.238 492.098, 281.249 482.147, 280.260 472.196, 279.271 462.245, 278.281 454.430, 277.505 444.946, 274.336 435.461, 271.166 425.977, 267.997 416.492, 264.828 411.710, 263.230 405.626, 261.197 397.619, 255.207 392.581, 251.437 384.574, 245.447 376.567, 239.456 373.011, 236.795 369.316, 227.503 365.622, 218.211 361.927, 208.918 361.566, 208.010 365.261, 198.718 366.502, 195.597 370.197, 186.304 373.011, 179.225 381.018, 173.235 389.025, 167.244 397.032, 161.253 405.039, 155.262 405.626, 154.823 415.110, 151.654 424.595, 148.485 434.079, 145.316 443.564, 142.147 453.049, 138.978 454.430, 138.516 464.381, 137.527 474.332, 136.538 484.283, 135.548 494.234, 134.559 504.185, 133.570 512.000, 132.793 521.951, 133.782 531.902, 134.772 541.853, 135.761 551.804, 136.750 561.755, 137.739 569.570, 138.516 579.054, 141.685 588.539, 144.854 598.023, 148.023 607.508, 151.192 616.992, 154.362 618.374, 154.823 626.381, 160.814 634.388, 166.805 642.395, 172.796 650.402, 178.786 650.989, 179.225 654.684, 188.518 657.498, 195.597 661.193, 204.889 662.434, 208.010 662.434, 218.010 662.434, 228.010 662.434, 238.010 662.434, 248.010 662.434, 258.010 662.434, 268.010 662.434, 278.010 662.434, 288.010 662.434, 294.865 " />
            <path fill="none" stroke-width="1.5" stroke-linecap="butt" stroke-opacity="1.0" stroke="currentColor" stroke-linejoin="round" d=" M 361.566, 208.010 361.566, 218.010 361.566, 228.010 361.566, 238.010 361.566, 248.010 361.566, 258.010 361.566, 268.010 361.566, 278.010 361.566, 288.010 361.566, 294.865 " />
            <path fill="none" stroke-width="1.5" stroke-linecap="butt" stroke-opacity="1.0" stroke="currentColor" stroke-linejoin="round" d=" M 366.502, 195.597 357.017, 198.766 347.533, 201.935 338.048, 205.104 334.710, 206.219 326.703, 212.210 318.696, 218.201 310.689, 224.192 302.682, 230.183 294.675, 236.173 286.668, 242.164 280.352, 246.890 276.657, 256.182 272.962, 265.474 269.268, 274.767 265.573, 284.059 261.878, 293.351 261.276, 294.865 261.276, 304.865 261.276, 314.865 261.276, 324.865 261.276, 334.865 261.276, 344.865 261.276, 354.865 261.276, 364.865 261.276, 374.865 261.276, 384.865 261.276, 394.865 261.276, 404.865 261.276, 414.865 261.276, 424.865 261.276, 434.865 261.276, 444.865 261.276, 454.865 261.276, 464.865 261.276, 474.865 261.276, 484.865 261.276, 494.865 261.276, 504.865 261.276, 514.865 261.276, 524.865 261.276, 534.865 261.276, 544.865 261.276, 554.865 261.276, 564.865 261.276, 574.865 261.276, 584.865 261.276, 594.865 261.276, 604.865 261.276, 614.865 261.276, 624.865 261.276, 634.865 261.276, 644.865 261.276, 654.865 261.276, 664.865 261.276, 674.865 261.276, 684.865 261.276, 694.865 261.276, 707.422 264.971, 716.714 268.666, 726.007 272.361, 735.299 276.056, 744.591 279.751, 753.884 280.352, 755.397 288.359, 761.388 296.366, 767.378 304.373, 773.369 311.421, 778.642 319.428, 784.633 322.866, 787.206 330.873, 793.197 334.710, 796.067 344.194, 799.236 353.679, 802.405 361.566, 805.041 365.409, 806.325 374.893, 809.494 384.378, 812.663 393.862, 815.832 403.347, 819.001 412.831, 822.170 416.050, 823.246 426.001, 824.235 435.952, 825.224 445.903, 826.213 455.854, 827.203 465.805, 828.192 475.756, 829.181 485.707, 830.170 495.658, 831.159 505.609, 832.149 512.000, 832.784 521.951, 831.795 531.902, 830.806 541.853, 829.816 551.804, 828.827 561.755, 827.838 571.706, 826.849 581.657, 825.859 591.608, 824.870 601.559, 823.881 607.950, 823.246 617.434, 820.077 626.919, 816.908 636.403, 813.738 645.888, 810.569 655.372, 807.400 658.591, 806.325 662.434, 805.041 671.919, 801.871 681.404, 798.702 689.290, 796.067 697.297, 790.076 701.134, 787.206 709.141, 781.215 712.579, 778.642 720.586, 772.651 728.593, 766.661 736.600, 760.670 743.648, 755.397 747.343, 746.104 751.037, 736.812 754.732, 727.520 758.427, 718.227 762.122, 708.935 762.724, 707.422 762.724, 697.422 762.724, 687.422 762.724, 677.422 762.724, 667.422 762.724, 657.422 762.724, 647.422 762.724, 637.422 762.724, 627.422 762.724, 617.422 762.724, 607.422 762.724, 597.422 762.724, 587.422 762.724, 577.422 762.724, 567.422 762.724, 557.422 762.724, 547.422 762.724, 537.422 762.724, 527.422 762.724, 517.422 762.724, 507.422 762.724, 497.422 762.724, 487.422 762.724, 477.422 762.724, 467.422 762.724, 457.422 762.724, 447.422 762.724, 437.422 762.724, 427.422 762.724, 417.422 762.724, 407.422 762.724, 397.422 762.724, 387.422 762.724, 377.422 762.724, 367.422 762.724, 357.422 762.724, 347.422 762.724, 337.422 762.724, 327.422 762.724, 317.422 762.724, 307.422 762.724, 294.865 759.029, 285.572 755.334, 276.280 751.639, 266.988 747.944, 257.695 744.249, 248.403 743.648, 246.890 735.641, 240.899 727.634, 234.908 719.627, 228.917 711.620, 222.927 703.613, 216.936 695.606, 210.945 689.290, 206.219 679.806, 203.050 670.321, 199.881 660.837, 196.712 657.498, 195.597 " />
            <path fill="none" stroke-width="1.5" stroke-linecap="butt" stroke-opacity="1.0" stroke="currentColor" stroke-linejoin="round" d=" M 261.276, 294.865 264.971, 304.157 268.666, 313.449 272.361, 322.742 276.056, 332.034 279.751, 341.326 280.352, 342.839 288.359, 348.830 296.366, 354.821 304.373, 360.812 312.380, 366.802 320.387, 372.793 328.394, 378.784 334.710, 383.510 344.194, 386.679 353.679, 389.848 361.566, 392.483 371.050, 395.652 380.535, 398.821 390.019, 401.990 399.504, 405.160 408.988, 408.329 416.050, 410.688 426.001, 411.678 435.952, 412.667 445.903, 413.656 455.854, 414.645 465.805, 415.634 475.756, 416.624 485.707, 417.613 495.658, 418.602 505.609, 419.591 512.000, 420.227 521.951, 419.237 531.902, 418.248 541.853, 417.259 551.804, 416.270 561.755, 415.281 571.706, 414.291 581.657, 413.302 591.608, 412.313 601.559, 411.324 607.950, 410.688 617.434, 407.519 626.919, 404.350 636.403, 401.181 645.888, 398.012 655.372, 394.843 662.434, 392.483 671.919, 389.314 681.404, 386.145 689.290, 383.510 697.297, 377.519 705.304, 371.528 713.311, 365.537 721.318, 359.547 729.325, 353.556 737.332, 347.565 743.648, 342.839 747.343, 333.547 751.038, 324.255 754.732, 314.962 758.427, 305.670 762.122, 296.378 762.724, 294.865 " />
            <path fill="none" stroke-width="1.5" stroke-linecap="butt" stroke-opacity="1.0" stroke="currentColor" stroke-linejoin="round" d=" M 311.421, 778.642 311.421, 788.642 311.421, 798.642 311.421, 808.642 311.421, 815.990 315.116, 825.282 318.811, 834.574 322.506, 843.867 326.201, 853.159 326.682, 854.370 334.689, 860.360 342.696, 866.351 350.703, 872.342 358.709, 878.333 366.716, 884.324 370.168, 886.906 379.652, 890.075 389.137, 893.244 398.621, 896.413 408.106, 899.582 417.590, 902.751 427.075, 905.920 435.240, 908.649 445.191, 909.638 455.142, 910.627 465.093, 911.616 475.044, 912.606 484.995, 913.595 494.946, 914.584 504.897, 915.573 512.000, 916.279 521.951, 915.290 531.902, 914.301 541.853, 913.312 551.804, 912.322 561.755, 911.333 571.706, 910.344 581.657, 909.355 588.760, 908.649 598.244, 905.480 607.729, 902.311 617.213, 899.141 626.698, 895.972 636.182, 892.803 645.667, 889.634 653.832, 886.906 661.839, 880.915 669.846, 874.924 677.853, 868.933 685.860, 862.943 693.867, 856.952 697.318, 854.370 701.013, 845.077 704.708, 835.785 708.403, 826.493 712.098, 817.200 712.579, 815.990 712.579, 805.990 712.579, 795.990 712.579, 785.990 712.579, 778.642 " />
        </g>
    </g>
</svg>