<?xml version='1.0' encoding='ascii'?>
<svg xmlns="http://www.w3.org/2000/svg" version="1.1" width="1024" height="1024">
    <g id="ViewLayer_Edges" xmlns:inkscape="http://www.inkscape.org/namespaces/inkscape" inkscape:groupmode="lineset" inkscape:label="ViewLayer_Edges">
        <g xmlns:inkscape="http://www.inkscape.org/namespaces/inkscape" inkscape:groupmode="layer" id="strokes" inkscape:label="strokes">
            <path fill="none" stroke-width="2.5" stroke-linecap="butt" stroke-opacity="1.0" stroke="rgb(0, 0, 0)" stroke-linejoin="round" d=" M 653.844, 175.239 644.900, 179.711 635.955, 184.183 627.011, 188.655 618.067, 193.127 609.122, 197.599 600.178, 202.071 591.234, 206.544 582.290, 211.016 573.345, 215.488 564.401, 219.960 555.457, 224.432 546.513, 228.904 537.568, 233.376 528.624, 237.849 519.680, 242.321 512.000, 246.161 505.315, 253.597 498.629, 261.034 491.944, 268.471 485.258, 275.907 478.573, 283.344 471.887, 290.781 465.202, 298.218 458.516, 305.654 451.831, 313.091 445.146, 320.528 438.460, 327.964 431.775, 335.401 425.089, 342.838 418.404, 350.275 411.718, 357.711 405.033, 365.148 398.347, 372.585 391.662, 380.021 384.976, 387.458 378.291, 394.895 371.605, 402.332 364.920, 409.768 358.235, 417.205 351.549, 424.642 344.864, 432.078 338.178, 439.515 331.493, 446.952 324.807, 454.389 318.122, 461.825 311.436, 469.262 304.751, 476.699 298.065, 484.135 291.380, 491.572 284.695, 499.009 278.009, 506.445 271.324, 513.882 264.638, 521.319 257.953, 528.756 251.267, 536.192 244.582, 543.629 237.896, 551.066 231.211, 558.503 224.525, 565.939 217.840, 573.376 211.155, 580.813 204.469, 588.249 197.784, 595.686 191.098, 603.123 184.413, 610.560 177.727, 617.996 171.042, 625.433 164.356, 632.870 157.671, 640.306 150.986, 647.743 144.300, 655.180 137.615, 662.617 130.929, 670.053 124.244, 677.490 117.558, 684.927 110.873, 692.363 104.187, 699.800 97.502, 707.237 90.816, 714.673 84.131, 722.110 77.446, 729.547 70.760, 736.984 64.075, 744.420 57.389, 751.857 50.704, 759.294 44.018, 766.730 37.333, 774.167 30.720, 781.523 30.720, 791.523 30.720, 801.523 30.720, 811.523 30.720, 821.523 30.720, 831.523 30.720, 840.468 39.664, 844.940 48.608, 849.412 57.553, 853.884 66.497, 858.356 75.441, 862.828 84.386, 867.301 93.330, 871.773 102.274, 876.245 111.218, 880.717 120.163, 885.189 129.107, 889.661 138.051, 894.133 146.995, 898.606 155.940, 903.078 164.884, 907.550 173.828, 912.022 182.773, 916.494 191.717, 920.966 200.661, 925.438 209.605, 929.910 218.550, 934.383 227.494, 938.855 236.438, 943.327 245.382, 947.799 254.327, 952.271 263.271, 956.743 271.360, 960.788 280.304, 956.316 289.248, 951.843 298.193, 947.371 307.137, 942.899 316.081, 938.427 325.026, 933.955 333.970, 929.483 342.914, 925.011 351.858, 920.539 360.803, 916.066 369.747, 911.594 378.691, 907.122 387.635, 902.650 396.580, 898.178 405.524, 893.706 414.468, 889.234 423.413, 884.761 432.357, 880.289 441.301, 875.817 450.245, 871.345 459.190, 866.873 468.134, 862.401 477.078, 857.929 486.022, 853.456 494.967, 848.984 503.911, 844.512 512.855, 840.040 521.800, 835.568 530.744, 831.096 539.688, 826.624 548.632, 822.152 557.577, 817.679 566.521, 813.207 575.465, 808.735 584.409, 804.263 593.354, 799.791 602.298, 795.319 611.242, 790.847 620.187, 786.374 629.131, 781.902 638.075, 777.430 647.019, 772.958 655.964, 768.486 664.908, 764.014 673.852, 759.542 682.796, 755.070 691.741, 750.597 700.685, 746.125 709.629, 741.653 718.574, 737.181 727.518, 732.709 736.462, 728.237 745.406, 723.765 754.351, 719.292 763.295, 714.820 772.239, 710.348 781.183, 705.876 790.128, 701.404 799.072, 696.932 808.016, 692.460 816.961, 687.987 825.905, 683.515 834.849, 679.043 843.793, 674.571 852.738, 670.099 861.682, 665.627 870.626, 661.155 879.570, 656.683 888.515, 652.210 897.459, 647.738 906.403, 643.266 915.348, 638.794 924.292, 634.322 933.236, 629.850 942.180, 625.378 951.125, 620.905 960.069, 616.433 969.013, 611.961 977.957, 607.489 993.280, 599.828 993.280, 589.828 993.280, 579.828 993.280, 569.828 993.280, 559.828 993.280, 549.828 993.280, 539.828 993.280, 529.828 993.280, 519.828 993.280, 509.828 993.280, 499.828 993.280, 489.828 993.280, 479.828 993.280, 469.828 993.280, 459.828 993.280, 449.828 993.280, 439.828 993.280, 429.828 993.280, 419.828 993.280, 409.828 993.280, 399.828 993.280, 389.828 993.280, 379.828 993.280, 369.828 993.280, 359.828 993.280, 349.828 993.280, 339.828 993.280, 329.828 993.280, 319.828 993.280, 309.828 993.280, 299.828 993.280, 289.828 993.280, 279.828 993.280, 269.828 993.280, 259.828 993.280, 249.828 993.280, 246.161 984.336, 241.688 975.392, 237.216 966.447, 232.744 957.503, 228.272 948.559, 223.800 939.614, 219.328 930.670, 214.856 921.726, 210.383 912.782, 205.911 903.837, 201.439 894.893, 196.967 885.949, 192.495 877.005, 188.023 868.060, 183.551 859.116, 179.078 851.436, 175.239 " />
            <path fill="none" stroke-width="2.5" stroke-linecap="butt" stroke-opacity="1.0" stroke="rgb(0, 0, 0)" stroke-linejoin="round" d=" M 271.360, 901.843 278.045, 894.407 284.731, 886.970 291.416, 879.533 298.102, 872.096 304.787, 864.660 311.473, 857.223 318.158, 849.786 324.844, 842.350 331.529, 834.913 338.214, 827.476 344.900, 820.039 351.585, 812.603 355.420, 808.337 356.316, 807.340 363.002, 799.903 369.687, 792.467 376.373, 785.030 383.058, 777.593 389.743, 770.157 396.429, 762.720 403.114, 755.283 404.127, 754.157 410.812, 746.720 417.498, 739.284 424.183, 731.847 430.868, 724.410 437.554, 716.974 444.239, 709.537 448.338, 704.978 449.035, 704.203 455.720, 696.766 459.743, 692.292 466.428, 684.855 473.113, 677.418 479.799, 669.981 486.484, 662.545 489.475, 659.218 489.475, 659.218 496.160, 651.782 502.846, 644.345 509.531, 636.908 516.217, 629.472 522.902, 622.035 529.587, 614.598 536.273, 607.161 542.958, 599.725 549.644, 592.288 556.329, 584.851 560.128, 580.626 566.813, 573.189 573.499, 565.752 580.184, 558.315 586.870, 550.879 593.555, 543.442 600.241, 536.005 606.926, 528.569 608.256, 527.089 608.256, 527.089 614.941, 519.653 621.627, 512.216 628.312, 504.779 634.998, 497.342 641.683, 489.906 648.369, 482.469 655.054, 475.032 661.740, 467.596 668.425, 460.159 675.111, 452.722 681.796, 445.286 688.482, 437.849 695.167, 430.412 701.852, 422.975 704.512, 420.017 711.198, 412.580 717.883, 405.143 724.568, 397.707 731.254, 390.270 737.939, 382.833 744.625, 375.397 751.310, 367.960 752.640, 366.481 761.584, 362.008 770.529, 357.536 779.473, 353.064 788.417, 348.592 797.361, 344.120 806.306, 339.648 815.250, 335.176 824.194, 330.703 833.138, 326.231 842.083, 321.759 851.027, 317.287 859.971, 312.815 868.916, 308.343 877.860, 303.871 886.208, 299.697 895.152, 295.225 904.096, 290.753 913.040, 286.280 921.985, 281.808 930.929, 277.336 939.873, 272.864 948.817, 268.392 957.762, 263.920 966.706, 259.448 975.650, 254.975 984.595, 250.503 993.280, 246.161 " />
            <path fill="none" stroke-width="2.5" stroke-linecap="butt" stroke-opacity="1.0" stroke="rgb(0, 0, 0)" stroke-linejoin="round" d=" M 769.227, 134.134 760.282, 129.662 752.640, 125.841 743.696, 130.313 736.053, 134.134 " />
            <path fill="none" stroke-width="2.5" stroke-linecap="butt" stroke-opacity="1.0" stroke="rgb(0, 0, 0)" stroke-linejoin="round" d=" M 271.360, 960.788 271.360, 950.788 271.360, 940.788 271.360, 930.788 271.360, 920.788 271.360, 912.660 " />
            <path fill="none" stroke-width="2.5" stroke-linecap="butt" stroke-opacity="1.0" stroke="rgb(0, 0, 0)" stroke-linejoin="round" d=" M 271.360, 912.660 271.360, 902.660 271.360, 901.843 262.416, 897.371 253.471, 892.899 244.527, 888.427 235.583, 883.955 226.639, 879.483 217.694, 875.010 208.750, 870.538 199.806, 866.066 190.861, 861.594 181.917, 857.122 172.973, 852.650 164.029, 848.178 155.084, 843.705 146.140, 839.233 137.792, 835.060 " />
            <path fill="none" stroke-width="2.5" stroke-linecap="butt" stroke-opacity="1.0" stroke="rgb(0, 0, 0)" stroke-linejoin="round" d=" M 752.640, 293.523 762.591, 292.534 772.542, 291.545 782.493, 290.556 791.710, 289.640 801.195, 286.470 810.680, 283.301 820.164, 280.132 824.832, 278.573 832.494, 272.840 840.501, 266.849 846.966, 262.012 850.661, 252.719 854.356, 243.427 854.734, 242.477 " />
            <path fill="none" stroke-width="2.5" stroke-linecap="butt" stroke-opacity="1.0" stroke="rgb(0, 0, 0)" stroke-linejoin="round" d=" M 752.640, 132.485 762.591, 133.474 769.227, 134.134 779.178, 135.123 789.129, 136.112 791.710, 136.369 801.195, 139.538 810.680, 142.707 820.164, 145.876 824.832, 147.436 832.839, 153.427 840.846, 159.418 846.966, 163.997 850.661, 173.289 851.436, 175.239 854.734, 183.532 851.039, 192.824 847.344, 202.117 846.966, 203.067 838.959, 209.058 833.685, 213.004 825.678, 218.995 824.832, 219.628 815.348, 222.797 805.863, 225.966 796.378, 229.135 791.710, 230.695 781.759, 231.684 771.808, 232.673 761.858, 233.663 755.419, 234.303 752.640, 234.579 749.861, 234.303 739.910, 233.313 729.959, 232.324 720.008, 231.335 713.570, 230.695 704.085, 227.526 694.601, 224.357 685.116, 221.188 680.448, 219.628 672.441, 213.637 671.595, 213.004 663.588, 207.013 658.314, 203.067 654.619, 193.775 650.924, 184.482 650.546, 183.532 653.844, 175.239 657.539, 165.946 658.314, 163.997 666.321, 158.006 674.328, 152.015 680.448, 147.436 689.933, 144.267 699.417, 141.098 708.902, 137.929 713.570, 136.369 723.521, 135.380 733.472, 134.391 736.053, 134.134 746.004, 133.145 752.640, 132.485 " />
            <path fill="none" stroke-width="2.5" stroke-linecap="butt" stroke-opacity="1.0" stroke="rgb(0, 0, 0)" stroke-linejoin="round" d=" M 854.734, 242.477 854.734, 232.477 854.734, 222.477 854.734, 212.477 854.734, 202.477 854.734, 192.477 854.734, 183.532 " />
            <path fill="none" stroke-width="2.5" stroke-linecap="butt" stroke-opacity="1.0" stroke="rgb(0, 0, 0)" stroke-linejoin="round" d=" M 650.546, 183.532 650.546, 193.532 650.546, 203.532 650.546, 213.532 650.546, 223.532 650.546, 233.532 650.546, 242.477 " />
            <path fill="none" stroke-width="2.5" stroke-linecap="butt" stroke-opacity="1.0" stroke="rgb(0, 0, 0)" stroke-linejoin="round" d=" M 650.546, 242.477 654.241, 251.769 657.936, 261.061 658.314, 262.012 666.321, 268.003 672.786, 272.840 680.448, 278.573 689.933, 281.742 699.417, 284.911 708.902, 288.080 713.570, 289.640 723.521, 290.629 733.472, 291.618 743.423, 292.607 752.640, 293.523 752.640, 293.523 " />
            <path fill="none" stroke-width="2.5" stroke-linecap="butt" stroke-opacity="1.0" stroke="rgb(0, 0, 0)" stroke-linejoin="round" d=" M 137.792, 835.060 128.848, 830.587 126.976, 829.651 118.032, 825.179 109.087, 820.707 100.143, 816.235 91.199, 811.763 82.255, 807.291 73.310, 802.818 64.366, 798.346 55.422, 793.874 46.478, 789.402 37.533, 784.930 30.720, 781.523 " />
        </g>
    </g>
</svg>
