<?xml version='1.0' encoding='utf-8'?>
<svg xmlns="http://www.w3.org/2000/svg" xmlns:inkscape="http://www.inkscape.org/namespaces/inkscape" version="1.1" width="1024" height="1024">
    <rect width="100%" height="100%" fill="white" /><g id="ViewLayer_HiddenEdges" inkscape:groupmode="lineset" inkscape:label="ViewLayer_HiddenEdges">
        <g inkscape:groupmode="layer" id="strokes" inkscape:label="strokes">
            <path fill="none" stroke-width="1.0" stroke-linecap="butt" stroke-opacity="0.5" stroke="currentColor" stroke-linejoin="round" d=" M 443.937, 423.583 443.937, 433.583 443.937, 437.026 443.937, 445.052 443.937, 455.052 443.937, 461.059 443.937, 464.767 443.937, 474.767 443.937, 482.528 443.937, 484.840 443.937, 494.840 443.937, 504.840 443.937, 514.840 443.937, 520.004 443.937, 522.316 444.749, 520.275 448.444, 510.983 449.116, 509.292 457.123, 503.301 463.872, 498.252 473.357, 495.082 482.841, 491.913 485.953, 490.873 495.904, 489.884 505.855, 488.895 512.000, 488.284 521.951, 489.273 531.902, 490.263 538.047, 490.873 547.531, 494.043 557.016, 497.212 560.128, 498.252 568.135, 504.242 574.884, 509.292 578.579, 518.584 579.251, 520.275 580.063, 522.316 580.063, 520.004 580.063, 510.004 580.063, 500.004 580.063, 490.004 580.063, 484.840 580.063, 482.528 580.063, 472.528 580.063, 464.767 580.063, 461.059 580.063, 451.059 580.063, 445.052 580.063, 437.026 580.063, 427.026 580.063, 423.583 " />
            <path fill="none" stroke-width="1.0" stroke-linecap="butt" stroke-opacity="0.5" stroke="currentColor" stroke-linejoin="round" d=" M 409.906, 482.528 412.155, 476.873 415.850, 467.581 417.674, 462.993 425.681, 457.002 430.955, 453.056 438.962, 447.065 439.808, 446.432 443.937, 445.052 453.422, 441.883 455.320, 441.249 464.805, 438.080 472.930, 435.365 482.881, 434.376 492.832, 433.386 502.783, 432.397 512.000, 431.481 521.951, 432.470 531.902, 433.459 541.853, 434.449 551.070, 435.365 560.555, 438.534 568.680, 441.249 578.164, 444.418 580.063, 445.052 584.192, 446.432 592.199, 452.423 593.045, 453.056 601.052, 459.047 606.326, 462.993 610.021, 472.285 611.845, 476.873 614.094, 482.528 " />
            <path fill="none" stroke-width="1.0" stroke-linecap="butt" stroke-opacity="0.5" stroke="currentColor" stroke-linejoin="round" d=" M 614.094, 600.417 610.399, 609.709 606.704, 619.002 606.326, 619.952 598.319, 625.943 590.312, 631.934 584.192, 636.513 574.707, 639.682 565.223, 642.851 555.738, 646.020 551.070, 647.580 541.119, 648.569 531.168, 649.559 521.217, 650.548 512.000, 651.464 502.049, 650.475 492.098, 649.486 482.147, 648.496 472.930, 647.580 463.445, 644.411 453.961, 641.242 444.476, 638.073 439.808, 636.513 431.801, 630.522 423.794, 624.531 417.674, 619.952 413.979, 610.660 410.284, 601.368 409.906, 600.417 413.601, 591.125 417.296, 581.832 417.674, 580.882 425.681, 574.891 426.722, 574.112 434.729, 568.121 439.808, 564.321 448.651, 561.366 458.136, 558.197 467.620, 555.028 472.930, 553.254 481.805, 552.372 491.756, 551.382 501.707, 550.393 511.658, 549.404 512.000, 549.370 521.951, 550.359 531.902, 551.348 541.853, 552.338 542.195, 552.372 551.070, 553.254 560.555, 556.423 570.039, 559.592 575.349, 561.366 584.192, 564.321 592.199, 570.312 597.278, 574.112 605.284, 580.103 606.326, 580.882 610.021, 590.174 613.716, 599.467 614.094, 600.417 614.094, 590.417 614.094, 580.417 614.094, 570.417 614.094, 566.076 614.094, 556.657 614.094, 546.657 614.094, 541.473 614.094, 531.473 614.094, 522.316 610.399, 513.023 606.704, 503.731 606.326, 502.780 605.847, 502.422 597.840, 496.431 589.833, 490.440 584.192, 486.220 580.063, 484.840 570.578, 481.671 561.094, 478.502 551.609, 475.332 551.070, 475.152 541.119, 474.163 531.168, 473.174 528.909, 472.949 518.958, 471.960 512.000, 471.269 502.049, 472.258 495.091, 472.949 485.140, 473.939 475.189, 474.928 472.930, 475.152 463.445, 478.322 453.961, 481.491 444.476, 484.660 443.937, 484.840 439.808, 486.220 431.801, 492.210 423.794, 498.201 418.153, 502.422 417.674, 502.780 413.979, 512.073 410.284, 521.365 409.906, 522.316 409.906, 532.316 409.906, 541.473 409.906, 551.473 409.906, 556.657 409.906, 566.076 409.906, 576.076 409.906, 586.076 409.906, 596.076 409.906, 600.417 " />
            <path fill="none" stroke-width="1.0" stroke-linecap="butt" stroke-opacity="0.5" stroke="currentColor" stroke-linejoin="round" d=" M 608.256, 648.545 616.263, 642.554 624.270, 636.563 632.277, 630.573 637.768, 626.464 641.463, 617.172 645.158, 607.879 648.125, 600.417 648.125, 590.417 648.125, 580.417 648.125, 570.417 648.125, 560.417 648.125, 550.417 648.125, 541.473 648.125, 531.473 648.125, 522.316 644.430, 531.608 640.735, 540.900 637.768, 548.362 629.761, 554.353 621.754, 560.344 620.388, 561.366 614.094, 566.076 608.256, 570.444 598.771, 573.613 597.278, 574.112 587.793, 577.281 578.309, 580.450 568.824, 583.619 564.094, 585.200 554.143, 586.189 544.192, 587.178 534.241, 588.167 524.290, 589.156 514.339, 590.146 512.000, 590.378 502.049, 589.389 492.098, 588.400 482.147, 587.411 472.196, 586.421 462.245, 585.432 459.906, 585.200 450.422, 582.030 440.937, 578.861 431.453, 575.692 426.722, 574.112 417.238, 570.943 415.744, 570.444 409.906, 566.076 403.612, 561.366 395.605, 555.375 387.598, 549.385 386.232, 548.362 382.537, 539.070 378.842, 529.778 375.875, 522.316 375.875, 532.316 375.875, 541.473 375.875, 551.473 375.875, 561.473 375.875, 571.473 375.875, 581.473 375.875, 591.473 375.875, 600.417 379.570, 609.709 383.265, 619.002 386.232, 626.464 394.239, 632.455 402.246, 638.445 410.253, 644.436 415.744, 648.545 425.229, 651.714 434.713, 654.883 444.198, 658.052 453.682, 661.221 459.906, 663.301 469.857, 664.290 479.808, 665.280 489.759, 666.269 499.710, 667.258 509.661, 668.247 512.000, 668.480 521.951, 667.490 531.902, 666.501 541.853, 665.512 551.804, 664.523 561.755, 663.534 564.094, 663.301 573.578, 660.132 583.063, 656.963 592.547, 653.794 602.032, 650.625 608.256, 648.545 " />
            <path fill="none" stroke-width="1.0" stroke-linecap="butt" stroke-opacity="0.5" stroke="currentColor" stroke-linejoin="round" d=" M 648.125, 600.417 644.430, 591.125 640.735, 581.832 637.768, 574.370 629.761, 568.379 621.754, 562.389 620.388, 561.366 614.094, 556.657 608.256, 552.289 598.771, 549.120 589.287, 545.951 579.802, 542.782 570.318, 539.613 564.094, 537.533 554.143, 536.544 544.192, 535.555 534.241, 534.565 524.290, 533.576 514.339, 532.587 512.000, 532.354 502.049, 533.344 492.098, 534.333 482.147, 535.322 472.196, 536.311 462.245, 537.300 459.906, 537.533 450.422, 540.702 440.937, 543.871 431.453, 547.040 421.968, 550.209 415.744, 552.289 409.906, 556.657 403.612, 561.366 395.605, 567.357 387.598, 573.348 386.232, 574.370 382.537, 583.662 378.842, 592.955 375.875, 600.417 " />
            <path fill="none" stroke-width="1.0" stroke-linecap="butt" stroke-opacity="0.5" stroke="currentColor" stroke-linejoin="round" d=" M 852.313, 600.417 848.618, 591.125 844.923, 581.832 841.228, 572.540 837.533, 563.248 833.838, 553.955 830.143, 544.663 826.420, 535.300 818.413, 529.309 810.406, 523.318 802.400, 517.327 794.393, 511.337 786.386, 505.346 778.379, 499.355 770.372, 493.364 762.365, 487.373 754.358, 481.383 752.640, 480.097 743.155, 476.928 733.671, 473.759 724.186, 470.590 714.702, 467.421 705.217, 464.252 695.733, 461.082 686.248, 457.913 676.764, 454.744 667.279, 451.575 657.794, 448.406 648.310, 445.237 642.234, 443.207 632.283, 442.218 622.332, 441.228 614.094, 440.409 604.143, 439.420 594.192, 438.431 584.241, 437.442 580.063, 437.026 574.920, 436.515 564.970, 435.526 555.019, 434.537 545.068, 433.548 535.117, 432.558 525.166, 431.569 515.215, 430.580 512.000, 430.260 502.049, 431.250 492.098, 432.239 482.147, 433.228 472.196, 434.217 462.245, 435.207 452.294, 436.196 449.080, 436.515 443.937, 437.026 433.986, 438.016 424.035, 439.005 414.085, 439.994 409.906, 440.409 399.955, 441.399 390.004, 442.388 381.766, 443.207 372.281, 446.376 362.796, 449.545 353.312, 452.714 343.827, 455.883 334.343, 459.052 324.858, 462.221 315.374, 465.391 305.889, 468.560 296.405, 471.729 286.920, 474.898 277.435, 478.067 271.360, 480.097 263.353, 486.088 255.346, 492.079 247.339, 498.069 239.332, 504.060 231.326, 510.051 223.319, 516.042 215.312, 522.033 207.305, 528.023 199.298, 534.014 197.580, 535.300 193.885, 544.592 190.190, 553.884 186.495, 563.177 182.800, 572.469 179.105, 581.761 175.410, 591.054 171.687, 600.417 " />
            <path fill="none" stroke-width="1.0" stroke-linecap="butt" stroke-opacity="0.5" stroke="currentColor" stroke-linejoin="round" d=" M 606.418, 404.280 596.467, 403.291 586.516, 402.301 576.565, 401.312 566.614, 400.323 560.373, 399.702 550.422, 398.713 540.471, 397.724 530.520, 396.735 520.569, 395.746 512.000, 394.894 502.049, 395.883 492.098, 396.872 482.147, 397.861 472.196, 398.851 463.627, 399.702 453.677, 400.692 443.726, 401.681 433.775, 402.670 423.824, 403.659 417.582, 404.280 " />
            <path fill="none" stroke-width="1.0" stroke-linecap="butt" stroke-opacity="0.5" stroke="currentColor" stroke-linejoin="round" d=" M 580.063, 522.316 576.368, 531.608 574.884, 535.339 566.877, 541.330 560.128, 546.380 550.643, 549.549 542.195, 552.372 538.047, 553.758 528.096, 554.747 518.145, 555.736 512.000, 556.347 502.049, 555.358 492.098, 554.368 485.953, 553.758 481.805, 552.372 472.321, 549.203 463.872, 546.380 455.865, 540.389 449.116, 535.339 445.421, 526.047 443.937, 522.316 " />
            <path fill="none" stroke-width="1.0" stroke-linecap="butt" stroke-opacity="0.5" stroke="currentColor" stroke-linejoin="round" d=" M 409.906, 522.316 413.601, 531.608 417.296, 540.900 417.674, 541.851 425.681, 547.841 433.688, 553.832 439.808, 558.412 448.651, 561.366 458.136, 564.535 467.620, 567.704 472.930, 569.479 482.881, 570.468 492.832, 571.457 502.783, 572.446 512.000, 573.362 521.951, 572.373 531.902, 571.384 541.853, 570.395 551.070, 569.479 560.555, 566.309 570.039, 563.140 575.349, 561.366 584.192, 558.412 592.199, 552.421 600.206, 546.430 606.326, 541.851 610.021, 532.558 613.716, 523.266 614.094, 522.316 " />
            <path fill="none" stroke-width="1.0" stroke-linecap="butt" stroke-opacity="0.5" stroke="currentColor" stroke-linejoin="round" d=" M 375.875, 522.316 379.570, 513.023 383.265, 503.731 386.232, 496.269 394.239, 490.278 402.246, 484.287 409.906, 478.555 412.155, 476.873 415.744, 474.188 425.229, 471.018 434.713, 467.849 443.937, 464.767 453.422, 461.598 459.906, 459.431 469.857, 458.442 479.808, 457.453 489.759, 456.464 495.091, 455.934 505.042, 454.945 512.000, 454.253 521.951, 455.242 528.909, 455.934 538.860, 456.923 548.811, 457.912 558.762, 458.901 564.094, 459.431 573.578, 462.601 580.063, 464.767 589.547, 467.936 599.032, 471.105 608.256, 474.188 611.845, 476.873 614.094, 478.555 622.101, 484.546 630.108, 490.537 637.768, 496.269 641.463, 505.561 645.158, 514.853 648.125, 522.316 " />
        </g>
    </g>
<g id="ViewLayer_Edges" inkscape:groupmode="lineset" inkscape:label="ViewLayer_Edges">
        <g inkscape:groupmode="layer" inkscape:label="fills" id="fills">
            <path fill_rule="evenodd" stroke="none" fill-opacity="0.5000" fill="#9b59b6" d=" M 606.326, 404.048 584.192, 387.487 551.070, 376.420 512.000, 372.536 472.930, 376.420 439.808, 387.487 417.674, 404.048 417.582, 404.280 381.766, 407.840 271.360, 444.730 197.580, 499.933 171.687, 565.050 171.687, 600.417 197.580, 665.534 271.360, 720.737 381.766, 757.627 512.000, 770.574 642.234, 757.627 752.640, 720.737 826.420, 665.534 852.313, 600.417 852.313, 565.050 826.420, 499.933 752.640, 444.730 642.234, 407.840 606.418, 404.280 606.326, 404.048  z" />
        </g>
        <g inkscape:groupmode="layer" id="strokes" inkscape:label="strokes">
            <path fill="none" stroke-width="1.0" stroke-linecap="butt" stroke-opacity="1.0" stroke="currentColor" stroke-linejoin="round" d=" M 580.063, 423.583 576.368, 432.876 574.920, 436.515 574.884, 436.607 568.680, 441.249 560.673, 447.240 560.128, 447.647 550.643, 450.817 541.159, 453.986 538.047, 455.025 528.909, 455.934 518.958, 456.923 512.000, 457.615 502.049, 456.626 495.091, 455.934 485.953, 455.025 476.469, 451.856 466.984, 448.687 463.872, 447.647 455.865, 441.657 455.320, 441.249 449.116, 436.607 449.080, 436.515 445.385, 427.223 443.937, 423.583 " />
            <path fill="none" stroke-width="1.0" stroke-linecap="butt" stroke-opacity="1.0" stroke="currentColor" stroke-linejoin="round" d=" M 580.063, 423.583 576.368, 414.291 574.884, 410.560 566.877, 404.569 560.373, 399.702 560.128, 399.519 550.643, 396.350 541.159, 393.181 538.047, 392.141 528.096, 391.152 518.145, 390.163 512.000, 389.552 502.049, 390.541 492.098, 391.531 485.953, 392.141 476.469, 395.310 466.984, 398.480 463.872, 399.519 463.627, 399.702 455.621, 405.693 449.116, 410.560 445.421, 419.852 443.937, 423.583 " />
            <path fill="none" stroke-width="1.0" stroke-linecap="butt" stroke-opacity="1.0" stroke="currentColor" stroke-linejoin="round" d=" M 409.906, 482.528 413.601, 491.820 417.296, 501.113 417.674, 502.063 418.153, 502.422 426.160, 508.413 434.167, 514.403 439.808, 518.624 443.937, 520.004 444.749, 520.275 454.233, 523.444 463.718, 526.613 472.930, 529.691 482.881, 530.680 492.832, 531.669 502.783, 532.659 512.000, 533.575 521.951, 532.586 531.902, 531.596 541.853, 530.607 551.070, 529.691 560.555, 526.522 570.039, 523.353 579.251, 520.275 580.063, 520.004 584.192, 518.624 592.199, 512.633 600.206, 506.642 605.847, 502.422 606.326, 502.063 610.021, 492.771 613.716, 483.478 614.094, 482.528 " />
            <path fill="none" stroke-width="1.0" stroke-linecap="butt" stroke-opacity="1.0" stroke="currentColor" stroke-linejoin="round" d=" M 614.094, 423.583 610.399, 432.876 606.704, 442.168 606.326, 443.119 598.319, 449.109 593.045, 453.056 585.038, 459.047 584.192, 459.679 580.063, 461.059 570.578, 464.228 561.094, 467.397 551.609, 470.566 551.070, 470.746 541.119, 471.736 531.168, 472.725 528.909, 472.949 518.958, 473.939 512.000, 474.630 502.049, 473.641 495.091, 472.949 485.140, 471.960 475.189, 470.971 472.930, 470.746 463.445, 467.577 453.961, 464.408 444.476, 461.239 443.937, 461.059 439.808, 459.679 431.801, 453.689 430.955, 453.056 422.948, 447.065 417.674, 443.119 413.979, 433.826 410.284, 424.534 409.906, 423.583 413.601, 414.291 417.296, 404.999 417.582, 404.280 417.674, 404.048 425.681, 398.057 433.688, 392.067 439.808, 387.487 449.293, 384.318 458.777, 381.149 468.262, 377.980 472.930, 376.420 482.881, 375.431 492.832, 374.442 502.783, 373.453 512.000, 372.536 521.951, 373.526 531.902, 374.515 541.853, 375.504 551.070, 376.420 560.555, 379.589 570.039, 382.759 579.524, 385.928 584.192, 387.487 592.199, 393.478 600.206, 399.469 606.326, 404.048 606.418, 404.280 610.113, 413.572 613.808, 422.864 614.094, 423.583 614.094, 433.583 614.094, 440.409 614.094, 450.409 614.094, 460.409 614.094, 470.409 614.094, 478.555 614.094, 482.528 " />
            <path fill="none" stroke-width="1.0" stroke-linecap="butt" stroke-opacity="1.0" stroke="currentColor" stroke-linejoin="round" d=" M 409.906, 423.583 409.906, 433.583 409.906, 440.409 409.906, 450.409 409.906, 460.409 409.906, 470.409 409.906, 478.555 409.906, 482.528 " />
            <path fill="none" stroke-width="1.0" stroke-linecap="butt" stroke-opacity="1.0" stroke="currentColor" stroke-linejoin="round" d=" M 417.582, 404.280 407.631, 405.269 397.680, 406.258 387.729, 407.247 381.766, 407.840 372.281, 411.009 362.797, 414.178 353.312, 417.347 343.827, 420.517 334.343, 423.686 324.858, 426.855 315.374, 430.024 305.889, 433.193 296.405, 436.362 286.920, 439.531 277.435, 442.700 271.360, 444.730 263.353, 450.721 255.346, 456.712 247.339, 462.703 239.332, 468.693 231.326, 474.684 223.319, 480.675 215.312, 486.666 207.305, 492.657 199.298, 498.648 197.580, 499.933 193.885, 509.225 190.190, 518.518 186.495, 527.810 182.800, 537.102 179.105, 546.395 175.410, 555.687 171.687, 565.050 171.687, 575.050 171.687, 585.050 171.687, 595.050 171.687, 600.417 175.382, 609.709 179.077, 619.002 182.772, 628.294 186.467, 637.586 190.162, 646.879 193.857, 656.171 197.580, 665.534 205.587, 671.525 213.594, 677.516 221.600, 683.507 229.607, 689.497 237.614, 695.488 245.621, 701.479 253.628, 707.470 261.635, 713.461 269.642, 719.451 271.360, 720.737 280.845, 723.906 290.329, 727.075 299.814, 730.244 309.298, 733.413 318.783, 736.583 328.267, 739.752 337.752, 742.921 347.236, 746.090 356.721, 749.259 366.206, 752.428 375.690, 755.597 381.766, 757.627 391.717, 758.616 401.668, 759.606 411.618, 760.595 421.569, 761.584 431.520, 762.573 441.471, 763.562 451.422, 764.552 461.373, 765.541 471.324, 766.530 481.275, 767.519 491.226, 768.508 501.177, 769.498 512.000, 770.574 521.951, 769.584 531.902, 768.595 541.853, 767.606 551.804, 766.617 561.755, 765.628 571.706, 764.638 581.657, 763.649 591.608, 762.660 601.559, 761.671 611.510, 760.681 621.460, 759.692 631.411, 758.703 642.234, 757.627 651.719, 754.458 661.203, 751.289 670.688, 748.120 680.173, 744.951 689.657, 741.782 699.142, 738.613 708.626, 735.443 718.111, 732.274 727.595, 729.105 737.080, 725.936 746.565, 722.767 752.640, 720.737 760.647, 714.746 768.654, 708.755 776.661, 702.765 784.668, 696.774 792.674, 690.783 800.681, 684.792 808.688, 678.801 816.695, 672.811 824.702, 666.820 826.420, 665.534 830.115, 656.242 833.810, 646.950 837.505, 637.657 841.200, 628.365 844.895, 619.073 848.590, 609.780 852.313, 600.417 852.313, 590.417 852.313, 580.417 852.313, 570.417 852.313, 565.050 848.618, 555.758 844.923, 546.466 841.228, 537.173 837.533, 527.881 833.838, 518.589 830.143, 509.296 826.420, 499.933 818.413, 493.942 810.406, 487.952 802.400, 481.961 794.393, 475.970 786.386, 469.979 778.379, 463.988 770.372, 457.997 762.365, 452.007 754.358, 446.016 752.640, 444.730 743.155, 441.561 733.671, 438.392 724.186, 435.223 714.702, 432.054 705.217, 428.885 695.733, 425.716 686.248, 422.547 676.764, 419.378 667.279, 416.208 657.794, 413.039 648.310, 409.870 642.234, 407.840 632.283, 406.851 622.332, 405.862 612.382, 404.873 606.418, 404.280 " />
            <path fill="none" stroke-width="1.0" stroke-linecap="butt" stroke-opacity="1.0" stroke="currentColor" stroke-linejoin="round" d=" M 852.313, 565.050 848.618, 574.343 844.923, 583.635 841.228, 592.927 837.533, 602.220 833.838, 611.512 830.143, 620.804 826.420, 630.168 818.413, 636.158 810.406, 642.149 802.400, 648.140 794.393, 654.131 786.386, 660.122 778.379, 666.112 770.372, 672.103 762.365, 678.094 754.358, 684.085 752.640, 685.370 743.155, 688.539 733.671, 691.708 724.186, 694.878 714.702, 698.047 705.217, 701.216 695.733, 704.385 686.248, 707.554 676.764, 710.723 667.279, 713.892 657.794, 717.061 648.310, 720.230 642.234, 722.260 632.283, 723.250 622.332, 724.239 612.382, 725.228 602.431, 726.217 592.480, 727.206 582.529, 728.196 572.578, 729.185 562.627, 730.174 552.676, 731.163 542.725, 732.153 532.774, 733.142 522.823, 734.131 512.000, 735.207 502.049, 734.218 492.098, 733.228 482.147, 732.239 472.196, 731.250 462.245, 730.261 452.294, 729.272 442.343, 728.282 432.392, 727.293 422.441, 726.304 412.490, 725.315 402.540, 724.326 392.589, 723.336 381.766, 722.260 372.281, 719.091 362.797, 715.922 353.312, 712.753 343.827, 709.584 334.343, 706.415 324.858, 703.246 315.374, 700.077 305.889, 696.908 296.405, 693.739 286.920, 690.569 277.435, 687.400 271.360, 685.370 263.353, 679.379 255.346, 673.389 247.339, 667.398 239.332, 661.407 231.326, 655.416 223.319, 649.425 215.312, 643.435 207.305, 637.444 199.298, 631.453 197.580, 630.167 193.885, 620.875 190.190, 611.583 186.495, 602.291 182.800, 592.998 179.105, 583.706 175.410, 574.414 171.687, 565.050 " />
        </g>
    </g>
    </svg>