<?xml version='1.0' encoding='ascii'?>
<svg xmlns="http://www.w3.org/2000/svg" xmlns:inkscape="http://www.inkscape.org/namespaces/inkscape" version="1.1" width="1024" height="1024">
    <g id="ViewLayer_Edges" inkscape:groupmode="lineset" inkscape:label="ViewLayer_Edges">
        <g xmlns:inkscape="http://www.inkscape.org/namespaces/inkscape" inkscape:groupmode="layer" inkscape:label="fills" id="fills">
            <path fill_rule="evenodd" stroke="none" fill-opacity="1.0" fill="#9b59b6" d=" M 606.326, 404.048 584.192, 387.487 551.070, 376.420 512.000, 372.536 472.930, 376.420 439.808, 387.487 417.674, 404.048 417.582, 404.280 381.766, 407.840 271.360, 444.730 197.580, 499.933 171.687, 565.050 171.687, 600.417 197.580, 665.534 271.360, 720.737 381.766, 757.627 512.000, 770.574 642.234, 757.627 752.640, 720.737 826.420, 665.534 852.313, 600.417 852.313, 565.050 826.420, 499.933 752.640, 444.730 642.234, 407.840 606.418, 404.280 606.326, 404.048  z" />
        </g>
        <g inkscape:groupmode="layer" id="strokes" inkscape:label="strokes">
            <path fill="none" stroke-width="1.0" stroke-linecap="butt" stroke-opacity="1.0" stroke="currentColor" stroke-linejoin="round" d=" M 580.063, 423.583 576.368, 432.876 574.920, 436.515 574.884, 436.607 568.680, 441.249 560.673, 447.240 560.128, 447.647 550.643, 450.817 541.159, 453.986 538.047, 455.025 528.909, 455.934 518.958, 456.923 512.000, 457.615 502.049, 456.626 495.091, 455.934 485.953, 455.025 476.469, 451.856 466.984, 448.687 463.872, 447.647 455.865, 441.657 455.320, 441.249 449.116, 436.607 449.080, 436.515 445.385, 427.223 443.937, 423.583 " />
            <path fill="none" stroke-width="1.0" stroke-linecap="butt" stroke-opacity="1.0" stroke="currentColor" stroke-linejoin="round" d=" M 580.063, 423.583 576.368, 414.291 574.884, 410.560 566.877, 404.569 560.373, 399.702 560.128, 399.519 550.643, 396.350 541.159, 393.181 538.047, 392.141 528.096, 391.152 518.145, 390.163 512.000, 389.552 502.049, 390.541 492.098, 391.531 485.953, 392.141 476.469, 395.310 466.984, 398.480 463.872, 399.519 463.627, 399.702 455.621, 405.693 449.116, 410.560 445.421, 419.852 443.937, 423.583 " />
            <path fill="none" stroke-width="1.0" stroke-linecap="butt" stroke-opacity="1.0" stroke="currentColor" stroke-linejoin="round" d=" M 409.906, 482.528 413.601, 491.820 417.296, 501.113 417.674, 502.063 418.153, 502.422 426.160, 508.413 434.167, 514.403 439.808, 518.624 443.937, 520.004 444.749, 520.275 454.233, 523.444 463.718, 526.613 472.930, 529.691 482.881, 530.680 492.832, 531.669 502.783, 532.659 512.000, 533.575 521.951, 532.586 531.902, 531.596 541.853, 530.607 551.070, 529.691 560.555, 526.522 570.039, 523.353 579.251, 520.275 580.063, 520.004 584.192, 518.624 592.199, 512.633 600.206, 506.642 605.847, 502.422 606.326, 502.063 610.021, 492.771 613.716, 483.478 614.094, 482.528 " />
            <path fill="none" stroke-width="1.0" stroke-linecap="butt" stroke-opacity="1.0" stroke="currentColor" stroke-linejoin="round" d=" M 614.094, 423.583 610.399, 432.876 606.704, 442.168 606.326, 443.119 598.319, 449.109 593.045, 453.056 585.038, 459.047 584.192, 459.679 580.063, 461.059 570.578, 464.228 561.094, 467.397 551.609, 470.566 551.070, 470.746 541.119, 471.736 531.168, 472.725 528.909, 472.949 518.958, 473.939 512.000, 474.630 502.049, 473.641 495.091, 472.949 485.140, 471.960 475.189, 470.971 472.930, 470.746 463.445, 467.577 453.961, 464.408 444.476, 461.239 443.937, 461.059 439.808, 459.679 431.801, 453.689 430.955, 453.056 422.948, 447.065 417.674, 443.119 413.979, 433.826 410.284, 424.534 409.906, 423.583 413.601, 414.291 417.296, 404.999 417.582, 404.280 417.674, 404.048 425.681, 398.057 433.688, 392.067 439.808, 387.487 449.293, 384.318 458.777, 381.149 468.262, 377.980 472.930, 376.420 482.881, 375.431 492.832, 374.442 502.783, 373.453 512.000, 372.536 521.951, 373.526 531.902, 374.515 541.853, 375.504 551.070, 376.420 560.555, 379.589 570.039, 382.759 579.524, 385.928 584.192, 387.487 592.199, 393.478 600.206, 399.469 606.326, 404.048 606.418, 404.280 610.113, 413.572 613.808, 422.864 614.094, 423.583 614.094, 433.583 614.094, 440.409 614.094, 450.409 614.094, 460.409 614.094, 470.409 614.094, 478.555 614.094, 482.528 " />
            <path fill="none" stroke-width="1.0" stroke-linecap="butt" stroke-opacity="1.0" stroke="currentColor" stroke-linejoin="round" d=" M 409.906, 423.583 409.906, 433.583 409.906, 440.409 409.906, 450.409 409.906, 460.409 409.906, 470.409 409.906, 478.555 409.906, 482.528 " />
            <path fill="none" stroke-width="1.0" stroke-linecap="butt" stroke-opacity="1.0" stroke="currentColor" stroke-linejoin="round" d=" M 417.582, 404.280 407.631, 405.269 397.680, 406.258 387.729, 407.247 381.766, 407.840 372.281, 411.009 362.797, 414.178 353.312, 417.347 343.827, 420.517 334.343, 423.686 324.858, 426.855 315.374, 430.024 305.889, 433.193 296.405, 436.362 286.920, 439.531 277.435, 442.700 271.360, 444.730 263.353, 450.721 255.346, 456.712 247.339, 462.703 239.332, 468.693 231.326, 474.684 223.319, 480.675 215.312, 486.666 207.305, 492.657 199.298, 498.648 197.580, 499.933 193.885, 509.225 190.190, 518.518 186.495, 527.810 182.800, 537.102 179.105, 546.395 175.410, 555.687 171.687, 565.050 171.687, 575.050 171.687, 585.050 171.687, 595.050 171.687, 600.417 175.382, 609.709 179.077, 619.002 182.772, 628.294 186.467, 637.586 190.162, 646.879 193.857, 656.171 197.580, 665.534 205.587, 671.525 213.594, 677.516 221.600, 683.507 229.607, 689.497 237.614, 695.488 245.621, 701.479 253.628, 707.470 261.635, 713.461 269.642, 719.451 271.360, 720.737 280.845, 723.906 290.329, 727.075 299.814, 730.244 309.298, 733.413 318.783, 736.583 328.267, 739.752 337.752, 742.921 347.236, 746.090 356.721, 749.259 366.206, 752.428 375.690, 755.597 381.766, 757.627 391.717, 758.616 401.668, 759.606 411.618, 760.595 421.569, 761.584 431.520, 762.573 441.471, 763.562 451.422, 764.552 461.373, 765.541 471.324, 766.530 481.275, 767.519 491.226, 768.508 501.177, 769.498 512.000, 770.574 521.951, 769.584 531.902, 768.595 541.853, 767.606 551.804, 766.617 561.755, 765.628 571.706, 764.638 581.657, 763.649 591.608, 762.660 601.559, 761.671 611.510, 760.681 621.460, 759.692 631.411, 758.703 642.234, 757.627 651.719, 754.458 661.203, 751.289 670.688, 748.120 680.173, 744.951 689.657, 741.782 699.142, 738.613 708.626, 735.443 718.111, 732.274 727.595, 729.105 737.080, 725.936 746.565, 722.767 752.640, 720.737 760.647, 714.746 768.654, 708.755 776.661, 702.765 784.668, 696.774 792.674, 690.783 800.681, 684.792 808.688, 678.801 816.695, 672.811 824.702, 666.820 826.420, 665.534 830.115, 656.242 833.810, 646.950 837.505, 637.657 841.200, 628.365 844.895, 619.073 848.590, 609.780 852.313, 600.417 852.313, 590.417 852.313, 580.417 852.313, 570.417 852.313, 565.050 848.618, 555.758 844.923, 546.466 841.228, 537.173 837.533, 527.881 833.838, 518.589 830.143, 509.296 826.420, 499.933 818.413, 493.942 810.406, 487.952 802.400, 481.961 794.393, 475.970 786.386, 469.979 778.379, 463.988 770.372, 457.997 762.365, 452.007 754.358, 446.016 752.640, 444.730 743.155, 441.561 733.671, 438.392 724.186, 435.223 714.702, 432.054 705.217, 428.885 695.733, 425.716 686.248, 422.547 676.764, 419.378 667.279, 416.208 657.794, 413.039 648.310, 409.870 642.234, 407.840 632.283, 406.851 622.332, 405.862 612.382, 404.873 606.418, 404.280 " />
            <path fill="none" stroke-width="1.0" stroke-linecap="butt" stroke-opacity="1.0" stroke="currentColor" stroke-linejoin="round" d=" M 852.313, 565.050 848.618, 574.343 844.923, 583.635 841.228, 592.927 837.533, 602.220 833.838, 611.512 830.143, 620.804 826.420, 630.168 818.413, 636.158 810.406, 642.149 802.400, 648.140 794.393, 654.131 786.386, 660.122 778.379, 666.112 770.372, 672.103 762.365, 678.094 754.358, 684.085 752.640, 685.370 743.155, 688.539 733.671, 691.708 724.186, 694.878 714.702, 698.047 705.217, 701.216 695.733, 704.385 686.248, 707.554 676.764, 710.723 667.279, 713.892 657.794, 717.061 648.310, 720.230 642.234, 722.260 632.283, 723.250 622.332, 724.239 612.382, 725.228 602.431, 726.217 592.480, 727.206 582.529, 728.196 572.578, 729.185 562.627, 730.174 552.676, 731.163 542.725, 732.153 532.774, 733.142 522.823, 734.131 512.000, 735.207 502.049, 734.218 492.098, 733.228 482.147, 732.239 472.196, 731.250 462.245, 730.261 452.294, 729.272 442.343, 728.282 432.392, 727.293 422.441, 726.304 412.490, 725.315 402.540, 724.326 392.589, 723.336 381.766, 722.260 372.281, 719.091 362.797, 715.922 353.312, 712.753 343.827, 709.584 334.343, 706.415 324.858, 703.246 315.374, 700.077 305.889, 696.908 296.405, 693.739 286.920, 690.569 277.435, 687.400 271.360, 685.370 263.353, 679.379 255.346, 673.389 247.339, 667.398 239.332, 661.407 231.326, 655.416 223.319, 649.425 215.312, 643.435 207.305, 637.444 199.298, 631.453 197.580, 630.167 193.885, 620.875 190.190, 611.583 186.495, 602.291 182.800, 592.998 179.105, 583.706 175.410, 574.414 171.687, 565.050 " />
        </g>
    </g>
</svg>
