<?xml version='1.0' encoding='ascii'?>
<svg xmlns="http://www.w3.org/2000/svg" version="1.1" width="1024" height="1024">
    <g id="ViewLayer_Edges" xmlns:inkscape="http://www.inkscape.org/namespaces/inkscape" inkscape:groupmode="lineset" inkscape:label="ViewLayer_Edges">
        <g xmlns:inkscape="http://www.inkscape.org/namespaces/inkscape" inkscape:groupmode="layer" id="strokes" inkscape:label="strokes">
            <path fill="none" stroke-width="4.0" stroke-linecap="butt" stroke-opacity="1.0" stroke="rgb(0, 0, 0)" stroke-linejoin="round" d=" M 284.153, 443.885 292.227, 449.785 300.301, 455.685 308.375, 461.585 315.833, 467.035 321.930, 474.961 328.017, 482.875 328.396, 483.670 " />
            <path fill="none" stroke-width="4.0" stroke-linecap="butt" stroke-opacity="1.0" stroke="rgb(0, 0, 0)" stroke-linejoin="round" d=" M 340.201, 477.767 331.257, 482.239 328.396, 483.670 320.706, 487.515 310.894, 489.444 301.082, 491.373 291.270, 493.303 284.153, 494.702 284.153, 504.702 284.153, 512.609 284.153, 522.609 284.153, 530.516 284.153, 540.264 293.650, 543.397 303.146, 546.531 312.643, 549.664 320.706, 552.325 330.570, 553.969 335.327, 554.762 345.191, 556.406 355.055, 558.050 357.259, 558.417 366.203, 562.889 375.148, 567.362 376.754, 568.165 384.946, 573.899 393.139, 579.634 401.123, 585.223 408.593, 591.871 416.062, 598.519 423.532, 605.168 431.002, 611.816 438.472, 618.464 444.986, 624.262 449.130, 633.363 453.274, 642.464 457.418, 651.564 461.562, 660.665 465.707, 669.766 466.918, 672.427 467.765, 682.391 468.612, 692.355 469.355, 701.097 478.299, 705.569 479.102, 705.970 489.095, 705.596 493.723, 705.423 502.806, 701.239 511.889, 697.054 520.971, 692.870 527.839, 689.706 537.497, 687.111 547.154, 684.516 557.082, 681.848 567.061, 681.197 577.039, 680.546 587.018, 679.896 596.997, 679.245 606.976, 678.594 613.130, 678.193 622.891, 680.364 632.652, 682.536 642.414, 684.708 652.175, 686.879 661.867, 689.035 671.092, 692.895 680.317, 696.755 689.542, 700.615 698.767, 704.474 708.167, 708.407 718.167, 708.407 728.167, 708.407 732.536, 708.407 739.044, 700.815 739.846, 699.878 741.130, 689.961 742.414, 680.044 743.698, 670.127 744.720, 662.230 751.571, 654.945 758.422, 647.661 765.273, 640.376 772.124, 633.092 778.975, 625.807 781.273, 623.363 791.090, 621.461 800.768, 619.585 810.643, 618.011 820.518, 616.437 830.394, 614.862 839.758, 613.370 849.244, 610.207 854.379, 608.496 854.379, 598.496 854.379, 590.589 854.379, 580.589 854.379, 572.682 851.942, 564.153 842.386, 561.206 832.830, 558.259 823.274, 555.312 813.718, 552.366 808.078, 550.627 800.167, 544.510 792.256, 538.394 784.344, 532.278 776.399, 526.135 774.928, 516.244 774.220, 511.478 772.749, 501.586 771.526, 493.360 " />
            <path fill="none" stroke-width="4.0" stroke-linecap="butt" stroke-opacity="1.0" stroke="rgb(0, 0, 0)" stroke-linejoin="round" d=" M 340.201, 471.909 331.257, 467.437 322.313, 462.964 313.368, 458.492 304.424, 454.020 295.480, 449.548 286.536, 445.076 277.591, 440.604 268.647, 436.132 259.703, 431.659 250.758, 427.187 241.814, 422.715 232.870, 418.243 223.926, 413.771 220.795, 412.206 229.739, 416.678 238.684, 421.150 247.628, 425.622 256.572, 430.094 265.516, 434.566 274.461, 439.038 283.405, 443.511 284.153, 443.885 " />
            <path fill="none" stroke-width="4.0" stroke-linecap="butt" stroke-opacity="1.0" stroke="rgb(0, 0, 0)" stroke-linejoin="round" d=" M 284.153, 540.264 284.153, 530.264 284.153, 522.357 284.153, 512.357 284.153, 504.449 " />
            <path fill="none" stroke-width="4.0" stroke-linecap="butt" stroke-opacity="1.0" stroke="rgb(0, 0, 0)" stroke-linejoin="round" d=" M 493.723, 705.423 493.723, 695.423 493.723, 690.500 493.723, 680.500 493.723, 675.577 " />
            <path fill="none" stroke-width="4.0" stroke-linecap="butt" stroke-opacity="1.0" stroke="rgb(0, 0, 0)" stroke-linejoin="round" d=" M 732.536, 708.407 732.536, 698.407 732.536, 690.500 732.536, 680.500 732.536, 672.593 " />
            <path fill="none" stroke-width="4.0" stroke-linecap="butt" stroke-opacity="1.0" stroke="rgb(0, 0, 0)" stroke-linejoin="round" d=" M 774.220, 511.478 778.457, 502.420 781.273, 496.400 781.273, 486.400 781.273, 478.493 781.273, 468.493 781.273, 460.586 778.836, 454.494 769.349, 451.332 764.215, 449.620 754.307, 448.267 744.399, 446.914 734.491, 445.561 724.583, 444.208 714.675, 442.855 704.767, 441.502 700.857, 440.968 691.459, 437.548 682.062, 434.128 672.665, 430.709 663.268, 427.289 656.993, 425.005 650.336, 417.544 643.678, 410.082 637.020, 402.620 630.363, 395.159 627.751, 392.231 624.759, 382.689 621.768, 373.147 618.777, 363.604 615.785, 354.062 615.566, 353.364 608.256, 349.709 598.508, 347.272 588.680, 349.118 578.852, 350.964 569.024, 352.810 559.196, 354.656 549.368, 356.502 539.539, 358.348 529.711, 360.194 519.883, 362.040 510.055, 363.886 508.345, 364.207 498.404, 365.293 488.463, 366.379 478.522, 367.465 468.581, 368.551 458.640, 369.637 448.699, 370.723 442.549, 371.394 433.270, 367.666 423.991, 363.938 414.712, 360.210 405.433, 356.481 396.154, 352.753 386.875, 349.025 377.596, 345.297 376.754, 344.958 367.003, 342.742 357.251, 340.526 347.500, 338.310 337.749, 336.093 327.997, 333.877 323.143, 332.774 314.199, 328.302 305.255, 323.830 303.648, 323.026 296.188, 321.113 289.863, 323.127 280.919, 327.599 271.975, 332.072 263.031, 336.544 254.086, 341.016 245.142, 345.488 236.198, 349.960 227.254, 354.432 218.309, 358.904 209.365, 363.377 207.010, 364.554 202.784, 370.186 201.300, 378.582 202.784, 388.461 206.724, 397.652 207.010, 398.320 213.053, 406.287 213.334, 406.658 220.795, 412.206 " />
            <path fill="none" stroke-width="4.0" stroke-linecap="butt" stroke-opacity="1.0" stroke="rgb(0, 0, 0)" stroke-linejoin="round" d=" M 303.648, 342.521 312.592, 346.993 321.537, 351.466 322.432, 351.913 331.376, 356.385 340.320, 360.857 349.265, 365.329 358.209, 369.802 367.153, 374.274 371.880, 376.637 362.936, 372.165 353.992, 367.693 345.048, 363.221 336.103, 358.749 332.891, 357.142 323.946, 352.670 322.432, 351.913 313.487, 347.441 304.543, 342.969 295.599, 338.497 286.655, 334.025 284.865, 333.130 284.153, 332.774 284.865, 333.130 293.809, 337.602 302.753, 342.074 303.648, 342.521 " />
            <path fill="none" stroke-width="4.0" stroke-linecap="butt" stroke-opacity="1.0" stroke="rgb(0, 0, 0)" stroke-linejoin="round" d=" M 220.795, 364.453 229.739, 368.925 238.684, 373.397 240.290, 374.201 249.234, 378.673 258.178, 383.145 267.123, 387.617 275.339, 391.725 284.283, 396.197 289.027, 398.569 297.971, 403.041 306.916, 407.513 315.860, 411.986 317.285, 412.698 326.229, 417.170 335.173, 421.642 344.118, 426.114 345.075, 426.593 " />
            <path fill="none" stroke-width="4.0" stroke-linecap="butt" stroke-opacity="1.0" stroke="rgb(0, 0, 0)" stroke-linejoin="round" d=" M 328.017, 435.122 336.961, 430.650 345.075, 426.593 354.019, 422.121 360.681, 418.790 360.681, 418.790 364.570, 416.846 " />
            <path fill="none" stroke-width="4.0" stroke-linecap="butt" stroke-opacity="1.0" stroke="rgb(0, 0, 0)" stroke-linejoin="round" d=" M 364.570, 416.846 355.625, 412.373 346.681, 407.901 337.737, 403.429 332.891, 401.006 323.946, 396.534 315.002, 392.062 306.058, 387.590 297.113, 383.117 294.834, 381.978 289.027, 379.074 288.042, 378.582 284.153, 376.637 275.209, 372.165 266.265, 367.693 257.321, 363.221 248.376, 358.749 240.290, 354.706 " />
            <path fill="none" stroke-width="4.0" stroke-linecap="butt" stroke-opacity="1.0" stroke="rgb(0, 0, 0)" stroke-linejoin="round" d=" M 345.075, 426.593 354.019, 422.121 360.681, 418.790 360.681, 418.790 364.570, 416.846 355.625, 412.373 346.681, 407.901 337.737, 403.429 332.891, 401.006 323.946, 396.534 315.002, 392.062 306.058, 387.590 297.113, 383.117 294.834, 381.978 289.027, 379.074 288.042, 378.582 284.153, 376.637 275.209, 372.165 266.265, 367.693 257.321, 363.221 248.376, 358.749 240.290, 354.706 231.346, 359.178 222.401, 363.650 220.795, 364.453 229.739, 368.925 238.684, 373.397 240.290, 374.201 249.234, 378.673 258.178, 383.145 267.123, 387.617 275.339, 391.725 284.153, 396.132 289.027, 398.569 297.971, 403.041 306.916, 407.513 315.860, 411.986 317.285, 412.698 326.229, 417.170 335.173, 421.642 344.118, 426.114 345.075, 426.593 " />
            <path fill="none" stroke-width="4.0" stroke-linecap="butt" stroke-opacity="1.0" stroke="rgb(0, 0, 0)" stroke-linejoin="round" d=" M 332.891, 357.142 323.946, 361.615 322.103, 362.536 313.159, 367.008 304.950, 371.113 304.633, 371.271 295.689, 375.743 289.027, 379.074 289.027, 379.074 " />
            <path fill="none" stroke-width="4.0" stroke-linecap="butt" stroke-opacity="1.0" stroke="rgb(0, 0, 0)" stroke-linejoin="round" d=" M 284.153, 396.132 292.227, 402.032 300.301, 407.933 308.375, 413.833 315.833, 419.282 321.930, 427.209 328.017, 435.122 332.316, 444.151 335.017, 449.822 335.017, 449.822 339.316, 458.850 340.201, 460.709 340.201, 470.709 340.201, 471.910 340.201, 471.911 340.201, 476.782 " />
            <path fill="none" stroke-width="4.0" stroke-linecap="butt" stroke-opacity="1.0" stroke="rgb(0, 0, 0)" stroke-linejoin="round" d=" M 284.153, 494.702 284.153, 504.449 294.153, 504.483 304.153, 504.517 314.153, 504.550 320.706, 504.573 330.570, 506.217 335.327, 507.009 339.870, 507.767 340.201, 507.822 350.065, 509.466 357.259, 510.665 366.203, 515.137 375.148, 519.609 376.754, 520.412 384.946, 526.147 393.139, 531.881 401.123, 537.470 408.198, 544.537 415.273, 551.604 422.348, 558.671 429.423, 565.739 436.498, 572.806 443.573, 579.873 444.986, 581.284 448.888, 590.492 452.791, 599.699 456.693, 608.906 460.595, 618.113 464.498, 627.320 466.918, 633.031 467.671, 643.002 468.425, 652.974 469.178, 662.946 469.355, 665.282 478.299, 669.754 479.102, 670.156 488.478, 673.633 493.723, 675.577 503.663, 674.477 513.602, 673.376 523.541, 672.275 527.839, 671.799 537.819, 671.154 547.798, 670.510 557.082, 669.910 567.061, 669.259 577.039, 668.608 587.018, 667.957 596.997, 667.307 606.976, 666.656 613.130, 666.255 623.127, 666.030 633.125, 665.805 643.122, 665.581 653.120, 665.356 661.867, 665.159 671.740, 666.744 681.614, 668.330 691.487, 669.915 701.361, 671.500 708.167, 672.593 718.167, 672.593 728.167, 672.593 732.536, 672.593 739.044, 665.000 739.846, 664.064 741.709, 654.239 743.571, 644.414 744.720, 638.354 752.771, 632.422 760.822, 626.491 768.873, 620.560 776.924, 614.629 781.273, 611.425 789.058, 605.149 796.843, 598.873 800.768, 595.709 809.833, 591.488 818.899, 587.267 827.965, 583.046 837.030, 578.825 839.758, 577.555 849.244, 574.393 854.379, 572.682 " />
            <path fill="none" stroke-width="4.0" stroke-linecap="butt" stroke-opacity="1.0" stroke="rgb(0, 0, 0)" stroke-linejoin="round" d=" M 771.526, 493.360 774.376, 483.775 777.227, 474.190 780.078, 464.605 781.273, 460.586 " />
            <path fill="none" stroke-width="4.0" stroke-linecap="butt" stroke-opacity="1.0" stroke="rgb(0, 0, 0)" stroke-linejoin="round" d=" M 240.290, 398.077 239.441, 402.883 " />
            <path fill="none" stroke-width="4.0" stroke-linecap="butt" stroke-opacity="1.0" stroke="rgb(0, 0, 0)" stroke-linejoin="round" d=" M 238.806, 406.472 234.580, 412.105 228.256, 414.119 " />
            <path fill="none" stroke-width="4.0" stroke-linecap="butt" stroke-opacity="1.0" stroke="rgb(0, 0, 0)" stroke-linejoin="round" d=" M 207.010, 364.554 213.334, 362.540 220.795, 364.453 " />
            <path fill="none" stroke-width="4.0" stroke-linecap="butt" stroke-opacity="1.0" stroke="rgb(0, 0, 0)" stroke-linejoin="round" d=" M 228.256, 370.000 234.299, 377.968 234.580, 378.339 " />
            <path fill="none" stroke-width="4.0" stroke-linecap="butt" stroke-opacity="1.0" stroke="rgb(0, 0, 0)" stroke-linejoin="round" d=" M 289.027, 398.569 289.027, 398.569 " />
            <path fill="none" stroke-width="4.0" stroke-linecap="butt" stroke-opacity="1.0" stroke="rgb(0, 0, 0)" stroke-linejoin="round" d=" M 322.432, 351.913 322.432, 351.913 " />
            <path fill="none" stroke-width="4.0" stroke-linecap="butt" stroke-opacity="1.0" stroke="rgb(0, 0, 0)" stroke-linejoin="round" d=" M 317.285, 412.698 317.285, 412.698 " />
            <path fill="none" stroke-width="4.0" stroke-linecap="butt" stroke-opacity="1.0" stroke="rgb(0, 0, 0)" stroke-linejoin="round" d=" M 340.201, 476.782 340.201, 477.767 " />
        </g>
    </g>
</svg>
