<?xml version='1.0' encoding='ascii'?>
<svg xmlns="http://www.w3.org/2000/svg" xmlns:inkscape="http://www.inkscape.org/namespaces/inkscape" version="1.1" width="1024" height="1024">
    <g id="ViewLayer_Edges" inkscape:groupmode="lineset" inkscape:label="ViewLayer_Edges">
        <g xmlns:inkscape="http://www.inkscape.org/namespaces/inkscape" inkscape:groupmode="layer" inkscape:label="fills" id="fills">
            <path fill_rule="evenodd" stroke="none" fill-opacity="1.0" fill="yellow" d=" M 784.250, 692.518 784.250, 641.825 826.420, 610.274 852.313, 545.156 852.313, 456.740 826.420, 391.622 752.640, 336.420 712.867, 323.130 700.652, 292.412 656.384, 259.290 590.141, 237.156 512.000, 229.389 433.859, 237.156 367.616, 259.290 323.348, 292.412 311.133, 323.130 271.360, 336.420 197.580, 391.622 171.687, 456.740 171.687, 545.156 197.580, 610.274 239.749, 641.825 239.749, 692.518 260.464, 744.611 319.488, 788.774 407.812, 818.286 512.000, 828.643 616.188, 818.286 704.512, 788.774 763.536, 744.612 784.250, 692.518  z M 714.723, 453.056 716.188, 456.740 715.913, 457.431 700.652, 495.810 693.785, 500.948 656.384, 528.932 590.141, 551.066 524.278, 557.613 512.000, 558.834 499.722, 557.613 433.859, 551.066 367.616, 528.932 330.215, 500.948 323.348, 495.810 308.087, 457.431 307.812, 456.740 309.277, 453.056 310.345, 455.741 323.348, 488.442 335.139, 497.264 367.616, 521.564 433.859, 543.698 512.000, 551.465 590.141, 543.698 656.384, 521.564 688.861, 497.264 700.652, 488.442 713.655, 455.741 714.723, 453.056 716.188, 449.372  z  M 307.812, 449.372 309.277, 453.056  z" />
        </g>
        <g inkscape:groupmode="layer" id="strokes" inkscape:label="strokes">
            <path fill="none" stroke-width="0.5" stroke-linecap="butt" stroke-opacity="1.0" stroke="currentColor" stroke-linejoin="round" d=" M 239.749, 641.825 239.749, 651.825 239.749, 661.825 239.749, 671.825 239.749, 681.825 239.749, 691.825 239.749, 692.518 243.444, 701.810 247.139, 711.102 250.834, 720.395 254.529, 729.687 258.224, 738.979 260.464, 744.611 268.471, 750.602 276.478, 756.593 284.484, 762.584 292.491, 768.575 300.498, 774.565 308.505, 780.556 316.512, 786.547 319.488, 788.774 328.973, 791.943 338.457, 795.112 347.942, 798.281 357.426, 801.450 366.911, 804.619 376.395, 807.788 385.880, 810.957 395.364, 814.127 404.849, 817.296 407.812, 818.286 417.763, 819.275 427.714, 820.264 437.665, 821.253 447.616, 822.243 457.567, 823.232 467.518, 824.221 477.469, 825.210 487.420, 826.199 497.371, 827.189 507.322, 828.178 512.000, 828.643 521.951, 827.654 531.902, 826.665 541.853, 825.675 551.804, 824.686 561.755, 823.697 571.706, 822.708 581.657, 821.718 591.608, 820.729 601.559, 819.740 611.510, 818.751 616.188, 818.286 625.672, 815.117 635.157, 811.948 644.641, 808.779 654.126, 805.609 663.610, 802.440 673.095, 799.271 682.579, 796.102 692.064, 792.933 701.549, 789.764 704.512, 788.774 712.519, 782.783 720.526, 776.792 728.533, 770.801 736.540, 764.811 744.547, 758.820 752.553, 752.829 760.560, 746.838 763.536, 744.612 767.231, 735.319 770.926, 726.027 774.621, 716.735 778.316, 707.442 782.011, 698.150 784.250, 692.518 784.250, 682.518 784.250, 672.518 784.250, 662.518 784.250, 652.518 784.250, 642.518 784.250, 641.825 " />
            <path fill="none" stroke-width="0.5" stroke-linecap="butt" stroke-opacity="1.0" stroke="currentColor" stroke-linejoin="round" d=" M 311.133, 323.130 301.649, 326.299 292.164, 329.468 282.680, 332.637 273.195, 335.806 271.360, 336.420 263.353, 342.410 255.346, 348.401 247.339, 354.392 239.332, 360.383 231.326, 366.374 223.319, 372.364 215.312, 378.355 207.305, 384.346 199.298, 390.337 197.580, 391.622 193.885, 400.915 190.190, 410.207 186.495, 419.499 182.800, 428.792 179.105, 438.084 175.410, 447.376 171.687, 456.740 171.687, 466.740 171.687, 476.740 171.687, 486.740 171.687, 496.740 171.687, 506.740 171.687, 516.740 171.687, 526.740 171.687, 536.740 171.687, 545.156 175.382, 554.449 179.077, 563.741 182.772, 573.033 186.467, 582.326 190.162, 591.618 193.857, 600.910 197.580, 610.274 205.587, 616.264 213.594, 622.255 221.600, 628.246 229.607, 634.237 237.614, 640.228 239.749, 641.825 247.756, 647.816 255.285, 653.449 263.292, 659.440 271.360, 665.476 280.845, 668.646 290.329, 671.815 299.814, 674.984 307.812, 677.656 313.028, 679.399 322.513, 682.568 331.998, 685.737 341.482, 688.907 350.967, 692.076 360.451, 695.245 369.936, 698.414 379.420, 701.583 381.766, 702.367 391.717, 703.356 401.668, 704.345 411.618, 705.334 421.569, 706.323 431.520, 707.313 441.471, 708.302 451.422, 709.291 461.373, 710.280 471.324, 711.269 481.275, 712.259 491.226, 713.248 501.177, 714.237 512.000, 715.313 521.951, 714.324 531.902, 713.335 541.853, 712.345 551.804, 711.356 561.755, 710.367 571.706, 709.378 581.657, 708.388 591.608, 707.399 601.559, 706.410 611.510, 705.421 621.460, 704.432 631.411, 703.442 642.234, 702.367 651.719, 699.197 661.203, 696.028 670.688, 692.859 680.173, 689.690 689.657, 686.521 699.142, 683.352 708.626, 680.183 710.971, 679.399 716.188, 677.656 725.672, 674.487 735.157, 671.318 744.642, 668.149 752.640, 665.476 760.647, 659.486 768.715, 653.449 776.722, 647.458 784.250, 641.825 792.257, 635.834 800.264, 629.844 808.271, 623.853 816.278, 617.862 824.285, 611.871 826.420, 610.274 830.115, 600.981 833.810, 591.689 837.505, 582.397 841.200, 573.104 844.895, 563.812 848.590, 554.520 852.313, 545.156 852.313, 535.156 852.313, 525.156 852.313, 515.156 852.313, 505.156 852.313, 495.156 852.313, 485.156 852.313, 475.156 852.313, 465.156 852.313, 456.740 848.618, 447.447 844.923, 438.155 841.228, 428.863 837.533, 419.570 833.838, 410.278 830.143, 400.986 826.420, 391.622 818.413, 385.632 810.406, 379.641 802.400, 373.650 794.393, 367.659 786.386, 361.668 778.379, 355.678 770.372, 349.687 762.365, 343.696 754.358, 337.705 752.640, 336.420 743.155, 333.250 733.671, 330.081 724.186, 326.912 714.702, 323.743 712.867, 323.130 " />
            <path fill="none" stroke-width="0.5" stroke-linecap="butt" stroke-opacity="1.0" stroke="currentColor" stroke-linejoin="round" d=" M 852.313, 456.740 848.618, 466.032 844.923, 475.324 841.228, 484.617 837.533, 493.909 833.838, 503.201 830.143, 512.494 826.420, 521.857 818.413, 527.848 810.406, 533.838 802.400, 539.829 794.393, 545.820 786.386, 551.811 784.250, 553.408 779.580, 556.903 771.573, 562.894 763.566, 568.885 755.559, 574.876 752.640, 577.060 743.155, 580.229 733.671, 583.398 724.186, 586.567 716.188, 589.239 706.703, 592.409 697.219, 595.578 687.734, 598.747 678.250, 601.916 668.765, 605.085 659.281, 608.254 649.796, 611.423 642.234, 613.950 638.433, 614.328 628.482, 615.317 618.531, 616.306 608.580, 617.295 598.629, 618.284 588.678, 619.274 578.727, 620.263 568.776, 621.252 558.825, 622.241 548.874, 623.231 538.923, 624.220 528.972, 625.209 519.021, 626.198 512.000, 626.896 502.049, 625.907 492.098, 624.918 482.147, 623.929 472.196, 622.939 462.245, 621.950 452.294, 620.961 442.343, 619.972 432.392, 618.982 422.441, 617.993 412.490, 617.004 402.540, 616.015 392.589, 615.026 385.567, 614.328 381.766, 613.950 372.281, 610.781 362.797, 607.612 353.312, 604.442 343.827, 601.273 334.343, 598.104 324.858, 594.935 315.374, 591.766 307.812, 589.239 298.328, 586.070 288.843, 582.901 279.358, 579.732 271.360, 577.060 263.353, 571.069 255.346, 565.078 247.339, 559.087 244.420, 556.903 239.749, 553.408 231.743, 547.418 223.736, 541.427 215.729, 535.436 207.722, 529.445 199.715, 523.454 197.580, 521.857 193.885, 512.564 190.190, 503.272 186.495, 493.980 182.800, 484.688 179.105, 475.395 175.410, 466.103 171.687, 456.740 " />
            <path fill="none" stroke-width="0.5" stroke-linecap="butt" stroke-opacity="1.0" stroke="currentColor" stroke-linejoin="round" d=" M 714.723, 453.056 716.188, 456.740 715.913, 457.431 712.218, 466.723 708.523, 476.015 704.828, 485.308 701.133, 494.600 700.652, 495.810 693.785, 500.948 685.778, 506.939 677.771, 512.930 669.764, 518.920 661.757, 524.911 656.384, 528.932 646.899, 532.101 637.415, 535.270 627.930, 538.439 618.446, 541.608 608.961, 544.777 599.477, 547.946 590.141, 551.066 580.190, 552.055 570.239, 553.044 560.288, 554.033 550.337, 555.023 540.386, 556.012 530.435, 557.001 524.278, 557.613 514.327, 558.602 512.000, 558.834 502.049, 557.844 499.722, 557.613 489.771, 556.624 479.820, 555.635 469.869, 554.645 459.918, 553.656 449.967, 552.667 440.016, 551.678 433.859, 551.066 424.375, 547.897 414.890, 544.727 405.406, 541.558 395.921, 538.389 386.437, 535.220 376.952, 532.051 367.616, 528.932 359.609, 522.941 351.602, 516.950 343.595, 510.959 335.588, 504.968 330.215, 500.948 323.348, 495.810 319.653, 486.518 315.958, 477.225 312.263, 467.933 308.568, 458.641 308.087, 457.431 307.812, 456.740 309.277, 453.056 " />
            <path fill="none" stroke-width="0.5" stroke-linecap="butt" stroke-opacity="1.0" stroke="currentColor" stroke-linejoin="round" d=" M 307.812, 449.372 309.277, 453.056 310.345, 455.741 314.040, 465.034 317.735, 474.326 321.430, 483.618 323.348, 488.442 331.355, 494.433 335.139, 497.264 343.146, 503.255 351.153, 509.246 359.160, 515.236 367.166, 521.227 367.616, 521.564 377.101, 524.733 386.585, 527.902 396.070, 531.071 405.554, 534.240 415.039, 537.409 424.523, 540.578 433.859, 543.698 443.810, 544.687 453.761, 545.676 463.712, 546.665 473.663, 547.654 483.614, 548.644 493.565, 549.633 503.516, 550.622 512.000, 551.465 521.951, 550.476 531.902, 549.487 541.853, 548.498 551.804, 547.509 561.755, 546.519 571.706, 545.530 581.657, 544.541 590.141, 543.698 599.625, 540.529 609.110, 537.359 618.594, 534.190 628.079, 531.021 637.563, 527.852 647.048, 524.683 656.384, 521.564 664.391, 515.573 672.398, 509.582 680.405, 503.591 688.412, 497.600 688.861, 497.264 696.868, 491.273 700.652, 488.442 704.347, 479.150 708.042, 469.857 711.737, 460.565 713.655, 455.741 714.723, 453.056 716.188, 449.372 " />
            <path fill="none" stroke-width="0.5" stroke-linecap="butt" stroke-opacity="1.0" stroke="currentColor" stroke-linejoin="round" d=" M 716.188, 331.482 712.493, 340.775 708.798, 350.067 705.103, 359.359 701.408, 368.652 700.652, 370.553 692.645, 376.544 684.638, 382.534 676.632, 388.525 674.090, 390.427 669.166, 394.111 661.159, 400.102 656.384, 403.674 646.899, 406.844 637.415, 410.013 627.930, 413.182 618.446, 416.351 608.961, 419.520 599.477, 422.689 590.141, 425.809 580.190, 426.798 570.239, 427.787 560.288, 428.776 550.337, 429.765 540.386, 430.755 530.435, 431.744 520.484, 432.733 512.000, 433.576 502.049, 432.587 492.098, 431.598 482.147, 430.609 472.196, 429.620 462.245, 428.630 452.294, 427.641 442.343, 426.652 433.859, 425.809 424.375, 422.639 414.890, 419.470 405.406, 416.301 395.921, 413.132 386.437, 409.963 376.952, 406.794 367.616, 403.674 359.609, 397.684 354.834, 394.111 349.910, 390.427 341.903, 384.436 333.897, 378.445 325.890, 372.455 323.348, 370.553 319.653, 361.260 315.958, 351.968 312.263, 342.676 308.568, 333.383 307.812, 331.482 311.133, 323.130 314.828, 313.838 318.523, 304.545 322.218, 295.253 323.348, 292.412 331.355, 286.421 339.362, 280.431 347.368, 274.440 355.375, 268.449 363.382, 262.458 367.616, 259.290 377.101, 256.121 386.585, 252.952 396.070, 249.783 405.554, 246.614 415.039, 243.445 424.523, 240.276 433.859, 237.156 443.810, 236.167 453.761, 235.178 463.712, 234.189 473.663, 233.200 483.614, 232.210 493.565, 231.221 503.516, 230.232 512.000, 229.389 521.951, 230.378 531.902, 231.367 541.853, 232.356 551.804, 233.345 561.755, 234.335 571.706, 235.324 581.657, 236.313 590.141, 237.156 599.625, 240.326 609.110, 243.495 618.594, 246.664 628.079, 249.833 637.563, 253.002 647.048, 256.171 656.384, 259.290 664.391, 265.281 672.398, 271.272 680.405, 277.263 688.412, 283.254 696.418, 289.245 700.652, 292.412 704.347, 301.705 708.042, 310.997 711.737, 320.289 712.867, 323.130 716.188, 331.482 716.188, 341.482 716.188, 351.482 716.188, 361.482 716.188, 371.482 716.188, 381.482 716.188, 391.482 716.188, 401.482 716.188, 411.482 716.188, 412.657 716.188, 422.657 716.188, 432.657 716.188, 442.657 716.188, 449.372 " />
            <path fill="none" stroke-width="0.5" stroke-linecap="butt" stroke-opacity="1.0" stroke="currentColor" stroke-linejoin="round" d=" M 307.812, 331.482 307.812, 341.482 307.812, 351.482 307.812, 361.482 307.812, 371.482 307.812, 381.482 307.812, 391.482 307.812, 401.482 307.812, 411.482 307.812, 412.657 307.812, 422.657 307.812, 432.657 307.812, 442.657 307.812, 449.372 " />
            <path fill="none" stroke-width="0.5" stroke-linecap="butt" stroke-opacity="1.0" stroke="currentColor" stroke-linejoin="round" d=" M 308.087, 457.431 310.345, 455.741 " />
            <path fill="none" stroke-width="0.5" stroke-linecap="butt" stroke-opacity="1.0" stroke="currentColor" stroke-linejoin="round" d=" M 335.139, 497.264 330.215, 500.948 " />
            <path fill="none" stroke-width="0.5" stroke-linecap="butt" stroke-opacity="1.0" stroke="currentColor" stroke-linejoin="round" d=" M 693.785, 500.948 688.861, 497.264 " />
            <path fill="none" stroke-width="0.5" stroke-linecap="butt" stroke-opacity="1.0" stroke="currentColor" stroke-linejoin="round" d=" M 713.655, 455.741 715.913, 457.431 " />
        </g>
    </g>
</svg>
